<?xml version="1.0" standalone="no"?>
<!DOCTYPE svg PUBLIC "-//W3C//DTD SVG 20010904//EN"
 "http://www.w3.org/TR/2001/REC-SVG-20010904/DTD/svg10.dtd">
<svg version="1.0" xmlns="http://www.w3.org/2000/svg"
 width="1024.000000pt" height="1024.000000pt" viewBox="0 0 1024.000000 1024.000000"
 preserveAspectRatio="xMidYMid meet">
<metadata>
Created by potrace 1.14, written by Peter Selinger 2001-2017
</metadata>
<g transform="translate(0.000000,1024.000000) scale(0.100000,-0.100000)"
fill="#000000" stroke="none">
<path d="M2670 8613 c-148 -22 -348 -93 -485 -172 -221 -126 -405 -304 -543
-526 -88 -141 -175 -384 -202 -565 -7 -42 -9 -847 -8 -2280 l3 -2215 42 -150
c36 -130 65 -209 116 -315 24 -51 102 -177 144 -231 221 -292 530 -480 894
-544 126 -22 4851 -22 4978 0 113 20 193 41 245 64 23 11 67 30 97 41 72 29
209 112 289 176 78 61 210 198 266 274 138 187 241 454 286 740 19 121 18
4319 0 4425 -68 378 -183 614 -421 858 -184 190 -450 339 -726 409 l-90 22
-2395 2 c-2052 2 -2409 0 -2490 -13z m1926 -1328 c102 -30 164 -113 165 -222
1 -70 -23 -126 -72 -167 -69 -59 -76 -60 -437 -66 l-333 -5 600 -592 599 -593
224 223 c123 122 393 390 601 595 207 206 377 375 377 376 0 2 -150 2 -332 2
-377 -1 -397 2 -462 74 -99 110 -61 288 79 363 39 22 48 22 620 25 603 3 667
0 771 -39 130 -49 250 -166 302 -295 39 -97 44 -200 40 -814 -4 -480 -7 -582
-20 -616 -63 -174 -291 -225 -403 -92 -54 64 -55 69 -55 458 0 226 -4 360 -10
360 -13 0 -1140 -1122 -1140 -1136 0 -6 145 -152 323 -326 177 -173 435 -426
572 -560 l250 -245 5 366 c5 362 5 366 28 404 98 157 341 139 421 -32 l26 -56
0 -635 c0 -689 0 -686 -57 -807 -37 -80 -138 -183 -219 -223 -127 -64 -116
-63 -767 -68 -521 -3 -599 -1 -648 13 -148 43 -217 201 -146 336 41 79 87 107
192 119 47 5 209 10 360 10 l275 1 -600 594 c-330 327 -605 594 -611 595 -10
0 -1186 -1172 -1192 -1188 -1 -4 134 -6 300 -4 332 3 384 -3 446 -48 54 -39
81 -80 94 -142 21 -102 -33 -207 -130 -255 l-57 -28 -610 0 c-482 0 -622 3
-665 14 -195 48 -357 211 -390 392 -7 36 -10 290 -8 700 3 639 3 644 25 685
50 94 130 140 232 132 85 -6 147 -46 184 -117 l27 -55 0 -285 c0 -157 3 -316
6 -353 l7 -67 574 567 574 567 -133 129 c-73 71 -332 326 -574 568 -243 241
-445 438 -448 438 -3 0 -6 -162 -6 -360 l0 -361 -25 -49 c-74 -147 -275 -165
-383 -34 -62 75 -62 73 -62 761 0 538 2 634 16 687 51 197 201 336 409 380
104 21 1198 23 1271 1z"/>
</g>
</svg>
