<?xml version="1.0" encoding="UTF-8"?>
<svg id="Calque_1" xmlns="http://www.w3.org/2000/svg" xmlns:xlink="http://www.w3.org/1999/xlink" version="1.1" viewBox="0 0 121.9 53.9">
  <!-- Generator: Adobe Illustrator 29.1.0, SVG Export Plug-In . SVG Version: 2.1.0 Build 142)  -->
  <defs>
    <style>
      .st0 {
        fill: #55678c;
      }

      .st1 {
        fill: url(#Dégradé_sans_nom_9);
      }

      .st2 {
        fill: url(#Dégradé_sans_nom_6);
      }

      .st3 {
        fill: url(#Dégradé_sans_nom_7);
      }

      .st4 {
        fill: url(#Dégradé_sans_nom_4);
      }

      .st5 {
        fill: url(#Dégradé_sans_nom_5);
      }

      .st6 {
        fill: url(#Dégradé_sans_nom_2);
      }

      .st7 {
        fill: url(#Dégradé_sans_nom_3);
      }

      .st8 {
        fill: url(#Dégradé_sans_nom_8);
      }

      .st9 {
        fill: #c5af7c;
      }

      .st10, .st11, .st12, .st13, .st14, .st15, .st16, .st17, .st18, .st19, .st20 {
        isolation: isolate;
      }

      .st21 {
        mix-blend-mode: multiply;
      }

      .st22 {
        fill: #62769f;
      }

      .st23 {
        fill: url(#Dégradé_sans_nom);
      }

      .st24 {
        fill: #b58b6e;
      }

      .st25 {
        fill: url(#Dégradé_sans_nom1);
      }

      .st11 {
        fill: url(#Dégradé_sans_nom_18);
      }

      .st11, .st12, .st13, .st14, .st15, .st16 {
        opacity: .4;
      }

      .st12 {
        fill: url(#Dégradé_sans_nom_16);
      }

      .st13 {
        fill: url(#Dégradé_sans_nom_17);
      }

      .st14 {
        fill: url(#Dégradé_sans_nom_11);
      }

      .st15 {
        fill: url(#Dégradé_sans_nom_12);
      }

      .st16 {
        fill: url(#Dégradé_sans_nom_10);
      }

      .st17 {
        fill: url(#Dégradé_sans_nom_13);
      }

      .st17, .st18, .st19, .st20 {
        opacity: .3;
      }

      .st18 {
        fill: url(#Dégradé_sans_nom_14);
      }

      .st19 {
        fill: url(#Dégradé_sans_nom_15);
      }

      .st20 {
        fill: url(#Dégradé_sans_nom_131);
      }

      .st26 {
        fill: #afb4bb;
      }
    </style>
    <linearGradient id="Dégradé_sans_nom" data-name="Dégradé sans nom" x1="47.5" y1="53.4" x2="69.6" y2="53.4" gradientTransform="translate(0 55.2) scale(1 -1)" gradientUnits="userSpaceOnUse">
      <stop offset="0" stop-color="#fff" stop-opacity=".6"/>
      <stop offset="0" stop-color="#fff" stop-opacity=".6"/>
      <stop offset=".2" stop-color="#fff" stop-opacity=".5"/>
      <stop offset=".3" stop-color="#fff" stop-opacity=".4"/>
      <stop offset=".4" stop-color="#fff" stop-opacity=".3"/>
      <stop offset=".5" stop-color="#fff" stop-opacity=".2"/>
      <stop offset=".6" stop-color="#fff" stop-opacity="0"/>
      <stop offset="1" stop-color="#fff" stop-opacity=".2"/>
    </linearGradient>
    <linearGradient id="Dégradé_sans_nom1" data-name="Dégradé sans nom" y1="53.4" y2="53.4" xlink:href="#Dégradé_sans_nom"/>
    <linearGradient id="Dégradé_sans_nom_2" data-name="Dégradé sans nom 2" x1="24.3" y1="53.4" x2="46.4" y2="53.4" gradientTransform="translate(0 55.2) scale(1 -1)" gradientUnits="userSpaceOnUse">
      <stop offset="0" stop-color="#fff" stop-opacity=".6"/>
      <stop offset="0" stop-color="#fff" stop-opacity=".6"/>
      <stop offset=".2" stop-color="#fff" stop-opacity=".5"/>
      <stop offset=".3" stop-color="#fff" stop-opacity=".4"/>
      <stop offset=".4" stop-color="#fff" stop-opacity=".3"/>
      <stop offset=".5" stop-color="#fff" stop-opacity=".2"/>
      <stop offset=".6" stop-color="#fff" stop-opacity="0"/>
      <stop offset="1" stop-color="#fff" stop-opacity=".2"/>
    </linearGradient>
    <linearGradient id="Dégradé_sans_nom_3" data-name="Dégradé sans nom 3" x1="1.1" y1="53.4" x2="23.2" y2="53.4" gradientTransform="translate(0 55.2) scale(1 -1)" gradientUnits="userSpaceOnUse">
      <stop offset="0" stop-color="#fff" stop-opacity=".6"/>
      <stop offset="0" stop-color="#fff" stop-opacity=".6"/>
      <stop offset=".2" stop-color="#fff" stop-opacity=".5"/>
      <stop offset=".3" stop-color="#fff" stop-opacity=".4"/>
      <stop offset=".4" stop-color="#fff" stop-opacity=".3"/>
      <stop offset=".5" stop-color="#fff" stop-opacity=".2"/>
      <stop offset=".6" stop-color="#fff" stop-opacity="0"/>
      <stop offset="1" stop-color="#fff" stop-opacity=".2"/>
    </linearGradient>
    <linearGradient id="Dégradé_sans_nom_4" data-name="Dégradé sans nom 4" x1="91.9" y1="55.1" x2="91.9" y2="22.6" gradientTransform="translate(0 55.2) scale(1 -1)" gradientUnits="userSpaceOnUse">
      <stop offset="0" stop-color="#fff" stop-opacity=".6"/>
      <stop offset="0" stop-color="#fff" stop-opacity=".6"/>
      <stop offset=".2" stop-color="#fff" stop-opacity=".5"/>
      <stop offset=".3" stop-color="#fff" stop-opacity=".4"/>
      <stop offset=".4" stop-color="#fff" stop-opacity=".2"/>
      <stop offset=".6" stop-color="#fff" stop-opacity="0"/>
      <stop offset=".6" stop-color="#fff" stop-opacity="0"/>
    </linearGradient>
    <linearGradient id="Dégradé_sans_nom_5" data-name="Dégradé sans nom 5" x1="111.5" y1="55.1" x2="111.5" y2="22.6" gradientTransform="translate(0 55.2) scale(1 -1)" gradientUnits="userSpaceOnUse">
      <stop offset="0" stop-color="#fff" stop-opacity=".6"/>
      <stop offset="0" stop-color="#fff" stop-opacity=".6"/>
      <stop offset=".2" stop-color="#fff" stop-opacity=".5"/>
      <stop offset=".3" stop-color="#fff" stop-opacity=".4"/>
      <stop offset=".4" stop-color="#fff" stop-opacity=".2"/>
      <stop offset=".6" stop-color="#fff" stop-opacity="0"/>
      <stop offset=".6" stop-color="#fff" stop-opacity="0"/>
    </linearGradient>
    <linearGradient id="Dégradé_sans_nom_6" data-name="Dégradé sans nom 6" x1="79.2" y1="55.1" x2="79.2" y2="22.6" gradientTransform="translate(0 55.2) scale(1 -1)" gradientUnits="userSpaceOnUse">
      <stop offset="0" stop-color="#fff" stop-opacity=".6"/>
      <stop offset="0" stop-color="#fff" stop-opacity=".6"/>
      <stop offset=".2" stop-color="#fff" stop-opacity=".5"/>
      <stop offset=".3" stop-color="#fff" stop-opacity=".4"/>
      <stop offset=".4" stop-color="#fff" stop-opacity=".2"/>
      <stop offset=".6" stop-color="#fff" stop-opacity="0"/>
      <stop offset=".6" stop-color="#fff" stop-opacity="0"/>
    </linearGradient>
    <linearGradient id="Dégradé_sans_nom_7" data-name="Dégradé sans nom 7" x1="36.1" y1="47.3" x2="36.1" y2="22.6" gradientTransform="translate(0 55.2) scale(1 -1)" gradientUnits="userSpaceOnUse">
      <stop offset="0" stop-color="#fff" stop-opacity=".6"/>
      <stop offset="0" stop-color="#fff" stop-opacity=".6"/>
      <stop offset=".2" stop-color="#fff" stop-opacity=".5"/>
      <stop offset=".3" stop-color="#fff" stop-opacity=".4"/>
      <stop offset=".4" stop-color="#fff" stop-opacity=".2"/>
      <stop offset=".6" stop-color="#fff" stop-opacity="0"/>
      <stop offset=".6" stop-color="#fff" stop-opacity="0"/>
    </linearGradient>
    <linearGradient id="Dégradé_sans_nom_8" data-name="Dégradé sans nom 8" x1="60.6" y1="47.3" x2="60.6" y2="21.6" gradientTransform="translate(0 55.2) scale(1 -1)" gradientUnits="userSpaceOnUse">
      <stop offset="0" stop-color="#fff" stop-opacity=".6"/>
      <stop offset="0" stop-color="#fff" stop-opacity=".6"/>
      <stop offset=".2" stop-color="#fff" stop-opacity=".5"/>
      <stop offset=".3" stop-color="#fff" stop-opacity=".4"/>
      <stop offset=".4" stop-color="#fff" stop-opacity=".2"/>
      <stop offset=".6" stop-color="#fff" stop-opacity="0"/>
      <stop offset=".6" stop-color="#fff" stop-opacity="0"/>
    </linearGradient>
    <linearGradient id="Dégradé_sans_nom_9" data-name="Dégradé sans nom 9" x1="10.9" y1="47.4" x2="10.9" y2="21.7" gradientTransform="translate(0 55.2) scale(1 -1)" gradientUnits="userSpaceOnUse">
      <stop offset="0" stop-color="#fff" stop-opacity=".6"/>
      <stop offset="0" stop-color="#fff" stop-opacity=".6"/>
      <stop offset=".2" stop-color="#fff" stop-opacity=".5"/>
      <stop offset=".3" stop-color="#fff" stop-opacity=".4"/>
      <stop offset=".4" stop-color="#fff" stop-opacity=".2"/>
      <stop offset=".6" stop-color="#fff" stop-opacity="0"/>
      <stop offset=".6" stop-color="#fff" stop-opacity="0"/>
    </linearGradient>
    <linearGradient id="Dégradé_sans_nom_10" data-name="Dégradé sans nom 10" x1="36.1" y1="47.3" x2="36.1" y2="22.6" gradientTransform="translate(0 55.2) scale(1 -1)" gradientUnits="userSpaceOnUse">
      <stop offset="0" stop-color="#fff" stop-opacity="0"/>
      <stop offset=".1" stop-color="#d4d4d4" stop-opacity=".2"/>
      <stop offset=".7" stop-color="#1e1e1c"/>
      <stop offset=".8" stop-color="#434341" stop-opacity=".8"/>
      <stop offset=".9" stop-color="#aeaead" stop-opacity=".4"/>
      <stop offset="1" stop-color="#fff" stop-opacity="0"/>
    </linearGradient>
    <linearGradient id="Dégradé_sans_nom_11" data-name="Dégradé sans nom 11" x1="60.6" y1="47.3" x2="60.6" y2="21.6" gradientTransform="translate(0 55.2) scale(1 -1)" gradientUnits="userSpaceOnUse">
      <stop offset="0" stop-color="#fff" stop-opacity="0"/>
      <stop offset=".1" stop-color="#d4d4d4" stop-opacity=".2"/>
      <stop offset=".7" stop-color="#1e1e1c"/>
      <stop offset=".8" stop-color="#434341" stop-opacity=".8"/>
      <stop offset=".9" stop-color="#aeaead" stop-opacity=".4"/>
      <stop offset="1" stop-color="#fff" stop-opacity="0"/>
    </linearGradient>
    <linearGradient id="Dégradé_sans_nom_12" data-name="Dégradé sans nom 12" x1="10.9" y1="47.4" x2="10.9" y2="21.7" gradientTransform="translate(0 55.2) scale(1 -1)" gradientUnits="userSpaceOnUse">
      <stop offset="0" stop-color="#fff" stop-opacity="0"/>
      <stop offset=".1" stop-color="#d4d4d4" stop-opacity=".2"/>
      <stop offset=".7" stop-color="#1e1e1c"/>
      <stop offset=".8" stop-color="#434341" stop-opacity=".8"/>
      <stop offset=".9" stop-color="#aeaead" stop-opacity=".4"/>
      <stop offset="1" stop-color="#fff" stop-opacity="0"/>
    </linearGradient>
    <linearGradient id="Dégradé_sans_nom_13" data-name="Dégradé sans nom 13" x1="47.5" y1="53.4" x2="69.6" y2="53.4" gradientTransform="translate(0 55.2) scale(1 -1)" gradientUnits="userSpaceOnUse">
      <stop offset="0" stop-color="#fff" stop-opacity="0"/>
      <stop offset=".2" stop-color="#b3b3b2" stop-opacity=".3"/>
      <stop offset=".7" stop-color="#1e1e1c"/>
      <stop offset=".8" stop-color="#616160" stop-opacity=".7"/>
      <stop offset="1" stop-color="#fff" stop-opacity="0"/>
    </linearGradient>
    <linearGradient id="Dégradé_sans_nom_131" data-name="Dégradé sans nom 13" y1="53.4" y2="53.4" xlink:href="#Dégradé_sans_nom_13"/>
    <linearGradient id="Dégradé_sans_nom_14" data-name="Dégradé sans nom 14" x1="24.3" y1="53.4" x2="46.4" y2="53.4" gradientTransform="translate(0 55.2) scale(1 -1)" gradientUnits="userSpaceOnUse">
      <stop offset="0" stop-color="#fff" stop-opacity="0"/>
      <stop offset=".2" stop-color="#b3b3b2" stop-opacity=".3"/>
      <stop offset=".7" stop-color="#1e1e1c"/>
      <stop offset=".8" stop-color="#616160" stop-opacity=".7"/>
      <stop offset="1" stop-color="#fff" stop-opacity="0"/>
    </linearGradient>
    <linearGradient id="Dégradé_sans_nom_15" data-name="Dégradé sans nom 15" x1="1.1" y1="53.4" x2="23.2" y2="53.4" gradientTransform="translate(0 55.2) scale(1 -1)" gradientUnits="userSpaceOnUse">
      <stop offset="0" stop-color="#fff" stop-opacity="0"/>
      <stop offset=".2" stop-color="#b3b3b2" stop-opacity=".3"/>
      <stop offset=".7" stop-color="#1e1e1c"/>
      <stop offset=".8" stop-color="#616160" stop-opacity=".7"/>
      <stop offset="1" stop-color="#fff" stop-opacity="0"/>
    </linearGradient>
    <linearGradient id="Dégradé_sans_nom_16" data-name="Dégradé sans nom 16" x1="111.5" y1="55.1" x2="111.5" y2="22.6" gradientTransform="translate(0 55.2) scale(1 -1)" gradientUnits="userSpaceOnUse">
      <stop offset="0" stop-color="#fff" stop-opacity="0"/>
      <stop offset=".1" stop-color="#d4d4d4" stop-opacity=".2"/>
      <stop offset=".7" stop-color="#1e1e1c"/>
      <stop offset=".8" stop-color="#434341" stop-opacity=".8"/>
      <stop offset=".9" stop-color="#aeaead" stop-opacity=".4"/>
      <stop offset="1" stop-color="#fff" stop-opacity="0"/>
    </linearGradient>
    <linearGradient id="Dégradé_sans_nom_17" data-name="Dégradé sans nom 17" x1="91.9" y1="55.1" x2="91.9" y2="22.6" gradientTransform="translate(0 55.2) scale(1 -1)" gradientUnits="userSpaceOnUse">
      <stop offset="0" stop-color="#fff" stop-opacity="0"/>
      <stop offset=".1" stop-color="#d4d4d4" stop-opacity=".2"/>
      <stop offset=".7" stop-color="#1e1e1c"/>
      <stop offset=".8" stop-color="#434341" stop-opacity=".8"/>
      <stop offset=".9" stop-color="#aeaead" stop-opacity=".4"/>
      <stop offset="1" stop-color="#fff" stop-opacity="0"/>
    </linearGradient>
    <linearGradient id="Dégradé_sans_nom_18" data-name="Dégradé sans nom 18" x1="79.2" y1="55.1" x2="79.2" y2="22.6" gradientTransform="translate(0 55.2) scale(1 -1)" gradientUnits="userSpaceOnUse">
      <stop offset="0" stop-color="#fff" stop-opacity="0"/>
      <stop offset=".1" stop-color="#d4d4d4" stop-opacity=".2"/>
      <stop offset=".7" stop-color="#1e1e1c"/>
      <stop offset=".8" stop-color="#434341" stop-opacity=".8"/>
      <stop offset=".9" stop-color="#aeaead" stop-opacity=".4"/>
      <stop offset="1" stop-color="#fff" stop-opacity="0"/>
    </linearGradient>
  </defs>
  <g class="st10">
    <g id="baseline">
      <path class="st0" d="M86.1,50.1h-1.1c0-.4,0-.7.2-.9,0-.2.2-.2.4-.2s.3,0,.4.2c0,.2.1.4.1.8h0s0,0,0,0ZM87,50.3c0-.6-.1-1.1-.4-1.4-.2-.3-.6-.5-1.1-.5s-.8.2-1.1.5c-.3.4-.4.9-.4,1.5s.1,1.1.4,1.5c.3.3.7.5,1.2.5s.9-.2,1.2-.5l-.4-.5c-.1.1-.3.2-.4.2-.1,0-.3,0-.4,0-.2,0-.4,0-.5-.2s-.2-.4-.2-.8h2c0-.2,0-.3,0-.4M82.3,48.4c-.4,0-.7.1-.9.3s-.3.5-.3.8,0,.5.2.7.4.3.7.5c.2,0,.3.1.4.2,0,0,.2.1.2.2,0,0,0,.2,0,.3s0,.3-.1.3c0,0-.2.1-.4.1-.3,0-.6-.1-.8-.4l-.4.5c.2.2.4.3.6.4.2,0,.5.1.7.1.4,0,.7-.1,1-.3.3-.2.4-.5.4-.9s0-.5-.2-.7c-.2-.2-.4-.3-.7-.5-.3-.1-.4-.2-.5-.3,0,0-.1-.2-.1-.3s0-.2.1-.3c0,0,.2-.1.3-.1s.2,0,.4,0,.2.1.4.2l.3-.5c-.3-.3-.7-.5-1.2-.5M79.8,46.5c-.2,0-.3,0-.4.2,0,0-.2.2-.2.4s0,.3.2.4c0,0,.2.2.4.2s.3,0,.4-.2c0,0,.2-.2.2-.4s0-.3-.2-.4-.2-.2-.4-.2M79.4,52.3h.9v-3.8h-.9v3.8ZM78.5,48.4c-.4,0-.7.2-.8.8v-.7h-.8v3.8h.9v-2.1c0-.3.1-.5.2-.7s.2-.2.4-.2.2,0,.3,0l.2-.9c0,0-.2,0-.3,0M74.6,51.7c-.2,0-.4-.1-.5-.4v-1.9c.2-.3.4-.5.6-.5s.3,0,.4.3c0,.2.1.5.1,1.1s0,.8-.2,1-.2.3-.4.3M74.9,48.4c-.2,0-.4,0-.5.1-.2,0-.3.2-.4.4v-.5h-.8v5.4h.9v-1.9c.2.3.5.4.8.4s.7-.2.9-.5.3-.9.3-1.5,0-1.2-.3-1.5-.5-.5-.9-.5M71.5,50.1h-1.1c0-.4,0-.7.2-.9,0-.2.2-.2.4-.2s.3,0,.4.2.1.4.1.8h0s0,0,0,0ZM72.4,50.3c0-.6-.1-1.1-.4-1.4-.2-.3-.6-.5-1.1-.5s-.8.2-1.1.5c-.3.4-.4.9-.4,1.5s.1,1.1.4,1.5c.3.3.7.5,1.2.5s.9-.2,1.2-.5l-.4-.5c-.1.1-.3.2-.4.2-.1,0-.3,0-.4,0-.2,0-.4,0-.5-.2s-.2-.4-.2-.8h2c0-.2,0-.3,0-.4M68.8,48.4c-.4,0-.7.2-.8.8v-.7h-.8v3.8h.9v-2.1c0-.3.1-.5.2-.7s.2-.2.4-.2.2,0,.3,0l.2-.9c0,0-.2,0-.3,0M66.3,51.6c0,0-.1,0-.2,0s0,0-.2,0c-.2,0-.3-.1-.3-.3v-2.2h.6v-.7c0,0-.6,0-.6,0v-1h-.9v1h-.4v.7h.4v2.2c0,.3,0,.6.3.8.2.2.4.3.8.3s.6,0,.8-.3l-.3-.5h0ZM62.8,48.4c-.2,0-.4,0-.5.2-.2,0-.3.2-.4.5v-.5h-.8v3.8h.9v-2.7c.2-.4.4-.6.6-.6s.2,0,.2.1c0,0,0,.2,0,.4v2.8h.9v-2.8c0-.3,0-.6-.2-.8s-.4-.3-.7-.3M57.8,47.3v5h2.5v-.7h-1.6v-1.5h1.3v-.7h-1.3v-1.4h1.5v-.7c0,0-2.4,0-2.4,0h0ZM56.5,46.8c-.2,0-.3,0-.3.2,0,0-.1.2-.1.4s0,.3.2.4l-.2,1.1h.5l.4-1c0-.2.1-.3.1-.3s0-.2,0-.2c0-.2,0-.3-.1-.4,0,0-.2-.1-.3-.1M55.1,52.4c.2,0,.4,0,.5-.1l-.2-.6s0,0,0,0c0,0,0,0,0,0,0,0,0,0-.1,0,0,0,0,0,0-.2v-4.7h-.9v4.7c0,.3,0,.5.2.7.2.2.4.2.6.2M52.1,51.6c0,0-.1,0-.2,0s0,0-.2,0c-.2,0-.3-.1-.3-.3v-2.2h.6v-.7c0,0-.6,0-.6,0v-1h-.9v1h-.5v.7h.5v2.2c0,.3,0,.6.3.8s.4.3.8.3.6,0,.8-.3l-.3-.5h0ZM48.9,50.1h-1.1c0-.4,0-.7.2-.9,0-.2.2-.2.4-.2s.3,0,.4.2c0,.2.1.4.1.8h0s0,0,0,0ZM49.8,50.3c0-.6-.1-1.1-.4-1.4-.2-.3-.6-.5-1.1-.5s-.8.2-1.1.5c-.3.4-.4.9-.4,1.5s.1,1.1.4,1.5.7.5,1.2.5.9-.2,1.2-.5l-.4-.5c-.1.1-.3.2-.4.2-.1,0-.3,0-.4,0-.2,0-.4,0-.5-.2s-.2-.4-.2-.8h2c0-.2,0-.3,0-.4M44.1,50.1h-1.1c0-.4,0-.7.2-.9,0-.2.2-.2.4-.2s.3,0,.4.2c0,.2.1.4.1.8h0s0,0,0,0ZM44.9,50.3c0-.6-.1-1.1-.4-1.4-.2-.3-.6-.5-1.1-.5s-.8.2-1.1.5c-.3.4-.4.9-.4,1.5s.1,1.1.4,1.5.7.5,1.2.5.9-.2,1.2-.5l-.4-.5c-.1.1-.3.2-.4.2-.1,0-.3,0-.4,0-.2,0-.4,0-.5-.2s-.2-.4-.2-.8h2c0-.2,0-.3,0-.4M40.8,46.5c-.2,0-.3,0-.4.2,0,0-.2.2-.2.4s0,.3.2.4c0,0,.2.2.4.2s.3,0,.4-.2c0,0,.2-.2.2-.4s0-.3-.2-.4c0,0-.2-.2-.4-.2M40.4,52.3h.9v-3.8h-.9v3.8ZM39.5,48.4c-.4,0-.7.2-.8.8v-.7h-.8v3.8h.9v-2.1c0-.3.1-.5.2-.7s.2-.2.4-.2.2,0,.3,0l.2-.9c0,0-.2,0-.3,0M37,51.6c0,0-.1,0-.2,0s0,0-.2,0c-.2,0-.3-.1-.3-.3v-2.2h.6v-.7c0,0-.6,0-.6,0v-1h-.9v1h-.5v.7h.5v2.2c0,.3,0,.6.3.8s.4.3.8.3.6,0,.8-.3l-.3-.5h0ZM33.3,48.4c-.4,0-.7.1-.9.3s-.3.5-.3.8,0,.5.2.7.4.3.7.5c.2,0,.3.1.4.2s.2.1.2.2c0,0,0,.2,0,.3s0,.3-.1.3c0,0-.2.1-.4.1-.3,0-.6-.1-.8-.4l-.4.5c.2.2.4.3.6.4.2,0,.5.1.7.1.4,0,.7-.1,1-.3.3-.2.4-.5.4-.9s0-.5-.2-.7-.4-.3-.7-.5c-.3-.1-.5-.2-.5-.3s-.1-.2-.1-.3,0-.2.1-.3c0,0,.2-.1.3-.1s.2,0,.4,0,.2.1.4.2l.3-.5c-.3-.3-.7-.5-1.2-.5M31.3,48.5h-.9v2.8c0,.2-.2.3-.2.4s-.2.1-.3.1c-.2,0-.3-.2-.3-.5v-2.8h-.9v2.9c0,.3,0,.6.2.8.2.2.4.3.7.3s.4,0,.5-.2c.1,0,.3-.2.4-.5v.5h.8s0-3.8,0-3.9ZM26.3,51.7c-.2,0-.3,0-.4-.3-.1-.2-.1-.6-.1-1,0-.9.2-1.3.6-1.3s.4.1.5.4v1.9c0,.1-.2.3-.3.3,0,0-.2.1-.3.1M26.9,46.8v1.9c-.2-.3-.5-.4-.8-.4s-.5,0-.7.2-.4.4-.5.7c-.1.3-.2.7-.2,1.1,0,.6.1,1.1.3,1.5s.5.5.9.5.6-.2.9-.5v.4h.8v-5.4s-.9,0-.9,0ZM23.1,48.4c-.2,0-.4,0-.5.2-.1,0-.3.2-.4.5v-.5h-.9v3.8h.9v-2.7c.2-.4.4-.6.6-.6s.2,0,.2.1c0,0,0,.2,0,.4v2.8h.9v-2.8c0-.3,0-.6-.2-.8s-.4-.3-.7-.3M19.5,52.3h.9v-5h-.9v5ZM18.1,46.8c-.1,0-.3,0-.4.2,0,0-.1.2-.1.4s0,.3.2.4l-.2,1.1h.5l.4-1c0-.2.1-.3.1-.3,0,0,0-.2,0-.2,0-.2,0-.3-.1-.4,0,0-.2-.1-.4-.1M16.7,52.4c.2,0,.4,0,.5-.1l-.2-.6s0,0,0,0,0,0-.1,0c0,0-.1,0-.1,0s0,0,0-.2v-4.7h-.9v4.7c0,.3,0,.5.2.7s.4.2.6.2M13.7,48.4c-.4,0-.7.2-.9.8v-.7h-.8v3.8h.9v-2.1c0-.3.1-.5.2-.7s.2-.2.4-.2.2,0,.3,0v-.9c0,0,0,0-.2,0M11.1,48.5h-.9v2.8c0,.2-.2.3-.3.4,0,0-.2.1-.3.1-.2,0-.3-.2-.3-.5v-2.8h-.9v2.9c0,.3,0,.6.2.8.2.2.4.3.7.3s.4,0,.5-.2c.1,0,.3-.2.4-.5v.5h.8v-3.8h0ZM6.2,49c.2,0,.4,0,.5.3,0,.2.1.5.1,1s0,.8-.1,1c0,.2-.2.3-.5.3s-.4,0-.5-.3c0-.2-.2-.5-.2-1s0-.8.2-1,.2-.3.5-.3M6.2,48.4c-.5,0-.9.2-1.1.5-.3.3-.4.8-.4,1.5s.1,1.2.4,1.5.7.5,1.1.5.9-.2,1.1-.5.4-.9.4-1.5-.1-1.2-.4-1.5-.7-.5-1.1-.5M2.5,51.7c-.2,0-.4-.1-.5-.4v-1.9c.2-.3.4-.5.6-.5s.3,0,.4.3c0,.2.1.5.1,1.1s0,.8-.2,1c0,.2-.2.3-.4.3M2.9,48.4c-.2,0-.4,0-.5.1-.2,0-.3.2-.4.4v-.5h-.8v5.4h.9v-1.9c.2.3.5.4.8.4s.7-.2.9-.5.3-.9.3-1.5,0-1.2-.3-1.5-.5-.5-.9-.5"/>
      <path class="st0" d="M121,41.6h-1.1c0-.4,0-.7.2-.9,0-.2.2-.2.4-.2s.3,0,.4.2.1.4.1.8h0s0,0,0,0ZM121.9,41.8c0-.6-.1-1.1-.4-1.5s-.6-.5-1.1-.5-.8.2-1.1.5c-.3.4-.4.9-.4,1.5s.1,1.1.4,1.5c.3.3.7.5,1.2.5s.9-.2,1.2-.5l-.4-.5c-.1.1-.3.2-.4.2-.1,0-.3,0-.4,0-.2,0-.4,0-.5-.2s-.2-.4-.2-.8h2c0-.2,0-.3,0-.4M118.2,39.9h-.9v2.8c0,.2-.2.3-.3.4,0,0-.2.1-.3.1-.2,0-.3-.2-.3-.5v-2.8h-.9v2.9c0,.3,0,.6.2.8.2.2.4.3.7.3s.4,0,.5-.2c.2,0,.3-.2.4-.5v.5h.8v-3.8h0ZM113.2,43.2c-.2,0-.3,0-.4-.3,0-.2-.1-.6-.1-1.1s0-.8.2-1c.1-.2.2-.3.4-.3s.4.1.5.4v1.8c0,.2-.2.3-.3.3,0,0-.2.1-.3.1M113.9,39.9v.4c-.3-.3-.5-.5-.9-.5s-.5,0-.7.2-.3.4-.5.7c-.1.3-.2.7-.2,1.1,0,.7.1,1.2.3,1.5.2.4.5.5.9.5s.6-.2.8-.5v1.9h.9c0,0,0-5.3,0-5.3,0,0-.8,0-.8,0ZM110.5,38c-.2,0-.3,0-.4.2,0,0-.2.2-.2.4s0,.3.2.4c0,0,.2.2.4.2s.3,0,.4-.2c0,0,.2-.2.2-.4s0-.3-.2-.4-.2-.2-.4-.2M110,43.8h.9v-3.8h-.9v3.8ZM109.2,43.1c0,0-.1,0-.2,0s0,0-.2,0c-.2,0-.3-.1-.3-.3v-2.2h.6v-.7c0,0-.6,0-.6,0v-1h-.9v1h-.4v.7h.4v2.2c0,.3,0,.6.3.8.2.2.4.3.8.3s.6,0,.8-.3c0,0-.3-.5-.3-.6ZM105.2,43.3c-.1,0-.2,0-.3-.2s0-.2,0-.5,0-.4.2-.5c.1-.1.3-.2.5-.2h.2v.8c-.1.3-.3.5-.5.5M106.6,42.9v-1.7c0-.8-.4-1.3-1.3-1.3s-.4,0-.6,0-.4.1-.6.2l.2.6c.3-.1.6-.2.8-.2s.3,0,.4.2c0,0,.1.3.1.5v.3h-.3c-.5,0-.9.1-1.1.3-.3.2-.4.5-.4,1s0,.7.3.9c.2.2.4.3.8.3s.7-.2.9-.5c0,.2.2.3.3.4.1,0,.3.1.5.2l.2-.6c0,0-.1,0-.2-.2,0,0,0-.2,0-.3M102.4,39.8c-.4,0-.7.2-.9.6,0-.2-.2-.4-.3-.5-.1-.1-.3-.2-.5-.2-.3,0-.7.2-.9.6v-.5h-.8v3.8h.9v-2.7c.2-.4.3-.5.6-.5s.3.2.3.5v2.8h.9v-2.7c.2-.4.4-.5.6-.5s.2,0,.2.1c0,0,0,.2,0,.4v2.8h.9v-2.9c0-.3,0-.6-.2-.8-.2-.2-.4-.3-.6-.3M98.1,39.8c-.4,0-.7.3-.8.8v-.7h-.8v3.8h.9v-2.1c0-.3.1-.5.2-.7s.2-.2.4-.2.2,0,.3,0v-.9c0,0,0,0-.2,0M94.1,40.5c.2,0,.4,0,.5.3,0,.2.2.5.2,1s0,.8-.2,1-.2.3-.5.3-.4,0-.5-.3-.1-.6-.1-1,0-.8.1-1c0-.2.2-.3.5-.3M94.1,39.8c-.5,0-.9.2-1.1.5-.3.3-.4.8-.4,1.5s.1,1.2.4,1.5c.3.3.7.5,1.1.5s.9-.2,1.1-.5.4-.9.4-1.5-.1-1.2-.4-1.5c-.3-.3-.7-.5-1.1-.5M91.9,39c.2,0,.3,0,.5.1l.2-.6c-.3-.2-.6-.2-.9-.2s-.7.1-.9.3c-.2.2-.3.5-.3.8v.5h-.5v.7h.5v3.2h.9v-3.2h.6v-.7c0,0-.6,0-.6,0v-.5c0-.2,0-.3,0-.3,0,0,.2-.1.3-.1M88.7,39.8c-.2,0-.4,0-.5.2-.2,0-.3.2-.4.5v-.5h-.8v3.8h.9v-2.7c.2-.4.4-.6.6-.6s.2,0,.2.1c0,0,0,.2,0,.4v2.8h.9v-2.9c0-.3,0-.6-.2-.8-.2-.2-.4-.3-.7-.3M85,43.8h.9v-5h-.9v5ZM83.8,38.3c-.2,0-.3,0-.3.2,0,0-.1.2-.1.4s0,.3.2.4l-.2,1.1h.4l.4-1c0-.2.1-.3.1-.3s0-.2,0-.2c0-.2,0-.3-.1-.4,0,0-.2-.1-.3-.1M81,43.2c-.2,0-.3-.1-.4-.3,0-.2-.2-.6-.2-1,0-.9.2-1.3.6-1.3s.4.1.5.4v1.9c0,.2-.2.3-.3.3s-.2.1-.3.1M81.5,38.3v1.9c-.2-.3-.4-.4-.8-.4s-.5,0-.7.2-.3.4-.5.7c-.1.3-.2.7-.2,1.1,0,.6.1,1.1.3,1.5s.5.5.9.5.7-.2.9-.5v.4h.8v-5.4h-.9c0,0,0,0,0,0ZM76.7,41.6h-1.1c0-.4,0-.7.2-.9,0-.2.2-.2.4-.2s.3,0,.4.2.1.4.1.8h0s0,0,0,0ZM77.6,41.8c0-.6-.1-1.1-.4-1.5s-.6-.5-1.1-.5-.8.2-1.1.5c-.3.4-.4.9-.4,1.5s.1,1.1.4,1.5c.3.3.7.5,1.2.5s.9-.2,1.2-.5l-.4-.5c-.1.1-.3.2-.4.2-.1,0-.3,0-.4,0-.2,0-.4,0-.5-.2s-.2-.4-.2-.8h2c0-.2,0-.3,0-.4M74,39.8c-.4,0-.7.3-.8.8v-.7h-.8v3.8h.9v-2.1c0-.3.1-.5.2-.7s.2-.2.4-.2.2,0,.3,0v-.9c0,0,0,0-.2,0M71.4,39.9h-.9v2.8c0,.2-.2.3-.2.4s-.2.1-.3.1c-.2,0-.3-.2-.3-.5v-2.8h-.9v2.9c0,.3,0,.6.2.8.2.2.4.3.7.3s.4,0,.5-.2c.2,0,.3-.2.4-.5v.5h.8v-3.8h0ZM67.2,41.6h-1.1c0-.4,0-.7.2-.9,0-.2.2-.2.4-.2s.3,0,.4.2.1.4.1.8h0s0,0,0,0ZM68,41.8c0-.6-.1-1.1-.4-1.5s-.6-.5-1.1-.5-.8.2-1.1.5c-.3.4-.4.9-.4,1.5s.1,1.1.4,1.5c.3.3.7.5,1.2.5s.9-.2,1.2-.5l-.4-.5c-.1.1-.3.2-.4.2-.1,0-.3,0-.4,0-.2,0-.4,0-.5-.2s-.2-.4-.2-.8h2c0-.2,0-.3,0-.4M63.9,38c-.2,0-.3,0-.4.2,0,0-.2.2-.2.4s0,.3.2.4c0,0,.2.2.4.2s.3,0,.4-.2c0,0,.2-.2.2-.4s0-.3-.2-.4-.2-.2-.4-.2M63.5,43.8h.9v-3.8h-.9s0,3.8,0,3.8ZM62.6,39.8c-.4,0-.7.3-.8.8v-.7h-.8v3.8h.9v-2.1c0-.3.1-.5.2-.7s.2-.2.4-.2.2,0,.3,0l.2-.9c0,0-.2,0-.3,0M57.9,38.8l.2.4,1.4-.7-.4-.7-1.3.9h0ZM59.3,41.6h-1.1c0-.4,0-.7.2-.9,0-.2.2-.2.4-.2s.3,0,.4.2c0,.2.1.4.1.8h0s0,0,0,0ZM60.2,41.8c0-.6-.1-1.1-.4-1.5s-.6-.5-1.1-.5-.8.2-1.1.5-.4.9-.4,1.5.1,1.1.4,1.5c.3.3.7.5,1.2.5s.9-.2,1.2-.5l-.4-.5c-.1.1-.3.2-.4.2-.1,0-.3,0-.4,0-.2,0-.4,0-.5-.2s-.2-.4-.2-.8h2c0-.2,0-.3,0-.4M55.2,43.2c-.2,0-.4-.1-.5-.4v-1.9c.2-.3.4-.5.6-.5s.3,0,.4.3c0,.2.1.5.1,1.1s0,.8-.2,1c0,.2-.2.3-.4.3M55.5,39.8c-.2,0-.4,0-.5.1-.2,0-.3.2-.4.4v-.5h-.8v5.4h.9v-1.9c.2.3.5.4.8.4s.7-.2.9-.5c.2-.4.3-.9.3-1.5s0-1.2-.3-1.5-.5-.5-.9-.5M52.8,39.9h-.9v2.8c0,.2-.2.3-.3.4,0,0-.2.1-.3.1-.2,0-.3-.2-.3-.5v-2.8h-.9v2.9c0,.3,0,.6.2.8.2.2.4.3.7.3s.4,0,.5-.2c.2,0,.3-.2.4-.5v.5h.8v-3.8h0ZM48,38.7c-.3,0-.5,0-.8.2-.2.1-.4.3-.5.5-.1.2-.2.5-.2.7s0,.6.3.9c.2.2.5.4,1,.6.3.1.5.2.6.4.1.1.2.3.2.5s0,.4-.2.6c-.1.1-.3.2-.5.2s-.4,0-.5-.1c-.2,0-.3-.2-.5-.4l-.5.5c.2.2.4.4.7.5s.5.2.9.2.6,0,.9-.2c.2-.1.4-.3.6-.6.1-.2.2-.5.2-.8,0-.4,0-.7-.3-1-.2-.2-.5-.4-.9-.6-.3-.1-.5-.2-.7-.4-.1-.1-.2-.3-.2-.5s0-.3.2-.5c.1-.1.2-.2.4-.2s.3,0,.5,0c.1,0,.3.2.4.3l.4-.5c-.2-.2-.4-.4-.6-.5s-.5-.2-.8-.2M43.8,41.6h-1.1c0-.4,0-.7.2-.9,0-.2.2-.2.4-.2s.3,0,.4.2c0,.2.1.4.1.8h0s0,0,0,0ZM44.6,41.8c0-.6-.1-1.1-.4-1.5s-.6-.5-1.1-.5-.8.2-1.1.5-.4.9-.4,1.5.1,1.1.4,1.5.7.5,1.2.5.9-.2,1.2-.5l-.4-.5c-.1.1-.3.2-.4.2-.1,0-.3,0-.4,0-.2,0-.4,0-.5-.2s-.2-.4-.2-.8h2c0-.2,0-.3,0-.4M40.8,43.9c.2,0,.4,0,.5-.1l-.2-.6s0,0,0,0c0,0,0,0,0,0,0,0,0,0-.1,0,0,0,0,0,0-.2v-4.7h-.9v4.7c0,.3,0,.5.2.7s.4.2.6.2M37.7,43.3c-.1,0-.2,0-.3-.2s0-.2,0-.5,0-.4.2-.5c.1-.1.3-.2.5-.2h.2v.8c-.1.3-.3.5-.5.5M39.1,42.9v-1.7c0-.8-.4-1.3-1.3-1.3s-.4,0-.6,0-.4.1-.6.2l.2.6c.3-.1.6-.2.8-.2s.3,0,.4.2c0,0,.1.3.1.5v.3h-.3c-.5,0-.9.1-1.1.3-.3.2-.4.5-.4,1s0,.7.3.9c.2.2.4.3.8.3s.7-.2.9-.5c0,.2.2.3.3.4s.3.1.5.2l.2-.6c0,0-.1,0-.2-.2,0,0,0-.2,0-.3M34.8,39.8c-.2,0-.4,0-.5.2-.2,0-.3.2-.4.5v-.5h-.8v3.8h.9v-2.7c.2-.4.4-.6.6-.6s.2,0,.2.1c0,0,0,.2,0,.4v2.8h.9v-2.9c0-.3,0-.6-.2-.8s-.4-.3-.7-.3M30.7,40.5c.2,0,.4,0,.5.3.1.2.1.5.1,1s0,.8-.1,1-.2.3-.5.3-.4,0-.5-.3c-.1-.2-.1-.6-.1-1s0-.8.1-1,.2-.3.5-.3M30.7,39.8c-.5,0-.9.2-1.1.5-.3.3-.4.8-.4,1.5s.1,1.2.4,1.5.6.5,1.1.5.9-.2,1.1-.5c.3-.4.4-.9.4-1.5s-.1-1.2-.4-1.5c-.3-.3-.6-.5-1.1-.5M28,38c-.2,0-.3,0-.4.2-.1,0-.1.2-.1.4s0,.3.1.4c.1,0,.2.2.4.2s.3,0,.4-.2c.1,0,.1-.2.1-.4s0-.3-.1-.4-.2-.2-.4-.2M27.5,43.8h.9v-3.8h-.9v3.8ZM26.7,43.1c0,0-.1,0-.2,0,0,0-.1,0-.2,0-.2,0-.3-.1-.3-.3v-2.2h.6v-.7c0,0-.6,0-.6,0v-1h-.9v1h-.5v.7h.5v2.2c0,.3,0,.6.3.8.2.2.4.3.8.3s.6,0,.8-.3l-.3-.5h0ZM22.7,43.3c-.1,0-.2,0-.3-.2s-.1-.2-.1-.5,0-.4.2-.5c.1-.1.3-.2.5-.2h.2v.8c-.1.3-.3.5-.5.5M24.1,42.9v-1.7c0-.8-.4-1.3-1.3-1.3s-.4,0-.6,0c-.2,0-.4.1-.6.2l.2.6c.3-.1.6-.2.9-.2s.3,0,.4.2c0,0,.1.3.1.5v.3h-.3c-.5,0-.9.1-1.1.3-.3.2-.4.5-.4,1s0,.7.3.9c.2.2.4.3.8.3s.7-.2.9-.5c0,.2.1.3.3.4s.3.1.5.2l.2-.6c0,0-.1,0-.2-.2s0-.2,0-.3M20.7,38.8h-.8v2.4c0,.3,0,.7,0,1,0,.3,0,.6,0,.7l-1.3-4.1h-1.2v5h.8v-2.1c0-.4,0-.8,0-1,0-.3,0-.6,0-1l1.3,4.1h1.2v-5h0ZM14.6,41.6h-1.1c0-.4,0-.7.2-.9.1-.2.2-.2.4-.2s.3,0,.4.2c0,.2.1.4.1.8h0s0,0,0,0ZM15.5,41.8c0-.6-.1-1.1-.4-1.5s-.6-.5-1.1-.5-.8.2-1.1.5c-.3.4-.4.9-.4,1.5s.1,1.1.4,1.5c.3.3.7.5,1.2.5s.9-.2,1.2-.5l-.4-.5c-.1.1-.3.2-.4.2-.1,0-.3,0-.4,0-.2,0-.4,0-.5-.2s-.2-.4-.2-.8h2c0-.2,0-.3,0-.4M11.7,43.9c.2,0,.4,0,.6-.1l-.2-.6s0,0,0,0c0,0,0,0-.1,0,0,0-.1,0-.1,0s0,0,0-.2v-4.7h-.9v4.7c0,.3,0,.5.2.7s.4.2.6.2M8.6,40.5c.2,0,.4,0,.5.3.1.2.1.5.1,1s0,.8-.1,1c-.1.2-.2.3-.5.3s-.4,0-.5-.3-.1-.6-.1-1,0-.8.1-1c.1-.2.2-.3.5-.3M8.6,39.8c-.5,0-.9.2-1.1.5-.3.3-.4.8-.4,1.5s.1,1.2.4,1.5.6.5,1.1.5.9-.2,1.1-.5.4-.9.4-1.5-.1-1.2-.4-1.5c-.3-.3-.6-.5-1.1-.5M5.7,39.8c-.3,0-.6,0-.8.2-.2.2-.4.4-.5.7-.1.3-.2.7-.2,1.1,0,.7.1,1.2.4,1.5s.7.5,1.2.5.7-.2,1-.4l-.4-.5c-.1,0-.2.1-.3.2s-.2,0-.3,0c-.2,0-.4,0-.5-.3-.1-.2-.2-.5-.2-1s0-.8.2-1,.3-.3.5-.3.2,0,.3,0c0,0,.2.1.3.2l.4-.5c-.2-.2-.3-.3-.5-.3-.2,0-.4-.1-.6-.1M1.1,38.8v5h2.5v-.7h-1.6v-1.5h1.3v-.7h-1.3v-1.4h1.5v-.7c0,0-2.4,0-2.4,0h0Z"/>
    </g>
    <g id="logo">
      <path class="st22" d="M108.3,28.7v-11.1h11.2v-3.8h-11.2V4h13.2V0h-20.4v2.7s.6.3.8.5v29.3h20.1v-3.9h-13.6Z"/>
      <path class="st22" d="M95.5,0h-7.2v2.7s.6.3.8.5v29.3h6.4V0h0Z"/>
      <path class="st22" d="M82.8,0h-7.2v2.7s.6.3.8.5v29.3h6.4V0h0Z"/>
      <path class="st0" d="M26,8.5h3.9l.4,3.4c1.1-1.4,2.2-2.3,3.5-3,.8-.4,2.2-1,4.4-1s6.1,1.7,6.9,3.6c.8,1.9,1,3.2,1,5.6v15.5h-4.5v-15.2c0-1.5,0-2.5-.5-3.6-.7-1.5-2.1-2.4-3.8-2.4s-1.9.2-2.4.4c-1.4.5-2.2,1.2-2.8,2.1s-1,1.6-1.2,2.5c-.2.9-.3,2.1-.3,3.6v12.7h-4.5V8.5h0Z"/>
      <path class="st0" d="M54.5,25.7c.3.9.6,1.9,1.2,2.6,1,1.3,2.5,1.8,5,1.8s2.7-.3,3.6-.8c.9-.5,1.9-1.3,1.9-3.3s-.5-1.8-1.4-2.4c-.6-.3-1.4-.7-3.2-1.1l-3.3-.8c-2.1-.5-3.5-1.1-4.5-1.8-1.8-1.1-2.7-2.6-2.7-4.6s.8-4.1,2.5-5.5,3.9-2.1,6.7-2.1,6.3,1.1,8,3.2c.7.9,1.1,1.8,1.3,2.8l-3.8,1.1c-.4-.9-.5-1.3-1.1-2.1-1.3-1.4-3.4-1.5-4.7-1.5s-2.4.5-3.3,1.1c-.8.6-1.2,1.5-1.2,2.4s.6,1.8,1.7,2.5c.5.3,1.5.6,2.7.9l2.8.6c3,.7,4.5,1.3,5.5,2,1.6,1,2.4,2.7,2.4,4.9s-.8,4-2.5,5.6c-1.7,1.6-4.2,2.3-7.5,2.3s-6.1-.9-7.7-2.4c-1.2-1.1-2.1-2.9-2.5-4.4l4-1h0Z"/>
      <path class="st0" d="M16.1,9.1c1.6.8,2.8,1.9,3.7,3.1.8,1.2,1.4,2.6,1.6,4.3.2,1.1.4,3,.4,5.5H4.7c0,3,.5,4.4,1.5,5.9,1,1.5,3.5,2.2,4.9,2.2,2.1,0,3.4-.4,4.5-1,1.1-.6,2.3-1.8,3.1-2.5l2.8,2.2c-.3.3-1.3,1.3-1.6,1.5-.6.5-.9.7-1.7,1.2-1.1.7-2,1.3-3.9,1.7-1,.2-2.6.3-3.8.3-3,0-5.5-1.1-7.6-3.3C.8,28,0,24.9,0,21s.8-7.1,2.9-9.5c2.1-2.4,4.8-3.7,8.2-3.7s3.4.4,5,1.2h0ZM17.1,18.5c-.2-1.8-.5-3.3-1.1-4.4-1-1.6-2.5-2.8-5.1-2.8s-3.3.7-4.3,1.7-1.7,3.4-1.8,5.4h12.3Z"/>
      <polygon class="st9" points="47.5 0 47.5 3.5 69.6 3.5 69.6 0 47.5 0 47.5 0"/>
      <polygon class="st9" points="47.5 0 47.5 3.5 69.6 3.5 69.6 0 47.5 0 47.5 0"/>
      <polygon class="st26" points="24.3 0 24.3 3.5 46.4 3.5 46.4 0 24.3 0 24.3 0"/>
      <polygon class="st24" points="1.1 0 1.1 3.5 23.2 3.5 23.2 0 1.1 0 1.1 0"/>
    </g>
    <g id="lumiere">
      <polygon class="st23" points="47.5 0 47.5 3.5 69.6 3.5 69.6 0 47.5 0 47.5 0"/>
      <polygon class="st25" points="47.5 0 47.5 3.5 69.6 3.5 69.6 0 47.5 0 47.5 0"/>
      <polygon class="st6" points="24.3 0 24.3 3.5 46.4 3.5 46.4 0 24.3 0 24.3 0"/>
      <polygon class="st7" points="1.1 0 1.1 3.5 23.2 3.5 23.2 0 1.1 0 1.1 0"/>
      <path class="st4" d="M95.5,0h-7.2v2.7s.6.3.8.5v29.3h6.4V0h0Z"/>
      <path class="st5" d="M108.3,28.7v-11.1h11.2v-3.8h-11.2V4h13.2V0h-20.4v2.7s.6.3.8.5v29.3h20.1v-3.9h-13.6Z"/>
      <path class="st2" d="M82.8,0h-7.2v2.7s.6.3.8.5v29.3h6.4V0h0Z"/>
      <path class="st3" d="M46.1,32.6h-4.5v-15.2c0-1.5,0-2.5-.5-3.6-.7-1.5-2.1-2.4-3.8-2.4s-1.9.2-2.4.4c-1.4.5-2.2,1.2-2.8,2.1s-1,1.6-1.2,2.5c-.2.9-.3,2.1-.3,3.6v12.7h-4.5V8.5h3.9l.4,3.4c1.1-1.4,2.2-2.3,3.5-3,.8-.4,2.2-1,4.4-1s6.1,1.7,6.9,3.6c.8,1.9,1,3.2,1,5.6v15.5"/>
      <path class="st8" d="M60.7,33.5c-3.6,0-6.1-.9-7.7-2.4-1.2-1.1-2.1-2.9-2.5-4.4l4-1c.3.9.6,1.9,1.2,2.6,1,1.3,2.5,1.8,5,1.8s2.7-.3,3.6-.8c.9-.5,1.9-1.3,1.9-3.3s-.5-1.8-1.4-2.4c-.6-.3-1.4-.7-3.2-1.1l-3.3-.8c-2.1-.5-3.5-1.1-4.5-1.8-1.8-1.1-2.7-2.6-2.7-4.6s.8-4.1,2.5-5.5,3.9-2.1,6.7-2.1,6.3,1.1,8,3.2c.7.9,1.1,1.8,1.3,2.8l-3.8,1.1c-.4-.9-.5-1.3-1.1-2.1-1.3-1.4-3.4-1.5-4.7-1.5s-2.4.5-3.3,1.1c-.8.6-1.2,1.5-1.2,2.4s.6,1.8,1.7,2.5c.5.3,1.5.6,2.7.9l2.8.6c3,.7,4.5,1.3,5.5,2,1.6,1,2.4,2.7,2.4,4.9s-.8,4-2.5,5.6c-1.7,1.6-4.2,2.3-7.5,2.3"/>
      <path class="st1" d="M10.5,33.5c-3,0-5.5-1.1-7.6-3.3C.8,28,0,25,0,21s.8-7.1,2.9-9.5c2.1-2.4,4.8-3.7,8.2-3.7s3.4.4,5,1.2c1.6.8,2.8,1.9,3.7,3.1.8,1.2,1.4,2.7,1.6,4.3.2,1.1.4,3,.4,5.5H4.7c0,3,.5,4.4,1.5,5.9,1,1.5,3.5,2.2,4.9,2.2,2.1,0,3.4-.4,4.5-1,1.1-.6,2.3-1.8,3.1-2.5l2.8,2.2c-.3.3-1.3,1.3-1.6,1.5-.6.5-.9.7-1.7,1.2-1.1.7-2,1.2-3.9,1.7-1,.2-2.6.3-3.8.3M10.9,11.3c-1.9,0-3.3.7-4.3,1.7s-1.7,3.4-1.8,5.4h12.3c-.2-1.8-.5-3.3-1.1-4.4-1-1.6-2.5-2.8-5.1-2.8"/>
    </g>
    <g id="ombre" class="st21">
      <path class="st16" d="M26,8.5h3.9l.4,3.4c1.1-1.4,2.2-2.3,3.5-3,.8-.4,2.2-1,4.4-1s6.1,1.7,6.9,3.6c.8,1.9,1,3.2,1,5.6v15.5h-4.5v-15.2c0-1.5,0-2.5-.5-3.6-.7-1.5-2.1-2.4-3.8-2.4s-1.9.2-2.4.4c-1.4.5-2.2,1.2-2.8,2.1s-1,1.6-1.2,2.5c-.2.9-.3,2.1-.3,3.6v12.7h-4.5V8.5h0Z"/>
      <path class="st14" d="M54.5,25.7c.3.9.6,1.9,1.2,2.6,1,1.3,2.5,1.8,5,1.8s2.7-.3,3.6-.8c.9-.5,1.9-1.3,1.9-3.3s-.5-1.8-1.4-2.4c-.6-.3-1.4-.7-3.2-1.1l-3.3-.8c-2.1-.5-3.5-1.1-4.5-1.8-1.8-1.1-2.7-2.6-2.7-4.6s.8-4.1,2.5-5.5,3.9-2.1,6.7-2.1,6.3,1.1,8,3.2c.7.9,1.1,1.8,1.3,2.8l-3.8,1.1c-.4-.9-.5-1.3-1.1-2.1-1.3-1.4-3.4-1.5-4.7-1.5s-2.4.5-3.3,1.1c-.8.6-1.2,1.5-1.2,2.4s.6,1.8,1.7,2.5c.5.3,1.5.6,2.7.9l2.8.6c3,.7,4.5,1.3,5.5,2,1.6,1,2.4,2.7,2.4,4.9s-.8,4-2.5,5.6c-1.7,1.6-4.2,2.3-7.5,2.3s-6.1-.9-7.7-2.4c-1.2-1.1-2.1-2.9-2.5-4.4l4-1h0Z"/>
      <path class="st15" d="M16.1,9.1c1.6.8,2.8,1.9,3.7,3.1.8,1.2,1.4,2.6,1.6,4.3.2,1.1.4,3,.4,5.5H4.7c0,3,.5,4.4,1.5,5.9,1,1.5,3.5,2.2,4.9,2.2,2.1,0,3.4-.4,4.5-1,1.1-.6,2.3-1.8,3.1-2.5l2.8,2.2c-.3.3-1.3,1.3-1.6,1.5-.6.5-.9.7-1.7,1.2-1.1.7-2,1.3-3.9,1.7-1,.2-2.6.3-3.8.3-3,0-5.5-1.1-7.6-3.3C.8,28,0,24.9,0,21s.8-7.1,2.9-9.5c2.1-2.4,4.8-3.7,8.2-3.7s3.4.4,5,1.2h0ZM17.1,18.5c-.2-1.8-.5-3.3-1.1-4.4-1-1.6-2.5-2.8-5.1-2.8s-3.3.7-4.3,1.7-1.7,3.4-1.8,5.4h12.3Z"/>
      <polygon class="st17" points="47.5 0 47.5 3.5 69.6 3.5 69.6 0 47.5 0 47.5 0"/>
      <polygon class="st20" points="47.5 0 47.5 3.5 69.6 3.5 69.6 0 47.5 0 47.5 0"/>
      <polygon class="st18" points="24.3 0 24.3 3.5 46.4 3.5 46.4 0 24.3 0 24.3 0"/>
      <polygon class="st19" points="1.1 0 1.1 3.5 23.2 3.5 23.2 0 1.1 0 1.1 0"/>
      <path class="st12" d="M108.3,28.7v-11.1h11.2v-3.8h-11.2V4h13.2V0h-20.4v2.7s.6.3.8.5v29.3h20.1v-3.9h-13.6Z"/>
      <path class="st13" d="M95.5,0h-7.2v2.7s.6.3.8.5v29.3h6.4V0h0Z"/>
      <path class="st11" d="M82.8,0h-7.2v2.7s.6.3.8.5v29.3h6.4V0h0Z"/>
    </g>
  </g>
</svg>