<!DOCTYPE svg PUBLIC "-//W3C//DTD SVG 20010904//EN" "http://www.w3.org/TR/2001/REC-SVG-20010904/DTD/svg10.dtd"[]><svg version="1.0" xmlns="http://www.w3.org/2000/svg" width="765" height="765" viewBox="0 0 512.000000 512.000000" preserveAspectRatio="xMidYMid meet"><metadata>Created by potrace 1.11, written by Peter Selinger 2001-2013</metadata><g transform="translate(0.000000,512.000000) scale(0.100000,-0.100000)" fill="#000000" stroke="none"><path d="M4 5101 c-2 -2 -4 -321 -4 -708 l0 -703 704 0 c554 0 705 3 708 13 3 10 2 1339 -1 1387 -1 13 -85 15 -702 15 -385 0 -703 -2 -705 -4z" /><path d="M1823 5103 c-5 -2 -7 -274 -6 -605 1 -332 3 -649 3 -705 l0 -103 705 0 705 0 1 23 c0 33 1 1370 0 1382 -1 7 -239 10 -701 10 -385 0 -703 -1 -707 -2z" /><path d="M3707 5095 c-2 -5 -3 -323 -2 -705 l0 -695 708 -3 707 -2 0 707 0 708 -705 0 c-463 0 -706 -3 -708 -10z" /><path d="M0 2581 l0 -707 703 0 c386 -1 704 3 707 7 4 6 5 1311 1 1386 l-1 22 -705 -1 -705 0 0 -707z" /><path d="M1820 3079 c0 -115 -1 -337 -1 -494 0 -157 1 -381 1 -498 l0 -213 705 0 705 0 1 45 c1 59 1 1319 0 1347 l-1 22 -705 0 -705 0 0 -209z" /><path d="M3707 3281 c-2 -3 -3 -321 -3 -706 l1 -700 708 -1 707 0 0 707 0 707 -705 0 c-388 0 -707 -3 -708 -7z" /><path d="M3 723 l2 -708 702 0 c617 0 702 2 705 15 2 8 3 326 3 705 l-1 690 -707 3 -707 2 3 -707z" /><path d="M1820 722 l0 -707 705 0 c621 0 705 2 706 15 1 18 0 1369 0 1388 -1 9 -149 12 -706 12 l-705 0 0 -708z" /><path d="M3708 1418 c-2 -7 -4 -326 -3 -708 l0 -695 705 0 705 0 3 708 2 707 -704 0 c-554 0 -705 -3 -708 -12z" /></g></svg>