<svg version="1.1" id="Layer_1" xmlns="http://www.w3.org/2000/svg" xmlns:xlink="http://www.w3.org/1999/xlink" x="0px" y="0px"
	 width="100%" viewBox="0 0 800 328" enable-background="new 0 0 800 328" xml:space="preserve">
<path fill="#E6E6E6" opacity="1.000000" stroke="none"
	d="
M203.064697,205.001373 
	C203.043137,229.126572 202.957535,253.252029 203.050369,277.376801 
	C203.070602,282.631195 202.127289,286.702911 196.582336,289.004578 
	C190.946945,291.343811 185.859177,295.062408 180.159363,297.170715 
	C173.392441,299.673737 166.273392,301.295410 159.224380,302.946686 
	C151.072067,304.856415 142.858292,306.538910 134.619415,308.034912 
	C124.637192,309.847443 114.593605,311.319336 104.590775,313.022125 
	C99.360390,313.912476 94.176346,315.077454 88.942795,315.946198 
	C82.265823,317.054535 75.566376,318.034149 68.864510,318.983765 
	C63.555695,319.735931 58.232445,320.390839 52.908939,321.033691 
	C41.798306,322.375305 30.660154,323.516418 19.580780,325.076935 
	C14.785923,325.752319 10.108598,327.262115 5.688941,328.696442 
	C4.342168,329.000000 2.684336,329.000000 1.000000,329.000000 
	C1.000000,303.312439 1.000000,277.624878 1.432799,251.478821 
	C3.025623,251.012207 4.206107,251.142258 5.342427,250.974030 
	C14.113548,249.675476 22.872334,248.293686 31.642756,246.990265 
	C36.921211,246.205795 42.217064,245.539108 47.499050,244.777542 
	C56.291912,243.509705 65.079918,242.208191 74.315796,240.946533 
	C87.691666,239.264648 100.734818,238.152542 113.527504,235.722076 
	C137.998154,231.072922 162.764252,227.474380 186.078339,217.994278 
	C192.960464,215.195831 198.992935,211.412766 203.064697,205.001373 
z"/>
<path fill="#E6E6E6" opacity="1.000000" stroke="none" 
	d="
M202.750000,1.000000 
	C203.000015,25.099411 202.806961,49.201351 203.122772,73.296623 
	C203.212509,80.142479 201.836761,85.424683 194.593521,88.617737 
	C193.241379,89.154778 192.396759,89.257195 191.650024,89.583595 
	C175.297729,96.731308 158.140961,101.077789 140.659668,104.321198 
	C127.322060,106.795792 114.014366,109.437080 100.656044,111.792542 
	C93.332634,113.083862 85.940468,114.001701 78.564201,114.973274 
	C63.969261,116.895638 49.345554,118.608200 34.768646,120.655991 
	C23.484873,122.241165 12.254251,124.204674 1.000000,126.000000 
	C1.000000,100.645775 1.000000,75.291542 1.333879,49.815533 
	C11.581247,48.128975 21.495220,46.567265 31.408045,44.998287 
	C37.492046,44.035332 43.563526,42.986279 49.660030,42.111034 
	C57.382893,41.002304 65.126671,40.039780 72.859222,38.997921 
	C83.483124,37.566505 94.136375,36.316273 104.718666,34.623413 
	C114.925171,32.990669 125.088203,31.043440 135.213806,28.959648 
	C145.349991,26.873676 155.577316,24.983229 165.464355,22.008793 
	C174.043243,19.427908 182.079361,15.087072 190.588745,12.215734 
	C196.473999,10.229857 200.616135,7.210458 202.000000,1.000000 
	C202.000000,1.000000 202.500000,1.000000 202.750000,1.000000 
z"/>
<path fill="#E6E6E6" opacity="1.000000" stroke="none" 
	d="
M203.063202,104.003189 
	C203.164520,129.606247 203.383301,155.210403 203.147125,180.810349 
	C203.127960,182.889023 199.973297,184.921829 198.318024,187.009598 
	C197.507217,188.032242 196.793915,189.132202 195.615631,190.456146 
	C192.557205,191.187515 189.712997,191.178635 187.314896,192.208542 
	C168.448380,200.311157 148.372314,203.879639 128.443130,207.833755 
	C114.190506,210.661575 99.747620,212.546326 85.370575,214.726242 
	C73.282944,216.559021 61.164604,218.188293 49.065681,219.947723 
	C33.040817,222.278076 17.021629,224.647415 1.000000,227.000000 
	C1.000000,201.979111 1.000000,176.958206 1.380843,151.465851 
	C6.098007,149.996704 10.391626,148.708344 14.779811,148.063675 
	C23.119780,146.838440 31.527163,146.079712 39.882240,144.947800 
	C51.566559,143.364838 63.228626,141.617615 75.325073,139.962357 
	C79.989182,139.450150 84.245560,139.025208 88.464500,138.362076 
	C101.519173,136.310181 114.561394,134.178711 127.605110,132.057571 
	C147.089493,128.889084 166.303604,124.580627 184.770599,117.496414 
	C192.009399,114.719505 199.199387,111.520905 203.063202,104.003189 
z"/>
<path fill="#A8A8A8" opacity="1.000000" stroke="none"
	d="
M1.000000,227.375000 
	C17.021629,224.647415 33.040817,222.278076 49.065681,219.947723 
	C61.164604,218.188293 73.282944,216.559021 85.370575,214.726242 
	C99.747620,212.546326 114.190506,210.661575 128.443130,207.833755 
	C148.372314,203.879639 168.448380,200.311157 187.314896,192.208542 
	C189.712997,191.178635 192.557205,191.187515 195.540344,190.829453 
	C196.749969,191.900482 197.453644,193.116089 198.506378,193.768188 
	C202.613205,196.312164 204.775848,199.681183 203.416260,204.823196 
	C198.992935,211.412766 192.960464,215.195831 186.078339,217.994278 
	C162.764252,227.474380 137.998154,231.072922 113.527504,235.722076 
	C100.734818,238.152542 87.691666,239.264648 74.159607,240.576035 
	C70.992584,239.786469 68.436996,239.311661 65.860962,239.013550 
	C53.864422,237.625229 41.833710,236.494843 29.871035,234.863037 
	C20.206074,233.544662 10.620687,231.642929 1.000000,230.000000 
	C1.000000,229.250000 1.000000,228.500000 1.000000,227.375000 
z"/>
<path fill="#A8A8A8" opacity="1.000000" stroke="none" 
	d="
M203.412964,103.828796 
	C199.199387,111.520905 192.009399,114.719505 184.770599,117.496414 
	C166.303604,124.580627 147.089493,128.889084 127.605110,132.057571 
	C114.561394,134.178711 101.519173,136.310181 88.464500,138.362076 
	C84.245560,139.025208 79.989182,139.450150 75.151039,139.579315 
	C71.416924,138.986130 68.253113,139.002258 65.152100,138.568909 
	C57.418991,137.488251 49.720757,136.160782 41.996765,135.011368 
	C33.139687,133.693359 24.282064,132.365753 15.400806,131.228790 
	C10.626354,130.617538 5.801895,130.396896 1.000000,130.000000 
	C1.000000,128.933334 1.000000,127.866661 1.000000,126.399994 
	C12.254251,124.204674 23.484873,122.241165 34.768646,120.655991 
	C49.345554,118.608200 63.969261,116.895638 78.564201,114.973274 
	C85.940468,114.001701 93.332634,113.083862 100.656044,111.792542 
	C114.014366,109.437080 127.322060,106.795792 140.659668,104.321198 
	C158.140961,101.077789 175.297729,96.731308 191.650024,89.583595 
	C192.396759,89.257195 193.241379,89.154778 194.416351,88.936203 
	C195.693909,89.909782 196.419815,91.213005 197.527618,91.825439 
	C202.253479,94.438049 204.546494,98.201256 203.412964,103.828796 
z"/>
<path fill="#E6E6E6" opacity="1.000000" stroke="none"
	d="
M297.970032,79.172699 
	C330.296936,79.115288 362.623840,79.054016 394.950745,79.002823 
	C404.616669,78.987511 414.287079,79.167809 423.946381,78.914536 
	C427.599670,78.818741 429.029907,80.125137 429.009766,83.587791 
	C428.983582,88.086166 429.934814,92.810555 428.877777,97.040985 
	C425.807037,109.330505 425.008759,122.529922 415.886719,132.673904 
	C410.831726,138.295197 406.014984,144.130127 401.029633,149.815094 
	C399.816895,151.198044 398.531219,152.122864 399.973877,154.357025 
	C408.229584,167.142395 416.422974,179.970978 424.419495,192.919556 
	C428.678986,199.816864 432.434448,207.023438 436.539276,214.018936 
	C439.629730,219.285736 442.937622,224.424576 446.088928,229.656403 
	C446.621277,230.540207 446.850464,231.606659 447.374023,232.999176 
	C434.456635,232.999176 422.120850,233.315811 409.828796,232.724152 
	C407.454346,232.609848 404.628876,229.332962 403.069214,226.850449 
	C392.690002,210.329742 382.590485,193.633179 372.422394,176.980148 
	C371.020050,174.683472 369.353485,172.443481 368.501404,169.941528 
	C367.392761,166.686295 365.066559,166.915680 362.586060,167.004761 
	C353.516205,167.330475 344.446747,167.666977 335.377350,168.004852 
	C334.741791,168.028534 334.107880,168.096252 333.099670,168.171280 
	C333.099670,189.736816 333.099670,211.145752 333.099670,232.910843 
	C321.274689,232.910843 309.833008,232.910843 298.073059,232.314835 
	C297.649078,231.396774 297.442230,231.164993 297.134277,231.023468 
	C297.078064,199.314514 297.021851,167.605576 297.242615,135.300323 
	C297.691010,134.441498 297.832886,134.163849 297.945160,133.871078 
	C297.945160,133.871078 297.951813,133.955170 298.125031,133.854950 
	C298.615692,133.647736 298.841827,133.440918 298.976624,133.134262 
	C316.944427,133.092041 334.928650,133.503769 352.874420,132.853577 
	C365.574249,132.393417 376.653320,127.556725 384.115082,116.449234 
	C384.812805,115.410561 385.797791,114.564873 387.304169,112.910484 
	C357.110077,112.910484 327.750793,112.910484 298.073181,112.314636 
	C297.649139,111.396736 297.442291,111.164970 297.134277,111.023468 
	C297.078064,100.981636 297.021851,90.939812 297.231262,80.351578 
	C297.711365,79.636803 297.869080,79.425972 297.970032,79.172699 
z"/>
<path fill="#E6E6E6" opacity="1.000000" stroke="none" 
	d="
M593.997681,166.833984 
	C590.776733,176.277939 588.307434,185.652863 584.080627,194.153961 
	C581.144226,200.059738 576.178223,205.153152 571.409363,209.895996 
	C566.597046,214.682083 561.163269,218.960022 555.547058,222.794739 
	C546.380310,229.053787 535.645813,231.526184 524.900208,232.853424 
	C509.500000,234.755539 494.592560,231.528625 480.992950,224.345154 
	C466.732208,216.812454 455.712799,205.808426 448.332245,191.006149 
	C441.581848,177.467712 438.736816,163.413147 440.110748,148.585022 
	C441.168823,137.165680 445.068481,126.488708 450.929596,116.551125 
	C460.174988,100.875603 473.656372,90.137161 490.526672,84.091438 
	C500.625854,80.472244 511.007050,77.945465 522.329590,79.665665 
	C530.358032,80.885406 538.234497,82.022911 545.796814,84.961540 
	C554.258057,88.249481 561.674194,93.129776 568.630005,98.997284 
	C576.729248,105.829361 582.183960,114.469360 587.009766,123.602348 
	C588.768188,126.930199 589.842102,130.653061 590.964478,134.277390 
	C594.209900,144.757690 595.275635,155.470932 593.997681,166.833984 
M497.075653,194.474823 
	C501.919800,195.983200 506.735046,198.600418 511.615204,198.727646 
	C518.154480,198.898102 524.957397,197.880035 531.266968,196.056702 
	C544.066406,192.357956 552.350159,183.197922 556.853210,170.990387 
	C560.479248,161.160446 560.927795,151.193466 556.646729,141.004578 
	C552.724365,131.669434 546.894592,124.424919 538.081116,119.732368 
	C534.235901,117.685051 529.632629,117.019203 525.878357,114.851791 
	C518.088379,110.354500 510.278687,113.120522 503.363403,115.581696 
	C491.764679,119.709724 482.709778,127.826744 478.142303,139.728577 
	C475.526337,146.545151 472.196838,153.479141 474.996338,161.151917 
	C477.275055,167.397263 479.436920,173.701843 482.084564,179.791504 
	C484.993927,186.483124 491.186951,189.944199 497.075653,194.474823 
z"/>
<path fill="#E6E6E6" opacity="1.000000" stroke="none" 
	d="
M704.971313,79.164650 
	C716.447205,79.164650 727.923096,79.164650 739.698730,79.164650 
	C739.698730,130.318665 739.698730,181.500061 739.698730,232.405304 
	C729.560730,236.105316 724.889526,228.371048 719.282471,222.793289 
	C715.536621,219.067017 712.218201,214.912491 708.493042,211.163681 
	C692.610718,195.180344 676.706299,179.217926 660.695740,163.363220 
	C648.620667,151.405762 636.368408,139.627335 624.204224,127.759712 
	C622.037598,125.645889 620.063171,123.307190 617.736755,121.392075 
	C614.815918,118.987640 613.819763,116.204674 613.906677,112.394760 
	C614.164429,101.099617 613.998962,89.794815 613.998962,78.430176 
	C620.369507,77.166687 625.136963,78.265198 629.982178,83.244453 
	C653.204468,107.108986 676.930603,130.483337 700.481506,154.027954 
	C701.390137,154.936340 702.338684,155.804657 703.965332,157.356018 
	C703.965332,131.334183 703.965332,106.116035 704.232300,80.350906 
	C704.717468,79.635773 704.874817,79.422684 704.971313,79.164650 
z"/>
<path fill="#E6E6E6" opacity="1.000000" stroke="none" 
	d="
M272.902069,232.999908 
	C262.773010,233.000000 253.135452,233.000000 243.249115,233.000000 
	C243.249115,181.695847 243.249115,130.626038 243.249115,79.278687 
	C254.654053,79.278687 266.051453,79.278687 277.732178,79.278687 
	C277.732178,130.415756 277.732178,181.479782 277.732178,232.999817 
	C276.281403,232.999817 274.837463,232.999817 272.902069,232.999908 
z"/>
<path fill="#E6E6E6" opacity="1.000000" stroke="none" 
	d="
M648.921875,179.729675 
	C649.000061,197.612228 649.000061,215.070740 649.000061,232.767471 
	C637.329468,232.767471 625.922302,232.767471 614.253906,232.767471 
	C614.253906,204.587128 614.253906,176.395660 614.253906,146.881989 
	C616.913452,148.649734 619.092224,149.664932 620.715271,151.249405 
	C629.081665,159.417267 637.306458,167.730194 645.578003,175.995163 
	C646.674438,177.090744 647.755493,178.201752 648.921875,179.729675 
z"/>
<path fill="#FFFFFF" opacity="1.000000" stroke="none" 
	d="
M297.693787,133.961609 
	C297.832886,134.163849 297.691010,134.441498 297.326904,134.836395 
	C297.237000,134.663223 297.339722,134.357681 297.693787,133.961609 
z"/>
<path fill="#FFFFFF" opacity="1.000000" stroke="none" 
	d="
M298.709290,133.102722 
	C298.841827,133.440918 298.615692,133.647736 298.082947,133.851761 
	C298.059113,133.656265 298.250549,133.363739 298.709290,133.102722 
z"/>
<path fill="#FFFFFF" opacity="1.000000" stroke="none" 
	d="
M297.104858,111.293839 
	C297.442291,111.164970 297.649139,111.396736 297.858124,111.934357 
	C297.666077,111.954689 297.370758,111.759445 297.104858,111.293839 
z"/>
<path fill="#FFFFFF" opacity="1.000000" stroke="none" 
	d="
M704.710144,79.117271 
	C704.874817,79.422684 704.717468,79.635773 704.316711,79.887070 
	C704.239075,79.670120 704.344055,79.370003 704.710144,79.117271 
z"/>
<path fill="#FFFFFF" opacity="1.000000" stroke="none" 
	d="
M297.104828,231.293823 
	C297.442230,231.164993 297.649078,231.396774 297.858093,231.934433 
	C297.666046,231.954758 297.370728,231.759460 297.104828,231.293823 
z"/>
<path fill="#FFFFFF" opacity="1.000000" stroke="none" 
	d="
M297.709595,79.121521 
	C297.869080,79.425972 297.711365,79.636803 297.315613,79.887756 
	C297.239227,79.670326 297.344177,79.370331 297.709595,79.121521 
z"/>
</svg>