<svg width="700" height="140" viewBox="0 0 700 140" fill="none" xmlns="http://www.w3.org/2000/svg">
<path d="M105.11 108L66.27 134.48L57.99 129.08L56.75 133.34L66.32 139.58L108.4 110.91L117.58 93.02L109.26 99.91L105.11 108Z" fill="#231F20"/>
<path d="M5.87003 23.46L66.29 4.87003L124.87 23.45L125.45 61.04L129.73 63.49L129.08 20.32L66.31 0.420044L1.67004 20.31L1.02002 62.86L5.33002 58.69L5.87003 23.46Z" fill="#231F20"/>
<path d="M129.81 68.43L125.52 65.98L116.89 61.05L107.23 55.53L99.9201 39.35L87.1701 31.53L66.0001 23.83L63.8301 19.36L54.6501 15.6L47.0901 16.83L41.9601 21.64L40.4501 30.85L12.1001 58.14L5.24008 64.75V64.73L0.930084 68.87V68.9L0.840088 68.99L0.930084 69.16V69.19H0.940094L8.68008 84.26L22.3601 110.92L23.3101 111.54L53.0301 130.94L53.0401 130.91H53.0501L54.2901 126.64L62.0301 99.94L85.8001 100.91L107.77 95.62L114.23 90.2701L116.99 87.99L122.54 83.39L122.69 83.26L129.82 69.19H129.84V69.15L130.12 68.59L129.81 68.43ZM85.1301 35.26L96.1501 42.02L97.1701 80.74L49.9801 83.81L56.7001 64.92L49.9701 44.71L75.5301 31.79L85.1301 35.26ZM45.9201 23.76L49.0501 20.82L54.1401 19.99L60.7101 22.68L62.9301 27.24L70.0501 29.81L48.4601 40.72L44.6301 31.63L45.9201 23.76ZM41.6801 35.57L45.4001 44.39L51.6101 63.04L8.93008 67.11L41.6801 35.57ZM13.2401 83.87L6.93008 71.58L51.3401 67.34L45.0501 85.01L24.7601 106.31L13.2401 83.87ZM50.5401 124.23L27.7301 109.36L47.0501 89.08L58.0101 98.49L50.5401 124.23ZM84.6201 96.62L61.2501 95.67L52.2401 87.93L94.3501 85.19L84.6201 96.62ZM105.8 91.72L91.4201 95.18L100.26 84.79L115.35 83.81L105.8 91.72ZM101.42 80.47L100.65 51.3L103.92 58.53L113.41 63.95L118.09 79.38L101.42 80.47ZM119.15 80.66L119.14 80.58L119.2 80.56L119.15 80.66ZM121.52 76.04L118.78 67.02L124.47 70.27L121.52 76.04Z" fill="#231F20"/>
<path d="M164.74 45.6C162.81 47.59 161.84 50.68 161.84 54.88V57.55H153.9V62.45H161.84V95.93H168.14V62.45H181.33V57.55H168.14V54.16C168.14 51.81 168.58 50.17 169.46 49.24C170.34 48.31 171.91 47.85 174.17 47.85H181.33V42.61H173.76C169.67 42.62 166.67 43.61 164.74 45.6Z" fill="#231F20"/>
<path d="M211.22 79.32C211.22 83.23 210.43 86.22 208.86 88.31C207.28 90.4 205.01 91.44 202.04 91.44C199.48 91.44 197.59 90.63 196.37 89.01C195.15 87.39 194.54 84.85 194.54 81.4V57.62H188.24V81.4C188.24 86.61 189.2 90.5 191.12 93.07C193.04 95.64 195.96 96.93 199.89 96.93C202.47 96.93 204.73 96.36 206.66 95.22C208.59 94.08 210.11 92.4 211.23 90.18V95.94H217.57V57.63H211.23V79.32H211.22Z" fill="#231F20"/>
<path d="M243.42 56.63C240.79 56.63 238.52 57.2 236.6 58.33C234.68 59.46 233.16 61.12 232.04 63.32V57.56H225.74V95.94H232.04V74.25C232.04 70.34 232.83 67.35 234.42 65.26C236.01 63.17 238.28 62.12 241.22 62.12C243.8 62.12 245.7 62.93 246.91 64.55C248.12 66.17 248.73 68.71 248.73 72.16V95.94H255.07V72.16C255.07 66.95 254.1 63.06 252.17 60.49C250.25 57.92 247.33 56.63 243.42 56.63Z" fill="#231F20"/>
<path d="M280.49 56.63C274.55 56.63 269.91 58.41 266.56 61.97C263.21 65.53 261.54 70.47 261.54 76.77C261.54 83.07 263.21 88.01 266.56 91.57C269.91 95.13 274.55 96.92 280.49 96.92C282.36 96.92 284.2 96.67 285.99 96.18C287.78 95.69 289.53 94.95 291.22 93.97V87.43C289.73 88.85 288.12 89.89 286.39 90.57C284.65 91.24 282.69 91.58 280.5 91.58C276.57 91.58 273.54 90.3 271.4 87.73C269.26 85.16 268.2 81.51 268.2 76.78C268.2 72.03 269.26 68.37 271.39 65.82C273.51 63.26 276.55 61.98 280.5 61.98C282.62 61.98 284.53 62.31 286.2 62.97C287.88 63.63 289.55 64.71 291.22 66.19V59.58C289.44 58.57 287.67 57.83 285.91 57.35C284.14 56.87 282.34 56.63 280.49 56.63Z" fill="#231F20"/>
<path d="M314.84 46.66H308.54V57.56H298.3V62.46H308.54V83.29C308.54 87.93 309.51 91.1901 311.45 93.0901C313.39 94.9901 316.73 95.93 321.46 95.93H329.17V90.89H322.08C319.41 90.89 317.53 90.3301 316.46 89.2101C315.39 88.0901 314.85 86.1201 314.85 83.2801V62.45H329.17V57.55H314.85V46.66H314.84Z" fill="#231F20"/>
<path d="M355.4 57.7001H339.26V62.6001H349.1V91.0301H336.59V95.9301H367.91V91.0301H355.4V57.7001Z" fill="#231F20"/>
<path d="M355.4 42.79H349.1V50.74H355.4V42.79Z" fill="#231F20"/>
<path d="M387.33 56.63C382.01 56.63 377.94 58.35 375.13 61.8C372.32 65.25 370.92 70.24 370.92 76.77C370.92 83.33 372.33 88.32 375.13 91.76C377.94 95.2 382 96.92 387.33 96.92C392.67 96.92 396.75 95.2 399.56 91.76C402.37 88.32 403.78 83.33 403.78 76.77C403.78 70.24 402.37 65.25 399.55 61.8C396.72 58.36 392.65 56.63 387.33 56.63ZM394.63 87.83C392.99 90.33 390.55 91.58 387.33 91.58C384.13 91.58 381.71 90.33 380.07 87.83C378.43 85.33 377.6 81.65 377.6 76.78C377.6 71.89 378.42 68.2 380.07 65.71C381.72 63.22 384.14 61.98 387.33 61.98C390.55 61.98 392.98 63.23 394.63 65.71C396.28 68.2 397.1 71.89 397.1 76.78C397.09 81.65 396.27 85.33 394.63 87.83Z" fill="#231F20"/>
<path d="M428.37 56.63C425.74 56.63 423.47 57.2 421.55 58.33C419.63 59.46 418.11 61.12 416.99 63.32V57.56H410.69V95.94H416.99V74.25C416.99 70.34 417.78 67.35 419.37 65.26C420.96 63.17 423.23 62.12 426.17 62.12C428.75 62.12 430.65 62.93 431.86 64.55C433.07 66.17 433.68 68.71 433.68 72.16V95.94H440.02V72.16C440.02 66.95 439.05 63.06 437.12 60.49C435.2 57.92 432.28 56.63 428.37 56.63Z" fill="#231F20"/>
<path d="M475.68 62.25C474.29 60.38 472.46 58.97 470.22 58.04C467.97 57.1 465.26 56.64 462.08 56.64C460.07 56.64 458 56.86 455.86 57.31C453.72 57.76 451.49 58.42 449.16 59.31V65.61C451.24 64.42 453.38 63.52 455.57 62.9C457.76 62.28 459.93 61.97 462.08 61.97C465.44 61.97 467.88 62.66 469.41 64.04C470.94 65.42 471.72 67.64 471.74 70.7V71.69H463.28C457.73 71.69 453.52 72.8 450.65 75.01C447.78 77.23 446.35 80.47 446.35 84.74C446.35 88.44 447.52 91.39 449.85 93.6C452.18 95.8 455.3 96.91 459.2 96.91C462.12 96.91 464.61 96.37 466.65 95.28C468.69 94.19 470.39 92.51 471.74 90.23V95.92H478.08V74.03C478.08 70.67 477.9 68.15 477.53 66.47C477.17 64.81 476.55 63.4 475.68 62.25ZM471.74 78.05C471.72 82.3 470.71 85.63 468.73 88.04C466.74 90.45 464.01 91.66 460.54 91.66C458.07 91.66 456.14 91.02 454.75 89.74C453.36 88.46 452.66 86.67 452.66 84.36C452.66 81.8 453.59 79.88 455.45 78.59C457.31 77.3 460.08 76.65 463.76 76.65H465.85H471.74V78.05V78.05Z" fill="#231F20"/>
<path d="M495.46 88.47C494.42 87.03 493.9 84.9 493.9 82.06V42.42H479.8V47.35H487.6V82.06C487.6 86.49 488.63 89.91 490.7 92.32C492.77 94.73 495.68 95.93 499.45 95.93H507.43V90.62H500.06C498.04 90.62 496.5 89.9 495.46 88.47Z" fill="#231F20"/>
<path d="M551.35 74.31L548.82 73.83C544.64 73.03 542.02 72.21 540.97 71.36C539.92 70.51 539.39 69.24 539.39 67.52C539.39 65.62 540.09 64.21 541.5 63.29C542.9 62.36 545.03 61.9 547.89 61.9C549.79 61.9 551.65 62.16 553.47 62.69C555.3 63.22 557.11 64 558.92 65.05V58.88C557.09 58.13 555.23 57.56 553.34 57.18C551.44 56.8 549.47 56.61 547.41 56.61C542.8 56.61 539.24 57.61 536.75 59.61C534.26 61.61 533.02 64.45 533.02 68.13C533.02 71.03 533.85 73.32 535.52 75C537.19 76.68 539.84 77.87 543.47 78.58L545.83 79.06L546.1 79.13C551.7 80.25 554.49 82.27 554.49 85.19C554.49 87.22 553.72 88.81 552.19 89.94C550.66 91.07 548.5 91.64 545.71 91.64C543.79 91.64 541.76 91.34 539.61 90.73C537.46 90.12 535.21 89.22 532.86 88.01V94.52C535.28 95.32 537.53 95.92 539.61 96.32C541.69 96.72 543.68 96.92 545.57 96.92C550.37 96.92 554.11 95.85 556.81 93.72C559.5 91.58 560.85 88.62 560.85 84.83C560.85 81.97 560.05 79.66 558.43 77.87C556.81 76.08 554.48 74.91 551.35 74.31Z" fill="#231F20"/>
<path d="M584.38 56.63C578.44 56.63 573.8 58.41 570.45 61.97C567.1 65.53 565.43 70.47 565.43 76.77C565.43 83.07 567.1 88.01 570.45 91.57C573.8 95.13 578.44 96.92 584.38 96.92C586.25 96.92 588.09 96.67 589.88 96.18C591.67 95.69 593.42 94.95 595.11 93.97V87.43C593.62 88.85 592.01 89.89 590.28 90.57C588.54 91.24 586.58 91.58 584.39 91.58C580.46 91.58 577.43 90.3 575.29 87.73C573.15 85.16 572.09 81.51 572.09 76.78C572.09 72.03 573.15 68.37 575.28 65.82C577.4 63.26 580.44 61.98 584.39 61.98C586.51 61.98 588.42 62.31 590.09 62.97C591.77 63.63 593.44 64.71 595.11 66.19V59.58C593.33 58.57 591.56 57.83 589.8 57.35C588.03 56.87 586.23 56.63 584.38 56.63Z" fill="#231F20"/>
<path d="M698.62 66.49C698.25 64.81 697.64 63.4 696.77 62.26C695.38 60.39 693.55 58.98 691.31 58.05C689.06 57.11 686.35 56.65 683.17 56.65C681.16 56.65 679.09 56.87 676.95 57.32C674.81 57.77 672.58 58.43 670.25 59.32V65.62C672.33 64.43 674.47 63.53 676.66 62.91C678.85 62.29 681.02 61.98 683.17 61.98C686.53 61.98 688.97 62.67 690.5 64.05C692.03 65.43 692.81 67.65 692.83 70.71V71.7H684.37C678.82 71.7 674.61 72.81 671.74 75.02C668.87 77.24 667.44 80.48 667.44 84.75C667.44 88.45 668.61 91.4 670.94 93.61C673.27 95.81 676.39 96.92 680.29 96.92C683.21 96.92 685.7 96.38 687.74 95.29C689.78 94.2 691.48 92.52 692.83 90.24V95.93H699.17V74.04C699.16 70.68 698.98 68.16 698.62 66.49ZM692.83 78.05C692.81 82.3 691.8 85.63 689.82 88.04C687.83 90.45 685.1 91.66 681.63 91.66C679.16 91.66 677.23 91.02 675.84 89.74C674.45 88.46 673.75 86.67 673.75 84.36C673.75 81.8 674.68 79.88 676.54 78.59C678.4 77.3 681.17 76.65 684.85 76.65H686.94H692.83V78.05Z" fill="#231F20"/>
<path d="M630.43 62.25C629.04 60.38 627.21 58.97 624.97 58.04C622.72 57.1 620.01 56.64 616.83 56.64C614.82 56.64 612.75 56.86 610.61 57.31C608.47 57.76 606.24 58.42 603.91 59.31V65.61C605.99 64.42 608.12 63.52 610.32 62.9C612.51 62.28 614.68 61.97 616.83 61.97C620.19 61.97 622.63 62.66 624.16 64.04C625.69 65.42 626.47 67.64 626.49 70.7V71.69H618.03C612.48 71.69 608.27 72.8 605.4 75.01C602.53 77.23 601.1 80.47 601.1 84.74C601.1 88.44 602.27 91.39 604.6 93.6C606.93 95.8 610.05 96.91 613.95 96.91C616.87 96.91 619.36 96.37 621.4 95.28C623.44 94.19 625.14 92.51 626.49 90.23V95.92H632.83V74.03C632.83 70.67 632.65 68.15 632.28 66.47C631.91 64.81 631.29 63.4 630.43 62.25ZM626.48 78.05C626.46 82.3 625.45 85.63 623.47 88.04C621.48 90.45 618.75 91.66 615.28 91.66C612.81 91.66 610.88 91.02 609.49 89.74C608.1 88.46 607.4 86.67 607.4 84.36C607.4 81.8 608.33 79.88 610.19 78.59C612.05 77.3 614.82 76.65 618.5 76.65H620.59H626.48V78.05Z" fill="#231F20"/>
<path d="M650.21 88.47C649.17 87.03 648.65 84.9 648.65 82.06V42.42H634.55V47.35H642.35V82.06C642.35 86.49 643.38 89.91 645.45 92.32C647.52 94.73 650.43 95.93 654.2 95.93H662.18V90.62H654.81C652.78 90.62 651.24 89.9 650.21 88.47Z" fill="#231F20"/>
</svg>
