<?xml version="1.0" standalone="no"?>
<!DOCTYPE svg PUBLIC "-//W3C//DTD SVG 1.1//EN" "http://www.w3.org/Graphics/SVG/1.1/DTD/svg11.dtd" >
<svg xmlns="http://www.w3.org/2000/svg" xmlns:xlink="http://www.w3.org/1999/xlink" version="1.1">
<metadata>
Created by FontForge 20201107 at Thu Dec 12 12:01:32 2024
 By 
Copyright (c) 2011, Andrew Paglinawan (www.andrewpaglinawan.com), with Reserved Font Name "Quicksand".
</metadata>
<defs>
<font id="Quicksand-BoldItalic" horiz-adv-x="1024" >
  <font-face 
    font-family="Quicksand"
    font-weight="700"
    font-style="italic"
    font-stretch="normal"
    units-per-em="2048"
    panose-1="0 0 0 0 0 0 0 0 0 0"
    ascent="1638"
    descent="-410"
    x-height="1000.5"
    cap-height="1432"
    bbox="-39.6557 -406 2292.19 1946"
    underline-thickness="102"
    underline-position="-204"
    slope="-12"
    unicode-range="U+0020-2122"
  />
<missing-glyph 
 />
    <glyph glyph-name=".notdef" 
 />
    <glyph glyph-name=".null" horiz-adv-x="0" 
 />
    <glyph glyph-name="nonmarkingreturn" horiz-adv-x="682" 
 />
    <glyph glyph-name="space" unicode=" " horiz-adv-x="614" 
 />
    <glyph glyph-name="space" unicode="&#xa0;" horiz-adv-x="614" 
 />
    <glyph glyph-name="exclam" unicode="!" horiz-adv-x="516" 
d="M547 1436q47 0 75 -34t19 -81l-133 -758q-9 -47 -48.5 -80.5t-86.5 -33.5q-46 0 -73.5 33.5t-18.5 80.5l133 758q7 47 47 81t86 34zM342 272q47 0 74.5 -33t19.5 -79l-8 -45q-8 -46 -47 -79.5t-86 -33.5t-74.5 33.5t-19.5 79.5l8 45q7 46 47 79t86 33z" />
    <glyph glyph-name="quotedbl" unicode="&#x22;" horiz-adv-x="839" 
d="M592 887l35 438q3 51 34.5 83t81.5 32h82q29 0 47.5 -18.5t18.5 -49.5q0 -13 -8 -45l-150 -455q-23 -63 -74 -63q-30 0 -50 22t-17 56zM141 887l37 438q3 50 35 82.5t82 32.5h80q30 0 48.5 -18t18.5 -50q0 -13 -8 -45l-149 -455q-23 -63 -74 -63q-31 0 -51 21.5t-19 56.5
z" />
    <glyph glyph-name="numbersign" unicode="#" horiz-adv-x="1433" 
d="M256 115l37 215h-94q-44 0 -75.5 31t-31.5 75q0 43 31.5 75t75.5 32h131l61 356h-119q-43 0 -74.5 32t-31.5 75t31.5 74.5t74.5 31.5h156l41 244q6 39 36 63.5t70 24.5q50 0 81.5 -38.5t25.5 -86.5l-37 -207h322l41 244q6 39 36 63.5t72 24.5q49 0 81 -38.5t24 -86.5
l-35 -207h94q43 0 74.5 -31t31.5 -75q0 -43 -31.5 -75t-74.5 -32h-131l-62 -356h117q44 0 75.5 -31.5t31.5 -75.5q0 -43 -31.5 -74.5t-75.5 -31.5h-153l-43 -252q-6 -38 -36.5 -63t-70.5 -25q-50 0 -82 38.5t-24 86.5l39 215h-322l-43 -252q-6 -36 -35.5 -62t-73.5 -26
q-50 0 -80.5 36.5t-23.5 88.5zM549 543h319l62 356h-320z" />
    <glyph glyph-name="dollar" unicode="$" horiz-adv-x="1294" 
d="M821 1475q6 37 37 62.5t68 25.5t58 -25.5t15 -62.5l-8 -45q164 -19 297 -113q56 -32 45 -98q-9 -47 -48.5 -80t-86.5 -33q-30 0 -57 18q-105 68 -197 90l-70 -393q225 -59 312.5 -158.5t58.5 -263.5q-29 -166 -167 -273t-339 -126l-22 -123q-6 -37 -36 -62.5t-67 -25.5
t-59 25.5t-16 62.5l22 127q-222 24 -391 160q-48 35 -39 98q9 47 47.5 80t85.5 33q38 0 64 -23q132 -110 278 -137l72 403q-220 60 -307.5 156.5t-57.5 265.5q29 163 166.5 270t333.5 122zM1001 385q12 70 -24 114.5t-143 80.5l-66 -373q99 10 159 57t74 121zM559 1055
q-13 -67 21.5 -110.5t140.5 -80.5l63 363q-97 -9 -155.5 -55.5t-69.5 -116.5z" />
    <glyph glyph-name="ampersand" unicode="&#x26;" horiz-adv-x="1425" 
d="M1169 915q47 11 83.5 -14.5t37.5 -71.5q3 -36 -4 -81q-9 -57 -43.5 -109.5t-81.5 -83.5q-12 -9 -22 -14q-1 -8 -3 -24.5t-3 -24.5q-37 -204 -206.5 -348t-373.5 -144q-134 0 -235.5 66t-147.5 179t-23 247q18 106 77 199.5t147 162.5q-41 94 -21 199q28 158 159 269.5
t288 111.5q158 0 249.5 -111.5t63.5 -269.5q-7 -47 -46.5 -80t-86.5 -33q-46 0 -73.5 33t-18.5 80q10 64 -27 108.5t-100 44.5q-65 0 -118 -44.5t-65 -108.5q-13 -82 43 -125q32 -26 33.5 -70t-26.5 -82h-2q-2 -2 -5 -8q-14 -14 -26 -23l-8 -4q-1 -1 -3 -2t-3 -2
q-10 -5 -11 -6q-74 -33 -126.5 -97t-65.5 -142q-20 -109 44 -187t173 -78q110 0 201.5 78t111.5 187q0 2 1 6t1 6q-119 0 -164 -39q-17 -15 -24 -45q-2 -10 -2 -21q6 -44 -24 -85.5t-77 -55.5q-10 -4 -32 -4q-37 0 -64 22t-31 58q-8 24 5 86q18 122 120 207q125 104 338 104
q10 0 33 -1t35 -1h4q19 0 25 2q6 3 6 4q4 0 4 13q4 17 2 32q-2 46 29.5 85.5t78.5 49.5z" />
    <glyph glyph-name="quotesingle" unicode="'" horiz-adv-x="471" 
d="M141 887l37 438q3 50 35 82.5t82 32.5h80q30 0 49.5 -18.5t19.5 -49.5q0 -13 -8 -45l-149 -455q-23 -63 -76 -63q-31 0 -51 21.5t-19 56.5z" />
    <glyph glyph-name="parenleft" unicode="(" horiz-adv-x="880" 
d="M303 -115q-77 71 -115 197q-60 214 0 543q44 248 125 422q100 211 250 315q121 82 260 82q53 0 83.5 -38t21.5 -91q-9 -54 -53.5 -92.5t-98.5 -38.5q-50 0 -90 -27q-44 -27 -90 -100q-102 -155 -147 -432q-40 -201 -21 -351q15 -137 70 -182q29 -26 82 -29q54 0 84 -37.5
t20 -91.5q-9 -54 -53.5 -91.5t-98.5 -37.5h-4q-136 0 -225 80z" />
    <glyph glyph-name="parenright" unicode=")" horiz-adv-x="880" 
d="M760 1364q76 -70 114 -197q60 -214 0 -542q-45 -251 -124 -422q-100 -213 -250 -316q-121 -82 -260 -82q-53 0 -83.5 38t-21.5 91q9 54 53.5 93t98.5 39q51 0 90 26q43 27 90 101q102 155 147 432q40 200 21 350q-15 137 -70 182q-29 26 -82 29q-54 0 -84 37.5t-20 91.5
q9 54 53 91.5t98 37.5h5q136 0 225 -80z" />
    <glyph glyph-name="asterisk" unicode="*" horiz-adv-x="880" 
d="M735 829q-5 -41 -55 -61l-145 -55l124 -58q41 -16 35 -61q-4 -26 -27.5 -45t-48.5 -19q-22 0 -43 21l-98 86l-6 -135q-2 -31 -23 -52.5t-51 -21.5t-42 20.5t-3 53.5l41 135l-129 -86q-27 -21 -49 -21q-26 0 -42 20t-11 46q9 44 55 59l143 58l-122 55q-41 18 -35 63
q5 25 28 43.5t50 18.5q20 0 41 -21l98 -86l6 136q2 32 22.5 53.5t51.5 21.5q29 0 42 -21t3 -52l-41 -138l129 86q27 21 51 21q25 0 41 -19.5t10 -44.5z" />
    <glyph glyph-name="plus" unicode="+" horiz-adv-x="1269" 
d="M846 821q43 0 69 -32t17 -76q-9 -45 -48.5 -78t-82.5 -33h-176l-37 -176q-9 -43 -48.5 -76t-84.5 -33q-44 0 -69.5 33t-16.5 76l37 176h-177q-44 0 -69.5 32.5t-16.5 78.5q9 44 48 76t83 32h177l34 176q9 43 48 76t83 33q45 0 71.5 -33t17.5 -76l-35 -176h176z" />
    <glyph glyph-name="comma" unicode="," horiz-adv-x="471" 
d="M309 119q0 -1 0.5 -5.5t1 -13.5t0.5 -20q0 -28 -6 -56t-21.5 -62t-48.5 -60.5t-81 -38.5h-7q-9 0 -18 7t-12 17q-3 12 3.5 22t20.5 15q64 13 92 80q-6 -2 -28 -2q-38 0 -66 29t-28 69t28 70.5t66 30.5q37 0 64.5 -22.5t35.5 -57.5q0 -2 4 -2v0z" />
    <glyph glyph-name="hyphen" unicode="-" horiz-adv-x="835" 
d="M590 631h-381q-31 0 -52.5 21.5t-21.5 52.5t21.5 52t52.5 21h381q31 0 51.5 -21t20.5 -52t-20.5 -52.5t-51.5 -21.5z" />
    <glyph glyph-name="period" unicode="." horiz-adv-x="471" 
d="M371 102q0 -40 -30 -71t-71 -31q-40 0 -71 31t-31 71q0 41 31 71t71 30q41 0 71 -30t30 -71z" />
    <glyph glyph-name="slash" unicode="/" 
d="M74 8q-44 17 -62.5 61t0.5 87l502 1194q19 43 62.5 60.5t87.5 -1.5q41 -17 58.5 -60.5t-1.5 -84.5l-502 -1196q-13 -32 -42 -50t-62 -18q-25 0 -41 8z" />
    <glyph glyph-name="zero" unicode="0" horiz-adv-x="1454" 
d="M809 1432q115 0 202.5 -62.5t137.5 -165.5q102 -202 51 -489t-223 -490q-86 -103 -195.5 -165t-224.5 -62t-202.5 62t-137.5 165q-102 202 -51 490q51 286 223 489q88 104 196.5 166t223.5 62zM811 352q57 66 100.5 161.5t63.5 201.5q18 110 8 203t-45 161
q-63 128 -168 125q-104 3 -215 -125q-57 -68 -100.5 -163t-61.5 -201q-19 -112 -9 -204t44 -159q62 -127 168 -127q105 0 215 127z" />
    <glyph glyph-name="one" unicode="1" horiz-adv-x="686" 
d="M586 1337v-12q-1 -1 -1 -3t-1 -3l-213 -1208q-8 -46 -47 -79.5t-86 -33.5q-46 0 -74 33.5t-19 79.5l179 1009l-91 -49q-32 -16 -61 -16q-63 0 -88 55q-17 41 3 87t65 69l278 149q1 1 3 2t3 2q8 4 13 4q2 1 6 2t6 2q2 0 5 1.5t5 1.5q4 2 12 2h9h2q8 0 12 -2h10l10 -5
q1 -1 4.5 -2t4.5 -2q8 -4 10 -4q1 -1 4 -3t4 -3l8 -8l6 -6q1 -1 2 -4t2 -4q1 -2 3.5 -5.5t3.5 -5.5l2 -2q0 -4 2 -6q0 -2 1 -5.5t1 -4.5q0 -2 1 -6t1 -6v-11z" />
    <glyph glyph-name="two" unicode="2" horiz-adv-x="1208" 
d="M971 223q47 0 74.5 -33.5t19.5 -80.5q-9 -46 -48 -79.5t-85 -33.5h-723h-4h-4q-52 0 -76 37q-26 35 -15.5 82.5t50.5 79.5l702 546q101 79 121 197q19 101 -37 178q-65 86 -180 86q-103 0 -191 -67l-73 -58q-41 -32 -87.5 -29.5t-72.5 37.5q-25 34 -14 81t51 79l74 58
q165 127 352 127q101 0 189.5 -42t146.5 -120q102 -137 69 -330q-18 -102 -76 -198t-149 -167l-448 -350h434z" />
    <glyph glyph-name="three" unicode="3" horiz-adv-x="1249" 
d="M903 969q77 -39 127 -101q60 -72 82 -165.5t4 -192.5t-72.5 -192.5t-140.5 -167.5q-87 -73 -187.5 -111.5t-199.5 -38.5q-98 0 -185.5 38.5t-148.5 111.5q-28 34 -18.5 81.5t49.5 81.5t88 34t76 -34q65 -80 180 -80q111 0 211 80q96 84 115 197q19 116 -45 195
q-64 78 -181 81q-50 -3 -79 37q-1 0 -3 2q-28 34 -19.5 81.5t46.5 82.5l246 213h-330q-50 0 -77.5 34t-18.5 83q8 47 48 81t89 34h604q47 0 75 -34t19 -81q-2 -24 -22 -55q-16 -21 -27 -29z" />
    <glyph glyph-name="four" unicode="4" horiz-adv-x="1359" 
d="M1137 489q46 0 73.5 -33t18.5 -79q-8 -47 -47 -81t-86 -34h-21l-26 -153q-8 -46 -47.5 -79.5t-86.5 -33.5t-74.5 33.5t-19.5 79.5l29 153h-641h-4q-39 0 -66 27q-32 30 -28.5 75.5t39.5 81.5l923 940q0 5 4 5l10 10q1 1 4.5 3t4.5 3l12 6q4 4 8 4l12 6q2 0 5.5 1t5.5 1
q4 2 12 2q6 3 12 3h4h7q4 0 10 -3q8 0 10 -2q2 0 5.5 -1t4.5 -1q2 -1 5 -2t5 -2q1 -1 4.5 -3t4.5 -3t4 -3t4 -3q1 0 2 -1t2 -1l4 -4q1 -1 3 -4t3 -4t3 -4.5t3 -4.5q0 -2 4 -10l5 -10q0 -6 2 -8v-13q2 -2 2 -8q0 -2 -1 -7t-1 -7v-4l-146 -828h21zM481 489h408l90 506z" />
    <glyph glyph-name="five" unicode="5" horiz-adv-x="1239" 
d="M1100 1204h-504l-61 -203q74 19 141 19q99 0 185.5 -38t146.5 -112q60 -72 82 -165.5t4 -192.5q-18 -100 -72.5 -194t-140.5 -166q-87 -73 -187.5 -111.5t-199.5 -38.5t-186 38.5t-146 111.5q-29 34 -20.5 81.5t48.5 81.5t88 34t76 -34q64 -79 181 -82q116 3 210 82
q95 83 117 197q19 117 -47 195q-67 79 -180 79q-117 0 -211 -79q-40 -34 -88 -34t-76 34q-8 8 -16 28v4q-1 2 -2 6.5t-2 6.5v12v4q-3 15 4 35l155 528q16 56 66 82q1 1 4 3t4 3l8 4q26 13 56 13h604q48 0 75.5 -34t18.5 -83q-7 -47 -47.5 -81t-87.5 -34z" />
    <glyph glyph-name="six" unicode="6" horiz-adv-x="1314" 
d="M741 997q135 0 238 -66.5t149.5 -181t22.5 -249.5q-37 -206 -208 -351t-376 -145q-193 0 -311.5 128.5t-103.5 318.5l-2 2q8 76 16 118q43 231 145 420q131 233 326 350q154 91 326 97q47 1 75.5 -30.5t22.5 -78.5t-44 -81t-85 -36q-111 -6 -203 -59q-88 -54 -156 -143
q-5 -7 -11 -16t-13.5 -20.5t-11.5 -17.5q108 41 204 41zM606 231q112 0 205 79t113 190q20 112 -44.5 191t-177.5 79t-206 -79t-113 -191q-19 -111 46 -190t177 -79z" />
    <glyph glyph-name="seven" unicode="7" horiz-adv-x="1202" 
d="M1098 1339q0 -26 -8 -45q-2 -9 -11 -22l-721 -1206q-20 -32 -51 -51t-65 -19q-15 0 -43 8q-40 19 -49.5 63t16.5 87l627 1048h-529q-47 0 -74.5 33.5t-19.5 81.5q9 46 48 79.5t85 33.5h698q13 0 25 -3q21 -3 37 -16l6 -6l8 -8q2 -4 6 -8q4 -8 4 -11q1 -1 2.5 -3t2.5 -3
q1 -2 2 -6t2 -6v-10q2 -2 2 -11z" />
    <glyph glyph-name="eight" unicode="8" horiz-adv-x="1290" 
d="M991 891q89 -67 129 -174.5t19 -233.5q-23 -132 -108.5 -244t-210 -177.5t-257.5 -65.5q-132 0 -233 65.5t-146.5 177.5t-21.5 244q21 125 99 233t190 175q-52 87 -31 201q25 140 141.5 239t255.5 99q140 0 222 -99.5t57 -238.5q-21 -114 -105 -201zM776 1206
q-47 0 -86.5 -33.5t-48.5 -80.5q-8 -46 20.5 -80t75.5 -35q47 1 86.5 35t48.5 80q8 48 -19.5 81t-76.5 33zM602 219q110 0 201.5 77.5t111.5 186.5q19 110 -45 188.5t-174 78.5t-201.5 -78t-111.5 -189q-19 -109 45.5 -186.5t173.5 -77.5z" />
    <glyph glyph-name="nine" unicode="9" horiz-adv-x="1314" 
d="M1184 987v-4q-7 -67 -17 -119q-39 -229 -145 -420q-132 -235 -326 -350q-154 -90 -323 -96h-6q-45 0 -73 31.5t-22 76.5q8 48 46 83t85 36q106 3 203 60q85 49 154 143q21 24 37 53q-96 -41 -205 -41q-135 0 -237.5 66.5t-149 180.5t-23.5 249q37 205 208.5 350.5
t377.5 145.5q191 0 310.5 -128.5t105.5 -316.5zM633 666q112 0 204.5 78.5t112.5 191.5q20 110 -45.5 189t-177.5 79t-204.5 -78.5t-112.5 -189.5q-20 -112 45 -191t178 -79z" />
    <glyph glyph-name="colon" unicode=":" horiz-adv-x="491" 
d="M389 102q-6 -40 -42 -71t-77 -31q-40 0 -65 31t-19 71q7 41 44 71t77 30q41 0 65.5 -30t16.5 -71zM541 969q-8 -40 -43 -71.5t-76 -31.5q-40 0 -65.5 31.5t-18.5 71.5q7 41 44 70.5t77 29.5q41 0 65 -29.5t17 -70.5z" />
    <glyph glyph-name="semicolon" unicode=";" horiz-adv-x="491" 
d="M526 965q-8 -41 -42.5 -72t-75.5 -31q-40 0 -65.5 31.5t-18.5 71.5q9 41 45.5 70.5t76.5 29.5q41 0 65 -29.5t15 -70.5zM358 123q0 -14 -4 -39q-5 -28 -16.5 -56t-33.5 -62t-61 -60.5t-89 -38.5h-7q-9 0 -16.5 7t-7.5 17q-1 12 8 22t23 15q68 14 108 80q-8 -2 -31 -2
q-38 0 -59.5 29t-13.5 69t41 70.5t71 30.5q37 0 60.5 -22.5t25.5 -57.5q-2 -2 2 -2v0z" />
    <glyph glyph-name="less" unicode="&#x3c;" horiz-adv-x="1269" 
d="M1049 1397q32 -38 22.5 -92.5t-53.5 -92.5l-578 -493l404 -494q31 -38 21 -93t-54 -93q-46 -37 -100 -37q-53 0 -86 39l-478 586q-7 7 -10 16q-2 2 -2 4q-1 1 -6 17q-2 2 -2 6q-2 4 -2 14q0 1 -1 4.5t-1 5.5t1 5.5t1 5.5v14q0 1 1 4t1 4q1 3 3 8t3 8q0 5 2 7q4 12 8 18
l2 2q12 22 35 41l684 586q44 38 99 38t86 -38z" />
    <glyph glyph-name="equal" unicode="=" horiz-adv-x="1269" 
d="M236 530q-31 0 -52.5 21.5t-21.5 52.5t21.5 52.5t52.5 21.5h380q31 0 51.5 -21.5t20.5 -52.5t-20.5 -52.5t-51.5 -21.5h-380zM236 762q-31 0 -52.5 20.5t-21.5 51.5q0 29 21.5 50t52.5 21h380q30 0 51 -20.5t21 -50.5q0 -31 -20.5 -51.5t-51.5 -20.5h-380z" />
    <glyph glyph-name="greater" unicode="&#x3e;" horiz-adv-x="1269" 
d="M1151 731q0 -8 -2 -12q0 -6 -2 -8q0 -9 -4 -17q0 -1 -1 -3t-1 -3q-2 -3 -5.5 -9t-5.5 -9l-2 -4q-12 -17 -14 -19l-2 -4l-16 -16l-686 -586q-42 -39 -99 -39q-56 0 -86 37q-32 38 -22.5 93t55.5 93l578 494l-404 493q-32 39 -22 92.5t55 92.5q44 38 98.5 38t85.5 -38
l479 -586q10 -15 11 -18l2 -2q5 -15 6 -17q0 -1 1 -3t1 -3q0 -10 2 -14v-11v-12z" />
    <glyph glyph-name="question" unicode="?" horiz-adv-x="1093" 
d="M338 250q43 0 68 -31.5t18 -75.5l-6 -39q-7 -44 -44 -75t-81 -31q-43 0 -68 31t-18 75l6 39q8 44 44.5 75.5t80.5 31.5zM545 1432q92 0 169.5 -36t127.5 -96.5t71.5 -144.5t4.5 -176q-27 -159 -147 -281.5t-277 -158.5l-27 -142q-7 -44 -43.5 -74t-79.5 -30t-68 30
t-18 74l39 226q0 1 1 2t1 2v4q7 43 43.5 73.5t79.5 30.5q101 0 184.5 71.5t102.5 172.5q17 100 -42 171t-159 71q-67 0 -128.5 -32.5t-103.5 -88.5q-30 -37 -72.5 -48.5t-76.5 11.5q-35 22 -38.5 63.5t24.5 79.5q78 103 193.5 164.5t238.5 61.5z" />
    <glyph glyph-name="at" unicode="@" horiz-adv-x="2007" 
d="M1022 1438q145 0 268 -57t202 -153t112.5 -229t7.5 -278q-29 -172 -137 -328v-2l-2 -2l-9 -11q-9 -11 -24.5 -27t-32.5 -32q-87 -78 -176 -98q-24 -8 -55 -8q-46 0 -85 22.5t-57 55.5q-15 24 -22 61q-96 -47 -191 -47q-81 0 -148.5 33.5t-111.5 91.5q-93 120 -63 291
q30 168 166 291q138 125 305 125q81 0 148.5 -33.5t111.5 -91.5q93 -120 63 -291q0 -6 -4 -14v-9l-43 -243q4 1 17 10q25 25 30 35q71 99 92 221q23 133 -22.5 245.5t-146.5 178t-234 65.5t-257 -65.5t-209.5 -178t-108.5 -245.5q-17 -99 5.5 -190t76.5 -156.5t138 -104.5
t183 -39q65 0 123 15q48 11 84 -13t39 -69q4 -46 -27 -86t-78 -51q-97 -23 -182 -23q-145 0 -268 57t-202 153t-112.5 229t-7.5 278q26 146 106 278.5t193 228.5t256 153t289 57zM989 586q65 58 76 135q15 81 -29 135q-38 53 -108 53q-71 0 -127 -53q-64 -57 -76 -135
q-15 -81 29 -135q39 -54 108 -54q70 0 127 54z" />
    <glyph glyph-name="A" unicode="A" horiz-adv-x="1323" 
d="M489 338l-147 -264q-19 -34 -51.5 -54t-67.5 -20q-21 0 -39 6q-40 17 -51.5 60.5t12.5 87.5l666 1206q18 34 51.5 54t69.5 20t62.5 -19.5t33.5 -54.5l240 -1206q9 -44 -18 -87.5t-74 -60.5q-21 -6 -41 -6q-34 0 -60.5 20.5t-32.5 53.5l-53 264h-500zM614 563h330l-88 441
z" />
    <glyph glyph-name="B" unicode="B" horiz-adv-x="1216" 
d="M317 -2q-46 0 -73.5 33.5t-18.5 79.5l213 1208q8 46 47 79.5t86 33.5h2h2h285q161 0 255.5 -114.5t66.5 -277.5q-24 -130 -119 -231q85 -59 123 -157.5t18 -215.5q-32 -181 -183 -309.5t-333 -128.5h-364h-5h-2zM727 225q88 0 161.5 62t88.5 149q15 88 -35.5 150.5
t-138.5 62.5h-256l-76 -424h256zM954 1040q12 67 -27.5 115.5t-107.5 48.5h-174l-59 -327h176q68 0 124 48t68 115z" />
    <glyph glyph-name="C" unicode="C" horiz-adv-x="1472" 
d="M827 0q-149 0 -274.5 56.5t-207.5 152t-117 228.5t-9 280q27 146 108.5 279t197 229t260.5 152.5t294 56.5q259 0 428 -156q32 -29 29.5 -76t-37.5 -84t-82.5 -42t-79.5 24q-122 106 -299 106q-103 0 -202.5 -38t-180.5 -105q-83 -69 -137.5 -157.5t-71.5 -188.5
q-37 -200 86 -346q58 -68 144.5 -106t189.5 -38q182 0 336 107q41 29 87 22.5t69 -43.5q22 -37 8 -83t-57 -74q-224 -156 -482 -156z" />
    <glyph glyph-name="D" unicode="D" horiz-adv-x="1472" 
d="M317 0q-46 0 -73.5 34t-18.5 81l211 1206q9 47 48.5 80t86.5 33v0h242q146 0 268.5 -56.5t201.5 -152.5t112.5 -229t7.5 -279q-26 -145 -106.5 -278t-193.5 -229t-256 -153t-288 -57h-240h-2zM1176 717q35 204 -83 346.5t-321 144.5h-129l-172 -981h129q133 0 257.5 65.5
t210 178.5t108.5 246z" />
    <glyph glyph-name="E" unicode="E" horiz-adv-x="1214" 
d="M317 -4q-47 0 -74.5 33.5t-19.5 79.5l213 1208q8 46 47 79.5t86 33.5h2h2h664q47 0 74.5 -33.5t19.5 -79.5q-9 -47 -48 -81t-85 -34h-555l-68 -377h480q46 0 73.5 -32.5t18.5 -79.5q-7 -47 -46.5 -80t-86.5 -33h-477l-68 -377h555q47 0 74.5 -33.5t19.5 -80.5
q-9 -46 -48 -79.5t-85 -33.5h-666h-2z" />
    <glyph glyph-name="F" unicode="F" horiz-adv-x="1228" 
d="M317 0q-46 0 -73.5 33.5t-18.5 79.5l213 1208q8 46 47 79.5t86 33.5h2h2h664q46 0 73.5 -33.5t18.5 -79.5q-8 -47 -47 -81t-86 -34h-553l-67 -377h477q47 0 74.5 -32.5t19.5 -79.5q-9 -47 -48 -80t-85 -33h-477l-88 -491q-8 -46 -47.5 -79.5t-86.5 -33.5z" />
    <glyph glyph-name="G" unicode="G" horiz-adv-x="1638" 
d="M825 2q-148 1 -273 57.5t-207 152.5t-117 228.5t-9 278.5q35 196 163 361t313.5 260.5t383.5 95.5q259 0 428 -156q32 -28 29.5 -74.5t-37.5 -83.5t-82.5 -43t-79.5 23q-121 108 -299 108q-209 0 -385 -145q-173 -147 -207 -346q-18 -98 5 -187.5t81 -156.5
q58 -69 144 -107.5t190 -38.5q147 0 287 78l49 273h-284q-46 0 -74 33.5t-19 78.5q7 47 46.5 80t86.5 33h394h2q47 0 74.5 -33t19.5 -80l-78 -442q-2 -12 -10 -31l-6 -12l-2 -2q-16 -29 -43 -47q-229 -156 -482 -156h-2z" />
    <glyph glyph-name="H" unicode="H" horiz-adv-x="1556" 
d="M1067 604h-530l-86 -491q-8 -46 -47.5 -79.5t-86.5 -33.5q-46 0 -73.5 33.5t-18.5 79.5l211 1208q9 46 48.5 79.5t86.5 33.5q46 0 74 -33.5t19 -79.5l-86 -492h530l86 492q9 46 48 79.5t85 33.5q47 0 74.5 -33.5t19.5 -79.5l-213 -1208q-7 -46 -47 -79.5t-86 -33.5
q-47 0 -74.5 33.5t-19.5 79.5z" />
    <glyph glyph-name="I" unicode="I" horiz-adv-x="624" 
d="M465 111q-7 -46 -47 -79.5t-86 -33.5q-47 0 -74.5 33.5t-19.5 79.5l213 1208q9 46 48 79.5t85 33.5q47 0 74.5 -33.5t19.5 -79.5z" />
    <glyph glyph-name="J" unicode="J" horiz-adv-x="1216" 
d="M193 494q47 14 85 -8t44 -66q12 -86 76.5 -141t156.5 -54q117 0 214.5 82t117.5 199l143 813q7 46 47 79.5t86 33.5q47 0 74.5 -33.5t19.5 -79.5l-143 -813q-24 -138 -112.5 -255t-218 -185t-267.5 -68q-168 0 -284 98.5t-138 253.5q-6 44 23 86.5t76 57.5z" />
    <glyph glyph-name="K" unicode="K" horiz-adv-x="1464" 
d="M571 1434q46 0 74 -33.5t19 -79.5l-105 -592l791 672q40 32 86.5 32t72.5 -32q28 -34 20 -81t-46 -79l-537 -457l389 -598q23 -37 9.5 -83.5t-54.5 -75.5q-34 -27 -76 -27q-55 0 -79 41l-377 584l-254 -217l-53 -295q-8 -46 -47.5 -79.5t-86.5 -33.5q-46 0 -73.5 33.5
t-18.5 79.5l213 1208q8 46 47 79.5t86 33.5z" />
    <glyph glyph-name="L" unicode="L" horiz-adv-x="1267" 
d="M317 4q-46 0 -73.5 34t-18.5 81l213 1206q7 47 46.5 80t86.5 33q46 0 74 -33t19 -80l-193 -1094h555q47 0 74.5 -33t19.5 -79q-9 -47 -48.5 -81t-86.5 -34h-663q-1 2 -3 2q0 -2 -2 -2z" />
    <glyph glyph-name="M" unicode="M" horiz-adv-x="1777" 
d="M655 1389l308 -566l507 568q45 48 103 45h2q46 0 72.5 -33t19.5 -80l-213 -1206q-8 -47 -47 -81t-86 -34t-74.5 33.5t-19.5 81.5l151 860l-364 -410q-44 -47 -101 -47h-4h-2q-60 0 -84 47l-221 410l-151 -860q-9 -47 -48.5 -81t-85.5 -34q-47 0 -74.5 33.5t-19.5 81.5
l213 1206q7 47 46.5 80t86.5 33v0h2q60 3 84 -47z" />
    <glyph glyph-name="N" unicode="N" horiz-adv-x="1617" 
d="M225 113l211 1202q10 61 66 96q41 28 86 20.5t65 -45.5l504 -925l150 854q9 46 48 79t85 33q47 0 74.5 -33t19.5 -79l-213 -1202q-7 -47 -46.5 -80t-86.5 -33q-53 0 -78 39q0 1 -3.5 5.5t-4.5 8.5l-500 918l-151 -858q-7 -47 -46.5 -80t-87.5 -33q-46 0 -73.5 33
t-18.5 80z" />
    <glyph glyph-name="O" unicode="O" horiz-adv-x="1740" 
d="M739 -2q-140 0 -255.5 56.5t-190.5 156.5q-76 99 -105.5 229t-3.5 275q26 144 101.5 275t185.5 229q111 100 246.5 156.5t275.5 56.5q139 0 255 -56.5t192 -156.5q75 -98 103.5 -229t2.5 -275q-24 -145 -98.5 -275t-185.5 -229q-111 -100 -247 -156.5t-276 -56.5z
M608 1063q-158 -142 -196 -348q-37 -204 73 -350q107 -139 295 -142q186 3 344 142q160 147 197 350q37 204 -74 348q-52 67 -128 104t-167 37q-187 0 -344 -141z" />
    <glyph glyph-name="P" unicode="P" horiz-adv-x="1193" 
d="M317 2q-47 0 -74.5 33.5t-19.5 79.5l213 1208q9 46 48 79.5t85 33.5h2h2h363q120 0 211 -59t131.5 -160t19.5 -220q-32 -182 -183 -310t-333 -130h-254l-77 -442q-7 -46 -47.5 -79.5t-86.5 -33.5zM1071 997q15 88 -35.5 149.5t-138.5 61.5h-254l-74 -424h252
q88 0 161.5 62.5t88.5 150.5z" />
    <glyph glyph-name="Q" unicode="Q" horiz-adv-x="1728" 
d="M1610 -37q25 -40 10 -89t-61 -81q-186 -129 -373 -129h-2q-176 0 -359 123q-61 33 -118 33q-45 0 -92 -14t-62 -23q-69 -34 -123 6q-2 1 -5.5 2t-4.5 2q0 2 -2 2q-21 21 -27 45q-12 46 13.5 94t74.5 68l4 2q-122 67 -194 164q-83 106 -113.5 244.5t-1.5 294.5
q24 154 103.5 293.5t197.5 246.5q123 106 267 167t292 61q149 0 273 -61t204 -167q80 -107 111.5 -247t3.5 -293q-24 -154 -103.5 -292.5t-197.5 -246.5q-137 -114 -270 -168l-47 -20q126 -76 219 -76q96 0 217 80q46 31 94.5 25t71.5 -46zM414 707q-18 -107 2.5 -203.5
t75.5 -169.5q57 -71 138 -111.5t177 -40.5t191.5 40.5t177.5 111.5q173 160 210 373q37 225 -77 374q-117 148 -318 148q-199 0 -366 -148q-175 -158 -211 -374z" />
    <glyph glyph-name="R" unicode="R" horiz-adv-x="1280" 
d="M1184 170q6 -44 -22.5 -87t-74.5 -56q-23 -9 -47 -9q-39 0 -75 23q-39 28 -54 74q-28 80 -2 245q8 50 -8 86q-13 32 -51 62q-32 24 -107 49h-241l-80 -444q-8 -46 -47 -79.5t-86 -33.5q-46 0 -73.5 33.5t-18.5 79.5l213 1208q8 46 47 79.5t86 33.5h2h364q119 0 209.5 -59
t131.5 -160t20 -220q-17 -101 -74.5 -189t-142.5 -149q37 -43 55 -75q50 -95 29 -222q-15 -78 -11 -120q49 -20 58 -70zM616 1206l-75 -424h254q87 0 159.5 62.5t89.5 150.5q15 88 -36.5 149.5t-139.5 61.5h-252z" />
    <glyph glyph-name="S" unicode="S" horiz-adv-x="1366" 
d="M170 201q-28 26 -25 67.5t35 75.5q32 32 75.5 36t72.5 -22q64 -63 160 -108.5t196 -44.5q146 0 260 74q97 64 113 143q5 37 -6 63q-19 38 -52 60q-79 60 -258 96h-2h-2q-142 28 -241 78q-117 62 -160 155q-32 76 -17 162q17 88 74 163.5t139 127.5q164 107 363 107
q55 0 109 -11.5t89.5 -24.5t82 -40.5t64.5 -40t60 -43.5q32 -23 33 -64.5t-28 -76.5q-30 -36 -72.5 -44.5t-73.5 15.5q-57 42 -93 64.5t-92.5 42t-113.5 18.5q-133 3 -237 -66q-87 -60 -99 -127q-6 -32 6 -55q9 -25 43 -51q72 -56 236 -88h4q153 -28 262 -84
q125 -68 168 -164q35 -78 17 -172q-17 -92 -77 -172.5t-147 -136.5q-177 -113 -389 -113q-148 1 -269 59.5t-208 141.5z" />
    <glyph glyph-name="T" unicode="T" horiz-adv-x="1327" 
d="M115 1321q7 47 46.5 80t86.5 33h870q47 0 74.5 -33t19.5 -80q-7 -47 -47 -80t-86 -33h-323l-193 -1093q-8 -47 -47 -81t-86 -34q-46 0 -73.5 34t-18.5 81l192 1093h-323q-46 0 -73.5 33t-18.5 80z" />
    <glyph glyph-name="U" unicode="U" horiz-adv-x="1667" 
d="M1491 1434q47 0 74.5 -33t19.5 -80l-129 -729q-28 -160 -131 -296.5t-253.5 -216t-311.5 -79.5t-283.5 79.5t-177.5 216t-27 296.5l127 729q9 47 49 80t87 33q46 0 73.5 -33t18.5 -80l-129 -729q-26 -151 62 -258t239 -107q152 0 278 107t152 258l129 729q7 47 47 80
t86 33z" />
    <glyph glyph-name="V" unicode="V" horiz-adv-x="1536" 
d="M1321 1427q40 -19 50.5 -62t-15.5 -87l-721 -1206q-10 -15 -12 -17t-2 -4q-2 -2 -7.5 -6t-7.5 -6l-4 -4q-6 -6 -14 -10q-2 -2 -4 -2q-14 -9 -19 -11h-2l-2 -2q-12 -4 -18 -4l-4 -2q-4 0 -11 -1t-10 -1v0q-4 0 -10.5 1t-9.5 1q-1 0 -2 1t-2 1q-5 0 -17 4l-2 2q-3 1 -18 11
l-2 2q-2 1 -11 10l-4 4q-4 8 -8 14v2q-6 6 -6 17l-297 1206q-10 44 15.5 87t72.5 62q46 19 86.5 1t50.5 -62l236 -958l571 958q26 44 73 62t87 -1z" />
    <glyph glyph-name="W" unicode="W" horiz-adv-x="2256" 
d="M2079 1425q41 -19 51 -61.5t-16 -85.5l-721 -1206q-2 -3 -6.5 -9.5t-6.5 -9.5l-2 -2q-2 -2 -6 -7t-6 -7q-1 0 -3 -1t-3 -1q-8 -8 -14 -12q-3 -1 -3 -3q-3 -2 -10 -5t-10 -5h-2h-2q-12 -4 -16 -6h-7q-6 -2 -20 -2v0v0q-13 0 -19 2h-6q-6 2 -14 6h-4q-2 1 -8 4.5t-8 5.5
l-3 3l-12 12l-2 2q-2 2 -8 14l-2 2q-1 3 -3 9.5t-3 9.5l-158 641l-383 -641q-2 -3 -6 -9.5t-6 -9.5q-1 0 -2 -1t-2 -1q-2 -2 -6.5 -7t-6.5 -7q-1 0 -2 -1t-2 -1q-2 -2 -7 -6t-7 -6q-1 0 -4 -3q-3 -2 -9.5 -5t-9.5 -5h-2h-4q-3 -1 -8 -3t-8 -3h-6q-6 -2 -19 -2v0h-2
q-12 0 -18 2h-6q-6 3 -15 6h-2h-2q-3 2 -8 5t-8 5l-2 3q-8 8 -10 12q-1 0 -2 1t-2 1q-1 2 -4.5 7t-4.5 7v2q-3 5 -8 19l-295 1206q-10 43 15 85.5t71 61.5q47 19 87.5 1.5t51.5 -60.5l234 -958l381 634q20 33 52 51.5t67 18.5q36 0 62.5 -18.5t33.5 -51.5l156 -634l573 958
q26 43 72 60.5t86 -1.5z" />
    <glyph glyph-name="X" unicode="X" horiz-adv-x="1478" 
d="M1454 1415q34 -28 33 -75t-35 -85l-487 -536l297 -537q21 -37 5.5 -83t-57.5 -74q-41 -23 -71 -23q-57 0 -84 47l-264 479l-435 -479q-41 -47 -100 -47q-35 0 -61 23q-34 28 -33 74t35 83l487 537l-297 536q-22 38 -7 85t58 75t88.5 20.5t65.5 -44.5l266 -480l434 480
q34 37 82 44.5t80 -20.5z" />
    <glyph glyph-name="Y" unicode="Y" horiz-adv-x="1236" 
d="M1212 1251l-526 -579l-98 -561q-7 -46 -47 -79.5t-86 -33.5q-47 0 -75 33.5t-20 79.5l101 561l-322 579q-21 39 -6 84.5t57 73.5q43 28 88.5 20.5t67.5 -45.5l268 -483l439 483q34 38 81.5 45.5t79.5 -20.5q34 -28 33 -74t-35 -84z" />
    <glyph glyph-name="Z" unicode="Z" horiz-adv-x="1366" 
d="M1470 1325q0 -4 -2 -6v-2q0 -6 -4 -14q0 -7 -2 -9q-4 -8 -6 -10q0 -4 -4 -12q-4 -4 -6 -8q-3 -2 -8 -11l-2 -2l-932 -1026h659q46 0 73.5 -33.5t18.5 -80.5q-8 -46 -47 -79.5t-86 -33.5h-880q-15 0 -21 2q-4 0 -6 2q-2 0 -14 4q-2 2 -4 2q-2 1 -6.5 3t-6.5 3l-4 4
q-2 0 -2 2q-1 0 -3 2.5t-3 2.5q-2 4 -6 8q-1 2 -3 5t-3 5q-4 4 -4 8q-4 4 -4 10q-1 1 -2.5 4.5t-2.5 4.5v12q0 1 -1 4t-1 4q0 3 1 7.5t1 6.5v7v2q1 2 2 5t2 5t1 4q2 4 2 8l6 12q1 2 3 5.5t3 5.5q1 1 3 4t3 4q2 4 8 10v2l932 1026h-657q-47 0 -75 34t-20 81q7 46 47.5 79.5
t86.5 33.5h882h2q9 0 13 -2h8q2 -1 6 -2.5t6 -2.5q1 -1 4 -2t4 -2q4 0 8 -4q2 -1 5.5 -3t5.5 -3l2 -2l4 -4l8 -8l4 -8q1 -2 3 -5.5t3 -5.5q1 -1 2 -4t2 -4q0 -2 1 -5.5t1 -4.5q0 -2 1 -5.5t1 -4.5v-13v-12z" />
    <glyph glyph-name="bracketleft" unicode="[" horiz-adv-x="880" 
d="M211 -133l258 1454q8 51 49 87t92 36h422q40 0 64 -29t18 -69q-7 -40 -42 -68.5t-75 -28.5h-305l-229 -1310h305q40 0 63.5 -28.5t16.5 -68.5q-6 -40 -40.5 -69t-74.5 -29h-422q-51 0 -79.5 36t-20.5 87z" />
    <glyph glyph-name="backslash" unicode="\" 
d="M690 8q-16 -8 -41 -8q-33 0 -62 18t-42 50l-502 1196q-19 41 -1.5 84.5t58.5 60.5q44 19 87.5 1.5t62.5 -60.5l502 -1194q19 -43 0.5 -87t-62.5 -61z" />
    <glyph glyph-name="bracketright" unicode="]" horiz-adv-x="880" 
d="M1024 1321l-258 -1454q-8 -51 -49 -87t-92 -36h-422q-40 0 -64 29t-18 69q7 40 42 68.5t75 28.5h305l229 1310h-305q-40 0 -63.5 28.5t-16.5 68.5q6 40 40.5 69t74.5 29h422q51 0 79.5 -36t20.5 -87z" />
    <glyph glyph-name="asciicircum" unicode="^" 
d="M571 1280l-186 -190q-54 -54 -88 -72.5t-78 -18.5q-25 0 -39 11.5t-10 29.5q6 26 37 62l250 266q65 74 139 74h18q41 0 66 -18t47 -56l139 -266q16 -38 11 -62q-4 -19 -22.5 -30t-43.5 -11q-47 0 -74.5 19t-56.5 72z" />
    <glyph glyph-name="underscore" unicode="_" horiz-adv-x="1228" 
d="M37 -328q-40 0 -61.5 28.5t-12.5 68.5q7 39 42 67.5t75 28.5h1237q40 0 62 -28t14 -68q-9 -40 -44 -68.5t-75 -28.5h-1237z" />
    <glyph glyph-name="grave" unicode="`" 
d="M651 1208q-45 0 -77 12t-66 44l-139 131q-35 31 -35 61q0 29 48.5 54.5t98.5 25.5q62 0 99 -59l116 -181q19 -28 19 -45q0 -20 -18 -31.5t-46 -11.5z" />
    <glyph glyph-name="a" unicode="a" horiz-adv-x="1267" 
d="M504 2q-99 0 -182.5 40.5t-137.5 111.5q-115 155 -75 358q34 207 200 360q79 70 177 110t198 40q146 0 256 -86q14 37 48 61.5t73 24.5q46 0 71.5 -31.5t16.5 -77.5l-139 -800q-9 -46 -46 -78.5t-81 -32.5q-40 0 -65 25t-27 63q-143 -88 -287 -88zM442 723
q-97 -88 -118 -211q-21 -124 45 -209q62 -84 174 -84q110 0 200 84q98 85 119 209q23 123 -45 211q-64 84 -172 84q-106 0 -203 -84z" />
    <glyph glyph-name="b" unicode="b" horiz-adv-x="1351" 
d="M295 -4q-46 0 -73.5 33t-18.5 80l209 1212q8 46 46.5 79.5t84.5 33.5t73.5 -33.5t18.5 -79.5l-64 -381q148 84 293 84q137 0 240 -69t148.5 -187t21.5 -258t-110.5 -258t-214 -187t-265.5 -69q-151 0 -266 88q-15 -39 -49.5 -63.5t-73.5 -24.5zM616 717
q-96 -84 -118 -207q-21 -125 45 -207q67 -86 182 -86q108 0 207 86q98 82 119 207q21 120 -43 207q-70 86 -185 86q-111 0 -207 -86z" />
    <glyph glyph-name="c" unicode="c" horiz-adv-x="1169" 
d="M612 0q-108 0 -199.5 41t-151 110.5t-85 166.5t-6.5 204q26 143 119.5 263.5t228.5 189.5t279 69q186 0 311 -112q31 -29 29 -75.5t-37 -82.5q-34 -35 -81 -40.5t-79 22.5q-71 65 -182 65q-130 0 -236.5 -88t-128.5 -211q-22 -124 53 -212.5t205 -88.5q111 0 207 68
q41 28 85.5 22t66.5 -43t8 -82t-55 -73q-160 -113 -351 -113z" />
    <glyph glyph-name="d" unicode="d" horiz-adv-x="1351" 
d="M580 -2q-137 1 -239.5 70.5t-147.5 186.5t-21 255q24 139 110.5 257t213.5 187.5t264 69.5q147 0 262 -88l61 387q7 45 46.5 78t84.5 33q46 0 73 -32.5t20 -78.5l-209 -1212q-9 -46 -47.5 -79.5t-83.5 -33.5q-39 0 -66 25.5t-29 62.5q-146 -88 -292 -88zM512 717
q-100 -86 -117 -207q-24 -119 43 -205q71 -84 180 -84t209 84q100 90 117 205q21 124 -43 207q-68 84 -180 84q-115 0 -209 -84z" />
    <glyph glyph-name="e" unicode="e" horiz-adv-x="1247" 
d="M573 0q-138 1 -239.5 70.5t-145 186.5t-18.5 255t111.5 255.5t213.5 187t265 69.5q202 0 317.5 -134.5t89.5 -340.5q0 -8 -2 -10v0q0 -11 -4 -19q-10 -36 -44.5 -59t-76.5 -23h-653q0 -81 45 -135q24 -36 75.5 -61.5t104.5 -30.5q62 -5 128.5 14.5t115.5 63.5
q22 21 45 29t39.5 6t32.5 -10t21.5 -12.5t9.5 -8.5q26 -29 23 -67.5t-32 -67.5q-92 -86 -188 -122t-234 -36zM725 829q-63 -3 -118.5 -25t-94 -55.5t-65 -68t-39.5 -68.5h579q-4 72 -72.5 139.5t-189.5 77.5z" />
    <glyph glyph-name="f" unicode="f" horiz-adv-x="741" 
d="M598 1194q-22 -22 -37 -104l-4 -29h59q47 0 75 -33.5t20 -79.5q-9 -47 -48 -80.5t-85 -33.5h-62l-127 -721q-7 -47 -46.5 -80t-86.5 -33q-46 0 -73.5 33t-18.5 80l127 721h-53q-47 0 -75 33.5t-20 80.5q9 46 48 79.5t85 33.5h54l6 29q19 118 74 200q29 44 76 78.5
t94 46.5q58 19 125 19q47 0 74.5 -33.5t19.5 -81.5q-9 -46 -48 -79.5t-85 -33.5q-42 0 -54 -6q-10 -4 -14 -6z" />
    <glyph glyph-name="g" unicode="g" horiz-adv-x="1351" 
d="M1137 504l-68 -381q-23 -135 -109.5 -249t-212 -180.5t-260.5 -66.5q-115 0 -208 49q-37 20 -44.5 63.5t19.5 84.5q28 41 73.5 56t82.5 -5q56 -29 116 -29q99 0 186.5 63.5t121.5 158.5q-142 -84 -283 -84q-101 0 -185.5 41.5t-140.5 113.5q-55 71 -76 166.5t-2 198.5
q38 214 207 364q80 72 179.5 114t199.5 42q151 0 262 -90q13 40 48 65t75 25q46 0 72.5 -32.5t17.5 -78.5l-71 -407v-2zM590 207q113 0 205 86q46 39 78 94t42 117l3 2q21 125 -48 211q-67 86 -174 86q-110 0 -209 -86q-98 -88 -118 -213q-23 -121 43 -211q67 -86 178 -86z
" />
    <glyph glyph-name="h" unicode="h" horiz-adv-x="1255" 
d="M961 2q-47 0 -75 33.5t-20 79.5l88 465q17 91 -36 155t-144 64q-90 0 -165.5 -64t-92.5 -155l-88 -465q-9 -46 -48 -79.5t-85 -33.5q-47 0 -74.5 33.5t-19.5 79.5l90 465l123 743q8 46 47 79.5t86 33.5t74.5 -33.5t19.5 -79.5l-55 -354q108 57 229 57t213 -59.5
t133.5 -162t20.5 -224.5l-88 -465q-9 -46 -48 -79.5t-85 -33.5z" />
    <glyph glyph-name="i" unicode="i" horiz-adv-x="575" 
d="M203 111l149 800q8 46 47 79.5t86 33.5q46 0 74 -33.5t19 -79.5l-148 -800q-8 -46 -47 -79.5t-86 -33.5t-74.5 33.5t-19.5 79.5zM635 1276q-8 -47 -47 -81t-86 -34q-46 0 -73.5 34t-18.5 81l6 43q9 46 48 79.5t85 33.5q47 0 74.5 -33.5t19.5 -79.5z" />
    <glyph glyph-name="j" unicode="j" horiz-adv-x="509" 
d="M637 1319l-8 -43q-8 -50 -48 -84.5t-89 -34.5q-46 0 -74 35t-21 84l9 43q8 47 47 81t88 34q47 0 75.5 -34.5t20.5 -80.5zM471 1024q47 0 74 -33t20 -82l-196 -1083q-17 -95 -97.5 -163.5t-175.5 -68.5q-48 0 -75.5 34t-18.5 83q7 47 47.5 81t87.5 34l197 1083q7 49 47 82
t90 33z" />
    <glyph glyph-name="k" unicode="k" horiz-adv-x="1146" 
d="M295 0q-46 0 -73.5 33.5t-18.5 79.5l213 1208q8 46 47 79.5t86 33.5q46 0 73.5 -33.5t18.5 -79.5l-125 -711l496 422q40 32 86.5 32t72.5 -32q28 -34 20 -81t-46 -79l-361 -307l246 -381q23 -35 10.5 -81.5t-53.5 -75.5q-37 -27 -78 -27q-53 0 -80 41l-235 365l-133 -115
l-33 -178q-8 -46 -47 -79.5t-86 -33.5z" />
    <glyph glyph-name="l" unicode="l" horiz-adv-x="509" 
d="M428 1319q9 47 48.5 80t86.5 33q46 0 72.5 -33t19.5 -80l-213 -1206q-8 -47 -47 -81t-86 -34q-46 0 -73.5 34t-20.5 81z" />
    <glyph glyph-name="m" unicode="m" horiz-adv-x="1947" 
d="M1141 598l-84 -483q-9 -46 -46.5 -78.5t-82.5 -32.5v0q-44 0 -70 32.5t-20 78.5l86 483v4q14 86 -37 146.5t-137 60.5q-85 0 -158 -62t-88 -149l-86 -483q-7 -46 -45 -78.5t-82 -32.5t-70.5 32.5t-17.5 78.5l84 483l55 317q9 46 46 77.5t83 31.5q32 0 55.5 -16.5
t32.5 -44.5q109 61 229 61q95 0 171 -37t124 -104q151 141 344 141q177 0 279.5 -124.5t71.5 -301.5l-86 -483q-6 -45 -44 -78t-83 -33q-44 0 -70.5 32.5t-17.5 78.5l84 483q15 88 -35 149.5t-137 61.5q-86 0 -157.5 -60.5t-88.5 -146.5q0 -2 -2 -4z" />
    <glyph glyph-name="n" unicode="n" horiz-adv-x="1255" 
d="M840 113l86 483q15 88 -35.5 149.5t-138.5 61.5t-160.5 -61.5t-85.5 -149.5l-88 -483q-6 -45 -44 -78t-83 -33v0q-44 0 -70.5 32.5t-19.5 78.5l86 483l55 319q9 44 47 76.5t82 32.5q32 0 55.5 -17t30.5 -46q111 63 231 63q179 0 282 -125t71 -303l-86 -483
q-6 -45 -43 -78t-82 -33t-71.5 32.5t-18.5 78.5z" />
    <glyph glyph-name="o" unicode="o" horiz-adv-x="1280" 
d="M748 1024q100 0 182.5 -41t140.5 -113q113 -152 76 -360q-38 -212 -205 -360q-78 -72 -176 -113t-199 -41q-100 0 -183 41t-140 113q-113 149 -76 360q37 207 203 360q81 71 179 112.5t198 41.5zM930 510q22 127 -47 209q-61 86 -172 86q-112 0 -207 -86
q-95 -85 -119 -209q-21 -128 45 -211q67 -86 174 -86q108 0 207 86q95 85 119 211z" />
    <glyph glyph-name="p" unicode="p" horiz-adv-x="1351" 
d="M930 1024q103 0 189 -41t140 -110.5t76 -164t4 -198.5q-24 -138 -111.5 -256.5t-214.5 -188.5t-263 -71q-155 3 -263 88l-61 -358q-9 -46 -48 -79.5t-85 -33.5t-73 33.5t-19 79.5l211 1187q7 47 46 80t85 33q39 0 64.5 -24.5t27.5 -61.5q146 86 295 86zM997 305
q101 81 119 205q21 125 -45 207q-71 84 -178 84q-113 0 -213 -84q-98 -91 -115 -207q-25 -119 43 -205q70 -86 180 -86t209 86z" />
    <glyph glyph-name="q" unicode="q" horiz-adv-x="1351" 
d="M1167 512v-2l-139 -780q-8 -46 -46 -79.5t-85 -33.5q-45 0 -72 34t-18 79l63 354q-138 -83 -290 -86q-137 1 -239.5 70.5t-147.5 186.5t-21 255q24 139 110.5 257t213.5 186.5t264 68.5q153 0 262 -86q15 38 50 62t75 24q45 0 72 -32t18 -79zM825 305q98 85 119 205v2
q21 122 -45 205q-65 84 -180 84q-110 0 -207 -84q-98 -85 -119 -207q-21 -120 45 -205q71 -84 180 -84q110 0 207 84z" />
    <glyph glyph-name="r" unicode="r" horiz-adv-x="899" 
d="M471 1024q45 0 71.5 -32t18.5 -77l-4 -14q27 21 57 39q130 84 271 84q45 0 71.5 -32t18.5 -77q-9 -45 -46 -77.5t-81 -32.5q-65 0 -131 -37q-50 -28 -113 -98q-80 -92 -117 -174l-67 -387q-7 -44 -46 -76.5t-83 -32.5t-71 32.5t-19 76.5l143 806q6 44 44 76.5t83 32.5z
" />
    <glyph glyph-name="s" unicode="s" horiz-adv-x="1007" 
d="M145 143q-30 30 -26.5 73t37.5 77q35 37 81.5 41t77.5 -27q34 -35 91 -61t112 -25q83 0 148 37q44 32 51 59q0 15 -2 23q-8 12 -23 27q-57 36 -157 55v0h-3q-108 21 -170 53q-84 53 -114 121q-23 62 -15 127q13 65 56.5 123.5t103.5 99.5q127 78 264 78q50 0 94.5 -10.5
t82.5 -31.5t59 -35t51 -38v0q34 -23 35 -67.5t-31 -81.5q-29 -37 -75 -46.5t-78 15.5q-52 39 -90.5 58.5t-83.5 19.5q-80 0 -129 -39q-35 -20 -41 -45v-16q6 -11 20 -21q35 -32 137 -47l2 -2h2q112 -20 181 -59q89 -47 122 -123q27 -61 15 -138q-13 -69 -59 -130t-109 -103
q-132 -82 -281 -82q-193 2 -336 141z" />
    <glyph glyph-name="t" unicode="t" horiz-adv-x="819" 
d="M469 1436q47 0 74.5 -33.5t19.5 -79.5l-45 -299h53q46 0 74 -34t19 -81q-8 -46 -47.5 -79t-86.5 -33h-53l-106 -568q47 0 74.5 -33.5t19.5 -80.5q-9 -46 -48 -79.5t-85 -33.5q-95 0 -150.5 66.5t-38.5 160.5l109 568h-62q-46 0 -73.5 33t-18.5 79q8 47 47 81t86 34h60
l45 299q9 46 48 79.5t85 33.5z" />
    <glyph glyph-name="u" unicode="u" horiz-adv-x="1255" 
d="M1063 1024q46 0 71.5 -31.5t16.5 -77.5l-84 -485q-31 -177 -178 -302.5t-324 -125.5q-178 0 -281 125.5t-71 302.5l84 485q9 46 46 77.5t81 31.5q46 0 72 -31.5t18 -77.5l-86 -485q-15 -86 36.5 -147.5t137.5 -61.5q88 0 160.5 61.5t87.5 147.5l86 485q7 45 44.5 77
t82.5 32z" />
    <glyph glyph-name="v" unicode="v" horiz-adv-x="1191" 
d="M961 1004q37 -19 46.5 -59.5t-16.5 -82.5l-475 -799q-2 -4 -10 -16q-1 0 -2 -1t-2 -1q-2 -2 -5 -6t-5 -6q-1 0 -2.5 -1t-2.5 -1q-8 -8 -14 -11q-2 -2 -4 -2q-12 -8 -18 -10h-2l-3 -2q-12 -4 -16 -4l-4 -2q-3 0 -9 -1t-9 -1h-2v0q-3 0 -9.5 1t-9.5 1l-4 2q-4 0 -16 4l-2 2
q-7 2 -15 10q-2 0 -2 2q-2 1 -12 11l-2 2q-4 4 -8 12l-2 2q-2 6 -7 16l-194 799q-10 41 13.5 82t68.5 60q44 17 83 0t48 -58l139 -561l334 561q25 41 69.5 58t82.5 0z" />
    <glyph glyph-name="w" unicode="w" horiz-adv-x="1763" 
d="M1456 999q38 -15 48 -56.5t-15 -82.5l-473 -790q-10 -15 -12 -17v-4q-2 -2 -6.5 -6t-6.5 -6l-4 -4q-9 -3 -14 -8q-1 0 -2 -1t-2 -1q-3 -2 -9.5 -5.5t-9.5 -5.5q-2 0 -4 -2q-6 0 -14 -4h-6q-6 -2 -21 -2v0v0q-10 0 -16 2h-6q-8 4 -15 4l-2 2h-2q-9 6 -14 11q-1 0 -2 1
t-2 1q-3 5 -8 8l-4 4q-1 2 -3.5 6t-3.5 6q-2 2 -2 4q-1 2 -6 17l-86 350l-211 -350q0 -10 -10 -17q0 -2 -2 -4l-12 -12l-4 -4q-14 -7 -15 -8q-2 -2 -4 -2q-3 -2 -8 -5.5t-8 -5.5h-2q-2 0 -2 -2q-9 0 -17 -4h-6q-6 -2 -18 -2v0v0q-13 0 -19 2h-6q-8 4 -12 4q-2 2 -4 2h-2
q-1 1 -6.5 5t-6.5 6q-1 0 -2 1t-2 1q-2 4 -10 8q0 1 -1 2t-1 2q-4 4 -8 12q0 1 -1 2t-1 2q-1 2 -6 17l-193 790q-10 41 13.5 82.5t66.5 56.5q44 18 83 1.5t48 -56.5l137 -557l205 344q20 32 51 50t62 16q34 2 58.5 -16t31.5 -50l84 -344l334 557q25 40 68.5 56.5t80.5 -1.5z
" />
    <glyph glyph-name="x" unicode="x" horiz-adv-x="1167" 
d="M1055 989q32 -26 31 -70t-33 -81l-303 -332l184 -334q20 -35 6 -79t-55 -70q-34 -21 -68 -21q-53 0 -80 43l-153 279l-250 -279q-43 -43 -96 -43q-36 0 -60 21q-31 26 -30.5 70t32.5 79l303 334l-184 332q-20 37 -5.5 81t54.5 70t83 19.5t65 -43.5l153 -277l254 277
q31 37 76 43.5t76 -19.5z" />
    <glyph glyph-name="y" unicode="y" horiz-adv-x="1204" 
d="M1100 915l-29 -157l-110 -631q-23 -134 -109 -247.5t-211.5 -180t-259.5 -66.5q-116 0 -209 52q-37 20 -44 63t19 84q28 40 74.5 54.5t83.5 -5.5q54 -26 115 -26q89 0 169.5 51.5t121.5 134.5q-98 -49 -207 -49q-117 0 -206.5 58t-130 157.5t-20.5 216.5l86 491
q9 46 47 77.5t82 31.5q46 0 73 -31.5t20 -77.5l-88 -491q-15 -88 36 -150.5t140 -62.5t162 62.5t90 150.5l84 491q7 34 28 58q44 51 101 51q39 0 59 -20q43 -29 33 -89z" />
    <glyph glyph-name="z" unicode="z" horiz-adv-x="1134" 
d="M844 217q45 0 71.5 -33t18.5 -78q-7 -44 -45 -76t-82 -32h-590q-14 0 -20 2q-5 0 -7 2q-4 0 -12 4q-2 2 -4 2q-2 1 -5 3t-5 3l-4 4h-2q-1 1 -3 3.5t-3 3.5q-6 6 -7 8q-1 1 -3 4t-3 4q-4 4 -4 8q-4 4 -4 8q-1 1 -2 5t-2 6v8q0 2 -1 6t-1 6t1 5.5t1 4.5v8v3q1 2 2 6t2 6
t2 5t2 5q0 2 4 10q1 2 3 5.5t3 5.5q0 6 7 6q4 8 8 10v2l573 633h-373q-45 0 -71.5 32.5t-18.5 77.5q7 45 44.5 77t82.5 32h590h2q8 0 12 -2h11q1 -1 4 -2t4 -2q4 0 8 -4q4 0 8 -4q1 -1 5 -2t6 -2q1 -1 3 -3.5t3 -3.5q4 -4 6 -8q1 -1 3 -4t3 -4q4 -4 4 -8q4 -8 4 -10
q2 -2 2 -9q2 -4 2 -12q0 -1 1 -4.5t1 -5.5t-1 -6t-1 -6v-7v-2q-4 -8 -4 -12q-2 -2 -2 -8q-4 -8 -6 -10q-5 -10 -6 -11q-1 -2 -3 -5t-3 -5q-1 -1 -3 -4t-3 -4l-3 -2l-573 -633h373z" />
    <glyph glyph-name="braceleft" unicode="{" horiz-adv-x="983" 
d="M666 -303q-113 26 -186 63.5t-108.5 86t-44 110.5t6.5 137q2 18 14 77t14 71q20 114 -15 166t-138 55q-47 3 -70.5 30t-15.5 68q8 42 40 68.5t81 29.5q105 4 159 56.5t74 167.5q8 48 21 147q14 78 42.5 136.5t82 109t139 87t207.5 62.5q50 10 78 -14.5t20 -69.5
q-5 -34 -26.5 -55.5t-45.5 -28.5q-78 -23 -127 -47t-79 -56.5t-44 -68t-24 -92.5q-19 -128 -23 -151q-21 -116 -85.5 -181.5t-176.5 -99.5q102 -36 143.5 -100.5t20.5 -179.5q-3 -15 -15.5 -72t-15.5 -80q-14 -69 -6 -117t51 -82.5t136 -64.5q21 -7 34.5 -29t8.5 -55
q-8 -44 -45.5 -69t-81.5 -15z" />
    <glyph glyph-name="bar" unicode="|" horiz-adv-x="585" 
d="M258 -174l305 1720q7 41 43 70t76 29q41 0 64.5 -29t15.5 -70l-307 -1720q-7 -41 -43 -69.5t-78 -28.5q-39 0 -61 28.5t-15 69.5z" />
    <glyph glyph-name="braceright" unicode="}" horiz-adv-x="983" 
d="M520 1425q113 -26 186 -63.5t108.5 -86t44 -110.5t-6.5 -137q-2 -17 -14.5 -75t-14.5 -72q-20 -114 15.5 -166.5t138.5 -55.5q47 -3 70.5 -30t15.5 -68q-8 -42 -40 -68.5t-81 -29.5q-105 -4 -159 -56t-74 -167q-8 -45 -21 -148q-14 -78 -42.5 -136.5t-82 -109t-139 -87
t-207.5 -62.5q-50 -10 -78 14.5t-20 69.5q5 34 26 55.5t45 28.5q78 23 127.5 47t79.5 56.5t44 68.5t24 92q2 13 6 45.5t8 60t8 46.5q21 115 86 180.5t177 99.5q-102 35 -143.5 100.5t-20.5 180.5q3 14 15 70.5t15 80.5q14 69 6.5 117t-50.5 82.5t-136 64.5q-21 7 -34.5 29
t-8.5 55q8 44 45.5 69t81.5 15z" />
    <glyph glyph-name="asciitilde" unicode="~" horiz-adv-x="942" 
d="M315 506q-21 -41 -65 -41q-31 0 -53.5 21t-22.5 49q0 29 8 45q34 95 81.5 140.5t127.5 45.5q62 0 162 -40t131 -40q35 0 55.5 14.5t40.5 49.5q22 43 66 43q30 0 53 -21.5t23 -48.5q0 -26 -9 -47q-34 -95 -81.5 -141t-126.5 -46q-62 0 -162 41t-131 41q-35 0 -56 -15
t-41 -50z" />
    <glyph glyph-name="exclamdown" unicode="&#xa1;" horiz-adv-x="516" 
d="M297 2q-47 0 -75 34t-19 81l133 757q9 47 48.5 81t86.5 34q46 0 73.5 -34t18.5 -81l-133 -757q-7 -47 -47 -81t-86 -34zM502 1165q-47 0 -74.5 33.5t-19.5 79.5l8 45q8 46 47 79.5t86 33.5t74.5 -33.5t19.5 -79.5l-8 -45q-7 -46 -47 -79.5t-86 -33.5z" />
    <glyph glyph-name="cent" unicode="&#xa2;" horiz-adv-x="1189" 
d="M840 285q41 28 85 21.5t70 -44.5q19 -34 4.5 -78t-55.5 -75q-168 -111 -350 -111q-88 0 -170 29l-66 -111q-20 -32 -51.5 -50t-64.5 -18q-24 0 -39 9q-41 17 -52 60.5t15 86.5l84 141q-63 73 -89.5 169.5t-6.5 203.5q25 143 118 263.5t227.5 190t278.5 70.5h8l93 156
q26 43 72 60t87 -1q38 -17 48 -60.5t-15 -84.5l-74 -121q56 -29 93 -63q30 -29 27.5 -74t-32.5 -80q-40 -38 -85 -43.5t-76 23.5q-11 10 -47 32l-330 -555q37 -12 86 -12q107 0 207 66zM375 518q-14 -73 12 -143l256 430q-100 -29 -175.5 -109t-92.5 -178z" />
    <glyph glyph-name="sterling" unicode="&#xa3;" horiz-adv-x="1318" 
d="M143 88q5 32 26.5 56t57.5 34l109 31l63 360h-65q-44 0 -69.5 31.5t-16.5 75.5q6 43 43.5 74.5t81.5 31.5h65l33 189q41 228 191 356q146 127 366 127q244 0 369 -166q32 -40 24 -90q-9 -52 -51.5 -87.5t-95.5 -35.5q-54 0 -84 39q-41 54 -87.5 80.5t-113.5 26.5
q-89 0 -160 -58q-80 -71 -104 -198l-31 -183h414q42 0 68 -31.5t20 -74.5q-9 -44 -46.5 -75.5t-80.5 -31.5h-414l-61 -350h565q46 0 72.5 -32t19.5 -78q-9 -46 -47 -77.5t-84 -31.5h-897q-42 0 -64 25.5t-16 62.5z" />
    <glyph glyph-name="yen" unicode="&#xa5;" horiz-adv-x="1404" 
d="M807 545l-27 -150h316q37 0 58 -27t15 -65q-6 -37 -37.5 -63.5t-68.5 -26.5h-315l-17 -98q-9 -51 -50.5 -86t-92.5 -35t-79.5 35t-19.5 86l17 98h-316q-37 0 -58 26.5t-15 63.5q6 38 37.5 65t68.5 27h316l26 150h-315q-37 0 -59 26.5t-15 63.5q6 38 37 65t68 27h243
l-284 516q-23 41 -17 86q9 48 52 83.5t96 35.5q69 0 106 -70l264 -534l455 532q64 72 129 72q51 0 79.5 -32t18.5 -85q-8 -48 -45 -88l-473 -516h248q37 0 59.5 -27t16.5 -65q-8 -37 -39 -63.5t-68 -26.5h-315z" />
    <glyph glyph-name="dieresis" unicode="&#xa8;" 
d="M842 1475q56 0 86 -36t20 -91l-2 -15q-12 -55 -58 -90t-102 -35q-58 0 -89 35t-19 90l2 15q10 55 57 91t105 36zM434 1475q56 0 86.5 -36t20.5 -91l-2 -15q-12 -55 -58 -90t-102 -35q-58 0 -89.5 35t-19.5 90l2 15q10 55 57 91t105 36z" />
    <glyph glyph-name="copyright" unicode="&#xa9;" horiz-adv-x="1699" 
d="M848 -25q-153 0 -290.5 59t-235.5 158.5t-155.5 235.5t-57.5 285v4q0 149 58 285.5t157 236.5t237 159.5t291 59.5t290.5 -59t235.5 -158t155.5 -235t57.5 -285v-4q0 -149 -58 -285.5t-157 -237t-237 -160t-291 -59.5zM848 49q186 0 339 90t239.5 243t86.5 335v4
q0 181 -86 333t-238 241t-337 89q-186 0 -339.5 -90t-240 -242.5t-86.5 -334.5v-4q0 -181 86 -333.5t238.5 -241.5t337.5 -89zM858 326q-168 0 -280.5 115t-112.5 282v4q0 167 113 284t284 117q88 0 150 -22.5t116 -65.5q33 -22 33 -61q0 -32 -21.5 -54t-52.5 -22
q-21 0 -49 21q-83 65 -176 65q-103 0 -172 -76t-69 -184v-4q0 -107 69 -183.5t172 -76.5q102 0 189 74q23 18 45 18q29 0 50 -21.5t21 -50.5q0 -33 -22 -51q-62 -54 -128 -81t-159 -27z" />
    <glyph glyph-name="guillemotleft" unicode="&#xab;" horiz-adv-x="1054" 
d="M932 86q-56 0 -80 43l-203 340q-23 41 -16 72q5 33 43 71l317 334q46 49 101 49q42 0 66 -30t16 -72q-6 -38 -41 -70l-265 -280l166 -287q22 -32 17 -68q-9 -43 -43.5 -72.5t-77.5 -29.5zM416 86q-56 0 -80 43l-203 340q-21 38 -14 72q5 35 41 71l317 334q49 49 103 49
q41 0 64 -30t15 -72q-6 -38 -38 -70l-267 -280l168 -287q21 -30 15 -68q-7 -43 -42.5 -72.5t-78.5 -29.5z" />
    <glyph glyph-name="registered" unicode="&#xae;" horiz-adv-x="851" 
d="M426 737q-150 0 -253 105t-103 252v2q0 147 104 252.5t252 105.5q150 0 253 -104.5t103 -251.5v-2q0 -147 -104 -253t-252 -106zM426 776q132 0 223.5 94t91.5 226v2q0 132 -90.5 224.5t-224.5 92.5q-132 0 -223.5 -93.5t-91.5 -225.5v-2q0 -132 90.5 -225t224.5 -93z
M563 948q16 -3 23 -20q4 -12 -2.5 -24t-20.5 -17q-1 0 -5 -1t-7 -1q-13 0 -25 6q-11 5 -18 20q-12 27 -12 74q-3 16 -9 25t-18 18q-9 6 -33 14h-69v-131q0 -13 -10.5 -22.5t-24.5 -9.5t-23.5 9.5t-9.5 22.5v355q0 13 9.5 22.5t23.5 9.5v0h108q53 0 90 -37.5t37 -91.5
q0 -57 -47 -98q18 -13 23 -22q18 -29 18 -64q0 -10 1 -22.5t1 -14.5zM440 1108q25 0 43.5 18t18.5 43q0 26 -18.5 44t-43.5 18h-73v-123h73z" />
    <glyph glyph-name="degree" unicode="&#xb0;" horiz-adv-x="921" 
d="M494 780q-136 0 -239 99.5t-103 232.5v4q0 133 103 231.5t239 98.5q134 0 237 -98.5t103 -231.5v-4q0 -133 -103 -232.5t-237 -99.5zM494 915q82 0 137 58.5t55 138.5v4q0 80 -55 137.5t-137 57.5q-83 0 -139 -57.5t-56 -137.5v-4q0 -80 56 -138.5t139 -58.5z" />
    <glyph glyph-name="acute" unicode="&#xb4;" 
d="M473 1208q-27 0 -44 11.5t-17 31.5q0 21 16 45l117 181q37 59 98 59q51 0 99.5 -25.5t48.5 -54.5q0 -30 -35 -61l-138 -131q-35 -32 -67.5 -44t-77.5 -12z" />
    <glyph glyph-name="cedilla" unicode="&#xb8;" 
d="M696 20l-125 -288q-13 -31 -30.5 -45.5t-48.5 -14.5q-40 0 -92 30t-52 60q0 24 17 48l145 210h186z" />
    <glyph glyph-name="guillemotright" unicode="&#xbb;" horiz-adv-x="1054" 
d="M391 995q56 0 80 -43l203 -340q23 -41 16 -71q-5 -34 -43 -72l-317 -334q-46 -49 -101 -49q-42 0 -66 30t-16 72q6 38 41 70l265 281l-166 286q-22 32 -17 68q9 43 43.5 72.5t77.5 29.5zM907 995q56 0 80 -43l203 -340q21 -38 14 -71q-5 -36 -41 -72l-317 -334
q-49 -49 -103 -49q-41 0 -64 30t-15 72q6 38 38 70l267 281l-168 286q-21 30 -15 68q7 43 42.5 72.5t78.5 29.5z" />
    <glyph glyph-name="questiondown" unicode="&#xbf;" horiz-adv-x="1093" 
d="M731 1180q-43 0 -68 31t-18 75l6 39q8 44 44.5 75.5t80.5 31.5q43 0 68 -31.5t18 -75.5l-6 -39q-7 -44 -44 -75t-81 -31zM524 -2q-123 0 -216.5 60.5t-135.5 165t-20 227.5q27 160 146.5 282t276.5 158l27 141q7 44 43.5 74.5t79.5 30.5t68 -30.5t18 -74.5l-39 -225
q0 -1 -1 -2t-1 -2v-4q-8 -43 -44 -74t-79 -31q-101 0 -184.5 -71t-102.5 -172q-17 -100 42 -171t159 -71q67 0 128.5 32.5t103.5 88.5q30 37 72.5 48.5t76.5 -11.5q35 -21 38.5 -63.5t-24.5 -80.5q-78 -103 -193.5 -164t-238.5 -61z" />
    <glyph glyph-name="Agrave" unicode="&#xc0;" horiz-adv-x="1617" 
d="M492 338l-148 -264q-19 -34 -51.5 -54t-67.5 -20q-21 0 -39 6q-40 17 -51.5 60.5t12.5 87.5l666 1206q18 34 51.5 54t69.5 20t62.5 -19.5t33.5 -54.5l240 -1206q9 -44 -18 -87.5t-74 -60.5q-21 -6 -41 -6q-34 0 -60.5 20.5t-32.5 53.5l-53 264h-499zM616 563h330l-88 441
zM1128 1618q-46 0 -77.5 11.5t-65.5 43.5l-139 131q-35 31 -35 62q0 29 48.5 54.5t98.5 25.5q62 0 99 -60l117 -180q18 -27 18 -45q0 -20 -18 -31.5t-46 -11.5z" />
    <glyph glyph-name="Aacute" unicode="&#xc1;" horiz-adv-x="1323" 
d="M489 338l-147 -264q-19 -34 -51.5 -54t-67.5 -20q-21 0 -39 6q-40 17 -51.5 60.5t12.5 87.5l666 1206q18 34 51.5 54t69.5 20t62.5 -19.5t33.5 -54.5l240 -1206q9 -44 -18 -87.5t-74 -60.5q-21 -6 -41 -6q-34 0 -60.5 20.5t-32.5 53.5l-53 264h-500zM614 563h330l-88 441
zM797 1618q-27 0 -44 11.5t-17 31.5q0 21 16 45l117 181q37 59 98 59q51 0 99.5 -25.5t48.5 -54.5q0 -30 -35 -61l-138 -131q-35 -32 -67.5 -44t-77.5 -12z" />
    <glyph glyph-name="Acircumflex" unicode="&#xc2;" horiz-adv-x="1617" 
d="M492 338l-148 -264q-19 -34 -51.5 -54t-67.5 -20q-21 0 -39 6q-40 17 -51.5 60.5t12.5 87.5l666 1206q18 34 51.5 54t69.5 20t62.5 -19.5t33.5 -54.5l240 -1206q9 -44 -18 -87.5t-74 -60.5q-21 -6 -41 -6q-34 0 -60.5 20.5t-32.5 53.5l-53 264h-499zM616 563h330l-88 441
zM1044 1765l-135 -92q-47 -32 -84.5 -43.5t-83.5 -11.5q-24 0 -36.5 10.5t-6.5 30.5q4 14 39 49l187 170q65 59 137 59h74q41 0 63 -14.5t37 -44.5l84 -170q15 -31 10 -49q-6 -19 -26 -30t-46 -11q-45 0 -74.5 11.5t-60.5 43.5z" />
    <glyph glyph-name="Atilde" unicode="&#xc3;" horiz-adv-x="1617" 
d="M492 338l-148 -264q-19 -34 -51.5 -54t-67.5 -20q-21 0 -39 6q-40 17 -51.5 60.5t12.5 87.5l666 1206q18 34 51.5 54t69.5 20t62.5 -19.5t33.5 -54.5l240 -1206q9 -44 -18 -87.5t-74 -60.5q-21 -6 -41 -6q-34 0 -60.5 20.5t-32.5 53.5l-53 264h-499zM616 563h330l-88 441
zM817 1645q-25 -41 -67 -41q-31 0 -53.5 20.5t-22.5 46.5q0 19 8 47q34 94 82.5 140.5t126.5 46.5q61 0 162 -41t133 -41q34 0 54 15t40 50q25 41 68 41q30 0 52.5 -20t22.5 -47q0 -19 -8 -47q-34 -94 -82.5 -140.5t-126.5 -46.5q-61 0 -162 41t-133 41q-34 0 -54 -15
t-40 -50z" />
    <glyph glyph-name="Adieresis" unicode="&#xc4;" horiz-adv-x="1617" 
d="M492 338l-148 -264q-19 -34 -51.5 -54t-67.5 -20q-21 0 -39 6q-40 17 -51.5 60.5t12.5 87.5l666 1206q18 34 51.5 54t69.5 20t62.5 -19.5t33.5 -54.5l240 -1206q9 -44 -18 -87.5t-74 -60.5q-21 -6 -41 -6q-34 0 -60.5 20.5t-32.5 53.5l-53 264h-499zM616 563h330l-88 441
zM1243 1884q56 0 86.5 -36t20.5 -91l-2 -14q-12 -55 -58 -90t-102 -35q-58 0 -89.5 35t-19.5 90l2 14q10 55 57 91t105 36zM836 1884q56 0 86 -36t20 -91l-2 -14q-12 -55 -58 -90t-102 -35q-58 0 -89 35t-19 90l2 14q10 55 57 91t105 36z" />
    <glyph glyph-name="Aring" unicode="&#xc5;" horiz-adv-x="1617" 
d="M653 563h332l-88 441zM1083 72l-55 266h-498l-145 -266q-20 -33 -53.5 -52.5t-67.5 -19.5q-19 0 -37 6q-41 17 -53 60.5t12 87.5l623 1132q-51 34 -75.5 91t-14.5 122l2 4q19 102 111 177t196 75t170 -75t47 -177l-2 -4q-10 -64 -54.5 -120t-107.5 -91l228 -1134
q8 -44 -20 -87.5t-75 -60.5q-15 -6 -40 -6q-34 0 -59.5 19.5t-31.5 52.5zM965 1403q41 0 74.5 28t39.5 68l2 4q6 40 -17.5 68t-64.5 28t-74.5 -28t-39.5 -68l-2 -4q-6 -40 17.5 -68t64.5 -28z" />
    <glyph glyph-name="AE" unicode="&#xc6;" horiz-adv-x="2140" 
d="M82 117q7 41 33 71l899 1182q62 88 162 88h985q46 0 73.5 -33t18.5 -79q-7 -47 -46 -80t-85 -33h-664l-65 -373h571q46 0 73 -34t19 -81q-7 -45 -47 -77.5t-86 -32.5h-571l-68 -385h674q46 0 73.5 -33.5t18.5 -79.5q-7 -47 -46 -79.5t-85 -32.5h-799q-54 0 -83.5 36.5
t-20.5 90.5l39 219h-541l-217 -289q-54 -70 -123 -70q-46 0 -72.5 30.5t-19.5 74.5zM682 594h412l112 645h-41z" />
    <glyph glyph-name="Ccedilla" unicode="&#xc7;" horiz-adv-x="1511" 
d="M827 0q-149 0 -274.5 56.5t-207.5 152t-117 228.5t-9 280q27 146 108.5 279t197 229t260.5 152.5t294 56.5q259 0 428 -156q32 -29 29.5 -76t-37.5 -84t-82.5 -42t-79.5 24q-122 106 -299 106q-103 0 -202.5 -38t-180.5 -105q-83 -69 -137.5 -157.5t-71.5 -188.5
q-37 -200 86 -346q58 -68 144.5 -106t189.5 -38q182 0 336 107q41 29 87 22.5t69 -43.5q22 -37 8 -83t-57 -74q-224 -156 -482 -156zM948 20l-125 -288q-13 -31 -31 -45.5t-49 -14.5q-40 0 -91.5 30t-51.5 60q0 26 16 48l146 210h186z" />
    <glyph glyph-name="Egrave" unicode="&#xc8;" horiz-adv-x="1372" 
d="M317 -4q-47 0 -74.5 33.5t-19.5 79.5l213 1208q8 46 47 79.5t86 33.5h2h2h664q47 0 74.5 -33.5t19.5 -79.5q-9 -47 -48 -81t-85 -34h-555l-68 -377h480q46 0 73.5 -32.5t18.5 -79.5q-7 -47 -46.5 -80t-86.5 -33h-477l-68 -377h555q47 0 74.5 -33.5t19.5 -80.5
q-9 -46 -48 -79.5t-85 -33.5h-666h-2zM1014 1618q-46 0 -78 11.5t-66 43.5l-139 131q-35 31 -35 62q0 29 48.5 54.5t99.5 25.5q61 0 98 -60l117 -180q18 -27 18 -45q0 -20 -17.5 -31.5t-45.5 -11.5z" />
    <glyph glyph-name="Eacute" unicode="&#xc9;" horiz-adv-x="1372" 
d="M317 -4q-47 0 -74.5 33.5t-19.5 79.5l213 1208q8 46 47 79.5t86 33.5h2h2h664q47 0 74.5 -33.5t19.5 -79.5q-9 -47 -48 -81t-85 -34h-555l-68 -377h480q46 0 73.5 -32.5t18.5 -79.5q-7 -47 -46.5 -80t-86.5 -33h-477l-68 -377h555q47 0 74.5 -33.5t19.5 -80.5
q-9 -46 -48 -79.5t-85 -33.5h-666h-2zM840 1618q-27 0 -44.5 11.5t-17.5 31.5q0 19 17 45l116 180q37 60 99 60q50 0 98.5 -25.5t48.5 -54.5q0 -30 -35 -62l-137 -131q-35 -32 -67.5 -43.5t-77.5 -11.5z" />
    <glyph glyph-name="Ecircumflex" unicode="&#xca;" horiz-adv-x="1372" 
d="M317 -4q-47 0 -74.5 33.5t-19.5 79.5l213 1208q8 46 47 79.5t86 33.5h2h2h664q47 0 74.5 -33.5t19.5 -79.5q-9 -47 -48 -81t-85 -34h-555l-68 -377h480q46 0 73.5 -32.5t18.5 -79.5q-7 -47 -46.5 -80t-86.5 -33h-477l-68 -377h555q47 0 74.5 -33.5t19.5 -80.5
q-9 -46 -48 -79.5t-85 -33.5h-666h-2zM1034 1765l-135 -92q-47 -32 -84.5 -43.5t-83.5 -11.5q-24 0 -36.5 10.5t-6.5 30.5q4 14 39 49l186 170q65 59 138 59h73q41 0 64 -14.5t37 -44.5l84 -170q15 -31 10 -49q-6 -19 -26 -30t-46 -11q-45 0 -74.5 11.5t-60.5 43.5z" />
    <glyph glyph-name="Edieresis" unicode="&#xcb;" horiz-adv-x="1372" 
d="M317 -4q-47 0 -74.5 33.5t-19.5 79.5l213 1208q8 46 47 79.5t86 33.5h2h2h664q47 0 74.5 -33.5t19.5 -79.5q-9 -47 -48 -81t-85 -34h-555l-68 -377h480q46 0 73.5 -32.5t18.5 -79.5q-7 -47 -46.5 -80t-86.5 -33h-477l-68 -377h555q47 0 74.5 -33.5t19.5 -80.5
q-9 -46 -48 -79.5t-85 -33.5h-666h-2zM1206 1884q56 0 86.5 -36t20.5 -91l-2 -14q-12 -55 -58 -90t-102 -35q-58 0 -89.5 35t-19.5 90l2 14q10 55 57 91t105 36zM799 1884q56 0 86 -36t20 -91l-2 -14q-12 -55 -58 -90t-102 -35q-58 0 -89 35t-19 90l2 14q10 55 57 91t105 36
z" />
    <glyph glyph-name="Igrave" unicode="&#xcc;" horiz-adv-x="561" 
d="M268 111q-7 -46 -47 -79.5t-86 -33.5q-47 0 -74.5 33.5t-19.5 79.5l213 1208q9 46 48 79.5t85 33.5q47 0 74.5 -33.5t19.5 -79.5zM557 1618q-45 0 -77 11.5t-66 43.5l-140 131q-34 31 -34 62q0 29 48.5 54.5t98.5 25.5q61 0 98 -60l117 -180q19 -28 19 -45
q0 -20 -18 -31.5t-46 -11.5z" />
    <glyph glyph-name="Iacute" unicode="&#xcd;" horiz-adv-x="561" 
d="M465 111q-7 -46 -47 -79.5t-86 -33.5q-47 0 -74.5 33.5t-19.5 79.5l213 1208q9 46 48 79.5t85 33.5q47 0 74.5 -33.5t19.5 -79.5zM446 1618q-27 0 -44 11.5t-17 31.5q0 21 16 45l117 180q37 60 98 60q51 0 99.5 -25.5t48.5 -54.5q0 -30 -35 -62l-137 -131
q-35 -32 -67.5 -43.5t-78.5 -11.5z" />
    <glyph glyph-name="Icircumflex" unicode="&#xce;" horiz-adv-x="561" 
d="M303 111q-7 -46 -47 -79.5t-86 -33.5q-47 0 -74.5 33.5t-19.5 79.5l213 1208q9 46 48 79.5t85 33.5q47 0 74.5 -33.5t19.5 -79.5zM453 1765l-136 -92q-47 -32 -84 -43.5t-83 -11.5q-24 0 -37 11t-7 30q4 14 39 49l187 170q65 59 137 59h74q41 0 63 -14.5t37 -44.5
l84 -170q15 -31 10 -49q-6 -20 -25.5 -30.5t-45.5 -10.5q-45 0 -75 11.5t-61 43.5z" />
    <glyph glyph-name="Idieresis" unicode="&#xcf;" horiz-adv-x="561" 
d="M319 111q-7 -46 -47 -79.5t-86 -33.5q-47 0 -74.5 33.5t-19.5 79.5l213 1208q9 46 48 79.5t85 33.5q47 0 74.5 -33.5t19.5 -79.5zM737 1884q56 0 86.5 -36t20.5 -91l-2 -14q-12 -55 -58 -90t-102 -35q-58 0 -89.5 35t-19.5 90l2 14q10 55 57 91t105 36zM330 1884
q56 0 86 -36t20 -91l-2 -14q-12 -55 -58 -90t-102 -35q-58 0 -89 35t-19 90l2 14q10 55 57 91t105 36z" />
    <glyph glyph-name="Eth" unicode="&#xd0;" horiz-adv-x="1662" 
d="M760 1434q146 0 268.5 -56.5t201.5 -152.5t112.5 -229t7.5 -279q-26 -145 -106.5 -278t-193.5 -229t-256 -153t-288 -57h-240h-2q-46 0 -73.5 34t-18.5 81l94 534h-88q-31 0 -47 21.5t-8 52.5q6 31 32.5 52.5t57.5 21.5h78l92 524q9 47 48.5 80t86.5 33h242zM1122 717
q35 204 -82.5 346.5t-320.5 144.5h-129l-72 -411h76q30 0 45.5 -21.5t9.5 -52.5q-8 -31 -33.5 -52.5t-56.5 -21.5h-67l-74 -422h129q133 0 257 65.5t209.5 178.5t108.5 246z" />
    <glyph glyph-name="Ntilde" unicode="&#xd1;" horiz-adv-x="1617" 
d="M225 113l211 1202q10 61 66 96q41 28 86 20.5t65 -45.5l504 -925l150 854q9 46 48 79t85 33q47 0 74.5 -33t19.5 -79l-213 -1202q-7 -47 -46.5 -80t-86.5 -33q-53 0 -78 39q0 1 -3.5 5.5t-4.5 8.5l-500 918l-151 -858q-7 -47 -46.5 -80t-87.5 -33q-46 0 -73.5 33
t-18.5 80zM923 1645q-25 -41 -67 -41q-30 0 -53 20.5t-23 47.5q0 19 8 47q34 94 82.5 140t126.5 46q61 0 162 -41t133 -41q34 0 54 15t40 51q25 41 68 41q30 0 53 -20.5t23 -47.5q0 -16 -9 -47q-34 -94 -82 -140t-126 -46q-61 0 -162 40.5t-133 40.5q-34 0 -54.5 -15
t-40.5 -50z" />
    <glyph glyph-name="Ograve" unicode="&#xd2;" horiz-adv-x="1740" 
d="M739 -2q-140 0 -255.5 56.5t-190.5 156.5q-76 99 -105.5 229t-3.5 275q26 144 101.5 275t185.5 229q111 100 246.5 156.5t275.5 56.5q139 0 255 -56.5t192 -156.5q75 -98 103.5 -229t2.5 -275q-24 -145 -98.5 -275t-185.5 -229q-111 -100 -247 -156.5t-276 -56.5z
M608 1063q-158 -142 -196 -348q-37 -204 73 -350q107 -139 295 -142q186 3 344 142q160 147 197 350q37 204 -74 348q-52 67 -128 104t-167 37q-187 0 -344 -141zM1429 1618q-45 0 -77 12t-66 44l-139 131q-35 31 -35 61q0 29 48.5 54.5t98.5 25.5q62 0 99 -59l116 -181
q19 -28 19 -45q0 -20 -18 -31.5t-46 -11.5z" />
    <glyph glyph-name="Oacute" unicode="&#xd3;" horiz-adv-x="1740" 
d="M739 -2q-140 0 -255.5 56.5t-190.5 156.5q-76 99 -105.5 229t-3.5 275q26 144 101.5 275t185.5 229q111 100 246.5 156.5t275.5 56.5q139 0 255 -56.5t192 -156.5q75 -98 103.5 -229t2.5 -275q-24 -145 -98.5 -275t-185.5 -229q-111 -100 -247 -156.5t-276 -56.5z
M608 1063q-158 -142 -196 -348q-37 -204 73 -350q107 -139 295 -142q186 3 344 142q160 147 197 350q37 204 -74 348q-52 67 -128 104t-167 37q-187 0 -344 -141zM834 1618q-27 0 -44.5 11.5t-17.5 31.5q0 21 16 45l117 180q37 60 99 60q50 0 98.5 -25.5t48.5 -54.5
q0 -30 -35 -62l-137 -131q-35 -32 -67.5 -43.5t-77.5 -11.5z" />
    <glyph glyph-name="Ocircumflex" unicode="&#xd4;" horiz-adv-x="1740" 
d="M739 -2q-140 0 -255.5 56.5t-190.5 156.5q-76 99 -105.5 229t-3.5 275q26 144 101.5 275t185.5 229q111 100 246.5 156.5t275.5 56.5q139 0 255 -56.5t192 -156.5q75 -98 103.5 -229t2.5 -275q-24 -145 -98.5 -275t-185.5 -229q-111 -100 -247 -156.5t-276 -56.5z
M608 1063q-158 -142 -196 -348q-37 -204 73 -350q107 -139 295 -142q186 3 344 142q160 147 197 350q37 204 -74 348q-52 67 -128 104t-167 37q-187 0 -344 -141zM1196 1766l-135 -92q-82 -56 -168 -56q-24 0 -36.5 10.5t-6.5 30.5q4 14 39 49l186 170q66 60 137 60h74
q72 0 101 -60l84 -170q15 -31 10 -49q-6 -19 -26 -30t-46 -11q-45 0 -74.5 11.5t-60.5 44.5z" />
    <glyph glyph-name="Otilde" unicode="&#xd5;" horiz-adv-x="1740" 
d="M739 -2q-140 0 -255.5 56.5t-190.5 156.5q-76 99 -105.5 229t-3.5 275q26 144 101.5 275t185.5 229q111 100 246.5 156.5t275.5 56.5q139 0 255 -56.5t192 -156.5q75 -98 103.5 -229t2.5 -275q-24 -145 -98.5 -275t-185.5 -229q-111 -100 -247 -156.5t-276 -56.5z
M608 1063q-158 -142 -196 -348q-37 -204 73 -350q107 -139 295 -142q186 3 344 142q160 147 197 350q37 204 -74 348q-52 67 -128 104t-167 37q-187 0 -344 -141zM899 1645q-25 -41 -68 -41q-30 0 -52.5 20t-22.5 47q0 19 8 47q34 94 82.5 140.5t126.5 46.5q61 0 162 -41
t133 -41q34 0 54 15t40 50q25 41 68 41q30 0 52.5 -20t22.5 -47q0 -19 -8 -47q-34 -94 -82.5 -140.5t-126.5 -46.5q-61 0 -162 41t-133 41q-34 0 -54 -15t-40 -50z" />
    <glyph glyph-name="Odieresis" unicode="&#xd6;" horiz-adv-x="1740" 
d="M739 -2q-140 0 -255.5 56.5t-190.5 156.5q-76 99 -105.5 229t-3.5 275q26 144 101.5 275t185.5 229q111 100 246.5 156.5t275.5 56.5q139 0 255 -56.5t192 -156.5q75 -98 103.5 -229t2.5 -275q-24 -145 -98.5 -275t-185.5 -229q-111 -100 -247 -156.5t-276 -56.5z
M608 1063q-158 -142 -196 -348q-37 -204 73 -350q107 -139 295 -142q186 3 344 142q160 147 197 350q37 204 -74 348q-52 67 -128 104t-167 37q-187 0 -344 -141zM1395 1885q56 0 86 -36t20 -91l-2 -15q-12 -55 -58 -90t-102 -35q-58 0 -89 35t-19 90l2 15q10 55 57 91
t105 36zM987 1885q56 0 86.5 -36t20.5 -91l-2 -15q-12 -55 -58 -90t-102 -35q-58 0 -89.5 35t-19.5 90l2 15q10 55 57 91t105 36z" />
    <glyph glyph-name="multiply" unicode="&#xd7;" horiz-adv-x="1269" 
d="M1163 985l-301 -262l234 -262q30 -37 22 -82q-6 -46 -42.5 -78.5t-82.5 -32.5q-45 0 -78 33l-225 270l-299 -268q-38 -35 -86 -35q-44 0 -71 31.5t-21 75.5q6 49 47 82l301 262l-235 262q-28 40 -21 82q6 46 42.5 78.5t82.5 32.5q48 0 76 -35l227 -269l299 269
q38 35 84 35t73 -31.5t21 -77.5q-6 -47 -47 -80z" />
    <glyph glyph-name="Ugrave" unicode="&#xd9;" horiz-adv-x="1556" 
d="M1466 1434q47 0 75 -33t20 -80l-129 -729q-28 -160 -131 -296.5t-254 -216t-312 -79.5q-121 0 -222 47t-166 126.5t-92.5 189t-6.5 229.5l127 729q9 47 48.5 80t86.5 33q46 0 73.5 -33t18.5 -80l-129 -729q-26 -151 62 -258t239 -107q152 0 278 107t152 258l129 729
q7 47 47 80t86 33zM1122 1618q-46 0 -77.5 11.5t-65.5 43.5l-139 131q-35 31 -35 62q0 29 48.5 54.5t98.5 25.5q62 0 99 -60l116 -180q19 -29 19 -45q0 -20 -18 -31.5t-46 -11.5z" />
    <glyph glyph-name="Uacute" unicode="&#xda;" horiz-adv-x="1556" 
d="M1466 1434q47 0 75 -33t20 -80l-129 -729q-28 -160 -131 -296.5t-254 -216t-312 -79.5q-121 0 -222 47t-166 126.5t-92.5 189t-6.5 229.5l127 729q9 47 48.5 80t86.5 33q46 0 73.5 -33t18.5 -80l-129 -729q-26 -151 62 -258t239 -107q152 0 278 107t152 258l129 729
q7 47 47 80t86 33zM958 1618q-27 0 -44 11.5t-17 31.5q0 21 16 45l117 180q37 60 98 60q51 0 99.5 -25.5t48.5 -54.5q0 -30 -35 -62l-137 -131q-35 -32 -67.5 -43.5t-78.5 -11.5z" />
    <glyph glyph-name="Ucircumflex" unicode="&#xdb;" horiz-adv-x="1556" 
d="M1466 1434q47 0 75 -33t20 -80l-129 -729q-28 -160 -131 -296.5t-254 -216t-312 -79.5q-121 0 -222 47t-166 126.5t-92.5 189t-6.5 229.5l127 729q9 47 48.5 80t86.5 33q46 0 73.5 -33t18.5 -80l-129 -729q-26 -151 62 -258t239 -107q152 0 278 107t152 258l129 729
q7 47 47 80t86 33zM1141 1765l-135 -92q-47 -32 -84.5 -43.5t-83.5 -11.5q-24 0 -36.5 10.5t-6.5 30.5q4 14 39 49l186 170q65 59 137 59h74q41 0 63 -14.5t37 -44.5l84 -170q15 -31 10 -49q-6 -20 -25.5 -30.5t-45.5 -10.5q-45 0 -74.5 11.5t-60.5 43.5z" />
    <glyph glyph-name="Udieresis" unicode="&#xdc;" horiz-adv-x="1556" 
d="M1466 1434q47 0 75 -33t20 -80l-129 -729q-28 -160 -131 -296.5t-254 -216t-312 -79.5q-121 0 -222 47t-166 126.5t-92.5 189t-6.5 229.5l127 729q9 47 48.5 80t86.5 33q46 0 73.5 -33t18.5 -80l-129 -729q-26 -151 62 -258t239 -107q152 0 278 107t152 258l129 729
q7 47 47 80t86 33zM1298 1884q56 0 86.5 -36t20.5 -91l-2 -14q-12 -55 -58 -90t-102 -35q-58 0 -89 35t-19 90l2 14q10 55 56.5 91t104.5 36zM891 1884q56 0 86 -36t20 -91l-2 -14q-12 -55 -57.5 -90t-101.5 -35q-58 0 -89.5 35t-19.5 90l2 14q10 55 57 91t105 36z" />
    <glyph glyph-name="Yacute" unicode="&#xdd;" horiz-adv-x="1466" 
d="M1212 1251l-526 -579l-98 -561q-7 -46 -47 -79.5t-86 -33.5q-47 0 -75 33.5t-20 79.5l101 561l-322 579q-21 39 -6 84.5t57 73.5q43 28 88.5 20.5t67.5 -45.5l268 -483l439 483q34 38 81.5 45.5t79.5 -20.5q34 -28 33 -74t-35 -84zM766 1618q-27 0 -44 11.5t-17 31.5
q0 21 16 45l117 180q37 60 98 60q50 0 98.5 -25.5t48.5 -54.5q0 -31 -34 -62l-138 -131q-35 -32 -67.5 -43.5t-77.5 -11.5z" />
    <glyph glyph-name="germandbls" unicode="&#xdf;" horiz-adv-x="1269" 
d="M641 63q6 37 34 63.5t70 35.5q245 38 277 213v4q27 157 -197 217q-87 27 -71 109q11 68 71 102q208 105 234 258v4q17 89 -30.5 143t-141.5 54q-102 0 -178.5 -71.5t-96.5 -190.5l-163 -926q-9 -51 -51 -86t-95 -35q-51 0 -80 35t-20 86l162 917q38 222 192 352t379 130
q204 0 304.5 -109.5t70.5 -275.5v-5q-40 -223 -289 -350q60 -21 107.5 -51.5t85 -73.5t52 -104.5t1.5 -134.5v-4q-17 -96 -70 -174.5t-127.5 -128t-161 -76.5t-174.5 -29q-52 0 -77 28.5t-17 73.5z" />
    <glyph glyph-name="agrave" unicode="&#xe0;" horiz-adv-x="1175" 
d="M551 2q-99 0 -182.5 40.5t-137.5 111.5q-115 155 -75 358q34 207 200 360q79 70 177 110t198 40q146 0 256 -86q14 37 48 61.5t73 24.5q46 0 71.5 -31.5t16.5 -77.5l-139 -800q-9 -46 -46 -78.5t-81 -32.5q-40 0 -65 25t-27 63q-143 -88 -287 -88zM489 723
q-97 -88 -118 -211q-21 -124 45 -209q62 -84 174 -84q111 0 201 84q97 84 118 209q23 123 -45 211q-64 84 -172 84q-106 0 -203 -84zM1016 1208q-45 0 -77.5 12t-66.5 44l-139 131q-35 31 -35 61q0 29 48.5 54.5t99.5 25.5q61 0 98 -59l117 -181q18 -27 18 -45
q0 -20 -17.5 -31.5t-45.5 -11.5z" />
    <glyph glyph-name="aacute" unicode="&#xe1;" horiz-adv-x="1175" 
d="M551 2q-99 0 -182.5 40.5t-137.5 111.5q-115 155 -75 358q34 207 200 360q79 70 177 110t198 40q146 0 256 -86q14 37 48 61.5t73 24.5q46 0 71.5 -31.5t16.5 -77.5l-139 -800q-9 -46 -46 -78.5t-81 -32.5q-40 0 -65 25t-27 63q-143 -88 -287 -88zM489 723
q-97 -88 -118 -211q-21 -124 45 -209q62 -84 174 -84q111 0 201 84q97 84 118 209q23 123 -45 211q-64 84 -172 84q-106 0 -203 -84zM774 1208q-27 0 -44 11.5t-17 31.5q0 21 16 45l117 181q37 59 98 59q51 0 99.5 -25.5t48.5 -54.5q0 -30 -35 -61l-137 -131
q-35 -32 -68 -44t-78 -12z" />
    <glyph glyph-name="acircumflex" unicode="&#xe2;" horiz-adv-x="1175" 
d="M551 2q-99 0 -182.5 40.5t-137.5 111.5q-115 155 -75 358q34 207 200 360q79 70 177 110t198 40q146 0 256 -86q14 37 48 61.5t73 24.5q46 0 71.5 -31.5t16.5 -77.5l-139 -800q-9 -46 -46 -78.5t-81 -32.5q-40 0 -65 25t-27 63q-143 -88 -287 -88zM489 723
q-97 -88 -118 -211q-21 -124 45 -209q62 -84 174 -84q111 0 201 84q97 84 118 209q23 123 -45 211q-64 84 -172 84q-106 0 -203 -84zM1016 1356l-135 -92q-82 -56 -168 -56q-24 0 -36.5 10.5t-6.5 30.5q4 14 39 49l186 170q66 60 137 60h74q40 0 62.5 -15t37.5 -45l84 -170
q15 -31 10 -49q-6 -20 -25.5 -30.5t-45.5 -10.5q-45 0 -74.5 11.5t-60.5 44.5z" />
    <glyph glyph-name="atilde" unicode="&#xe3;" horiz-adv-x="1175" 
d="M551 2q-99 0 -182.5 40.5t-137.5 111.5q-115 155 -75 358q34 207 200 360q79 70 177 110t198 40q146 0 256 -86q14 37 48 61.5t73 24.5q46 0 71.5 -31.5t16.5 -77.5l-139 -800q-9 -46 -46 -78.5t-81 -32.5q-40 0 -65 25t-27 63q-143 -88 -287 -88zM489 723
q-97 -88 -118 -211q-21 -124 45 -209q62 -84 174 -84q111 0 201 84q97 84 118 209q23 123 -45 211q-64 84 -172 84q-106 0 -203 -84zM737 1235q-25 -41 -67 -41q-30 0 -53 20.5t-23 47.5q0 19 8 47q34 94 82.5 140t126.5 46q61 0 162 -41t133 -41q34 0 54 15t40 51
q25 41 68 41q30 0 52.5 -20.5t22.5 -47.5q0 -19 -8 -47q-34 -94 -82.5 -140t-126.5 -46q-61 0 -162 40.5t-133 40.5q-34 0 -54 -15t-40 -50z" />
    <glyph glyph-name="adieresis" unicode="&#xe4;" horiz-adv-x="1175" 
d="M551 2q-99 0 -182.5 40.5t-137.5 111.5q-115 155 -75 358q34 207 200 360q79 70 177 110t198 40q146 0 256 -86q14 37 48 61.5t73 24.5q46 0 71.5 -31.5t16.5 -77.5l-139 -800q-9 -46 -46 -78.5t-81 -32.5q-40 0 -65 25t-27 63q-143 -88 -287 -88zM489 723
q-97 -88 -118 -211q-21 -124 45 -209q62 -84 174 -84q111 0 201 84q97 84 118 209q23 123 -45 211q-64 84 -172 84q-106 0 -203 -84zM1270 1475q56 0 86 -36t20 -91l-2 -15q-12 -55 -58 -90t-102 -35q-58 0 -89 35t-19 90l2 15q10 55 57 91t105 36zM862 1475q56 0 86.5 -36
t20.5 -91l-2 -15q-12 -55 -58 -90t-102 -35q-58 0 -89.5 35t-19.5 90l2 15q10 55 57 91t105 36z" />
    <glyph glyph-name="aring" unicode="&#xe5;" horiz-adv-x="1175" 
d="M823 1167q-103 0 -169.5 75.5t-47.5 176.5v4q19 102 111 177t196 75t170 -75t47 -177v-4q-19 -101 -111.5 -176.5t-195.5 -75.5zM850 1323q41 0 75 28t42 68v4q8 40 -16.5 68.5t-65.5 28.5t-74 -28.5t-41 -68.5v-4q-8 -40 15.5 -68t64.5 -28zM526 2q-99 0 -182 40.5
t-137 111.5q-54 73 -75 165.5t-1 192.5q34 206 201 360q79 70 177 110t198 40q146 0 256 -86q14 37 47.5 61.5t72.5 24.5q46 0 71.5 -31.5t16.5 -77.5l-139 -800q-9 -46 -46 -78.5t-81 -32.5q-40 0 -65 25t-27 63q-143 -88 -287 -88zM465 723q-99 -89 -119 -211
q-21 -124 45 -209q62 -84 174 -84q111 0 201 84q98 85 119 209q23 123 -45 211q-64 84 -172 84q-106 0 -203 -84z" />
    <glyph glyph-name="ae" unicode="&#xe6;" horiz-adv-x="1953" 
d="M1354 0q-182 0 -299 117v-2q-9 -46 -47.5 -79.5t-83.5 -33.5q-41 0 -67 25.5t-28 64.5q-144 -90 -292 -90q-102 0 -187.5 42t-140.5 114q-55 74 -76.5 168.5t-1.5 197.5q38 216 207 369q81 72 181 113t202 41q149 0 262 -89q14 38 49 63.5t76 25.5q46 0 72.5 -32.5
t17.5 -78.5l-2 -12q162 120 348 120q205 0 323.5 -136.5t92.5 -346.5q0 -8 -2 -12q0 -11 -4 -19q-12 -37 -47 -60.5t-78 -23.5h-666q0 -83 45 -137q26 -37 78.5 -63t106.5 -31q64 -5 131.5 15t117.5 65q22 21 45.5 29.5t40 6.5t33 -10t22 -13t9.5 -9q26 -29 23.5 -68.5
t-31.5 -68.5q-93 -89 -191.5 -125.5t-238.5 -36.5zM473 739q-101 -90 -121 -215q-21 -127 45 -213q64 -86 178 -86q115 0 207 86q100 87 121 213q24 126 -45 215q-67 86 -176 86q-110 0 -209 -86zM1507 846q-64 -3 -121 -25.5t-96.5 -56t-66 -69t-39.5 -70.5h592
q-4 74 -74.5 142.5t-194.5 78.5z" />
    <glyph glyph-name="ccedilla" unicode="&#xe7;" horiz-adv-x="1169" 
d="M612 0q-108 0 -199.5 41t-151 110.5t-85 166.5t-6.5 204q26 143 119.5 263.5t228.5 189.5t279 69q186 0 311 -112q31 -29 29 -75.5t-37 -82.5q-34 -35 -81 -40.5t-79 22.5q-71 65 -182 65q-130 0 -236.5 -88t-128.5 -211q-22 -124 53 -212.5t205 -88.5q111 0 207 68
q41 28 85.5 22t66.5 -43t8 -82t-55 -73q-160 -113 -351 -113zM747 20l-125 -288q-13 -31 -30.5 -45.5t-48.5 -14.5q-40 0 -92 30t-52 60q0 24 17 48l145 210h186z" />
    <glyph glyph-name="egrave" unicode="&#xe8;" horiz-adv-x="1196" 
d="M580 0q-138 1 -240 70.5t-145.5 186.5t-18.5 255t111.5 255.5t213.5 187t265 69.5q202 0 318 -134.5t90 -340.5q0 -7 -3 -10v0q0 -11 -4 -19q-10 -36 -44 -59t-76 -23h-654q0 -81 45 -135q24 -36 75.5 -61.5t104.5 -30.5q62 -5 128.5 14.5t115.5 63.5q22 21 45 29t39.5 6
t32.5 -10t21.5 -12.5t9.5 -8.5q26 -29 23 -67.5t-32 -67.5q-92 -86 -187.5 -122t-233.5 -36zM731 829q-63 -3 -118.5 -25t-94 -55.5t-65 -68t-39.5 -68.5h579q-4 72 -72.5 139.5t-189.5 77.5zM1059 1208q-45 0 -77.5 12t-66.5 44l-139 131q-35 31 -35 61q0 29 48.5 54.5
t99.5 25.5q61 0 98 -59l117 -181q18 -27 18 -45q0 -20 -17.5 -31.5t-45.5 -11.5z" />
    <glyph glyph-name="eacute" unicode="&#xe9;" horiz-adv-x="1196" 
d="M580 0q-138 1 -240 70.5t-145.5 186.5t-18.5 255t111.5 255.5t213.5 187t265 69.5q202 0 318 -134.5t90 -340.5q0 -7 -3 -10v0q0 -11 -4 -19q-10 -36 -44 -59t-76 -23h-654q0 -81 45 -135q24 -36 75.5 -61.5t104.5 -30.5q62 -5 128.5 14.5t115.5 63.5q22 21 45 29t39.5 6
t32.5 -10t21.5 -12.5t9.5 -8.5q26 -29 23 -67.5t-32 -67.5q-92 -86 -187.5 -122t-233.5 -36zM731 829q-63 -3 -118.5 -25t-94 -55.5t-65 -68t-39.5 -68.5h579q-4 72 -72.5 139.5t-189.5 77.5zM721 1208q-27 0 -44.5 11.5t-17.5 31.5q0 19 17 45l117 181q37 59 98 59
q50 0 98.5 -25.5t48.5 -54.5q0 -30 -34 -61l-138 -131q-35 -32 -67.5 -44t-77.5 -12z" />
    <glyph glyph-name="ecircumflex" unicode="&#xea;" horiz-adv-x="1196" 
d="M580 0q-138 1 -240 70.5t-145.5 186.5t-18.5 255t111.5 255.5t213.5 187t265 69.5q202 0 318 -134.5t90 -340.5q0 -7 -3 -10v0q0 -11 -4 -19q-10 -36 -44 -59t-76 -23h-654q0 -81 45 -135q24 -36 75.5 -61.5t104.5 -30.5q62 -5 128.5 14.5t115.5 63.5q22 21 45 29t39.5 6
t32.5 -10t21.5 -12.5t9.5 -8.5q26 -29 23 -67.5t-32 -67.5q-92 -86 -187.5 -122t-233.5 -36zM731 829q-63 -3 -118.5 -25t-94 -55.5t-65 -68t-39.5 -68.5h579q-4 72 -72.5 139.5t-189.5 77.5zM918 1356l-136 -92q-82 -56 -168 -56q-24 0 -36.5 10.5t-6.5 30.5q4 14 39 49
l187 170q66 60 137 60h74q40 0 62.5 -15t37.5 -45l84 -170q15 -31 10 -49q-6 -19 -26 -30t-46 -11q-45 0 -74.5 11.5t-60.5 44.5z" />
    <glyph glyph-name="edieresis" unicode="&#xeb;" horiz-adv-x="1196" 
d="M580 0q-138 1 -240 70.5t-145.5 186.5t-18.5 255t111.5 255.5t213.5 187t265 69.5q202 0 318 -134.5t90 -340.5q0 -7 -3 -10v0q0 -11 -4 -19q-10 -36 -44 -59t-76 -23h-654q0 -81 45 -135q24 -36 75.5 -61.5t104.5 -30.5q62 -5 128.5 14.5t115.5 63.5q22 21 45 29t39.5 6
t32.5 -10t21.5 -12.5t9.5 -8.5q26 -29 23 -67.5t-32 -67.5q-92 -86 -187.5 -122t-233.5 -36zM731 829q-63 -3 -118.5 -25t-94 -55.5t-65 -68t-39.5 -68.5h579q-4 72 -72.5 139.5t-189.5 77.5zM1157 1475q56 0 86.5 -36t20.5 -91l-2 -15q-12 -55 -58 -90t-102 -35
q-58 0 -89.5 35t-19.5 90l2 15q10 55 57 91t105 36zM750 1475q56 0 86 -36t20 -91l-2 -15q-12 -55 -58 -90t-102 -35q-58 0 -89 35t-19 90l2 15q10 55 57 91t105 36z" />
    <glyph glyph-name="igrave" unicode="&#xec;" horiz-adv-x="509" 
d="M14 111l150 839q8 46 47 79.5t86 33.5q46 0 73.5 -33.5t18.5 -79.5l-147 -839q-8 -46 -47 -79.5t-86 -33.5t-75 33.5t-20 79.5zM414 1208q-45 0 -77.5 12t-66.5 44l-139 131q-35 31 -35 61q0 29 48.5 54.5t99.5 25.5q61 0 98 -59l117 -181q18 -27 18 -45
q0 -20 -17.5 -31.5t-45.5 -11.5z" />
    <glyph glyph-name="iacute" unicode="&#xed;" horiz-adv-x="509" 
d="M215 111l150 839q8 46 47 79.5t86 33.5q46 0 73.5 -33.5t18.5 -79.5l-148 -839q-8 -46 -47 -79.5t-86 -33.5t-74.5 33.5t-19.5 79.5zM432 1208q-27 0 -44 11.5t-17 31.5q0 21 16 45l117 181q37 59 98 59q51 0 99.5 -25.5t48.5 -54.5q0 -30 -35 -61l-137 -131
q-35 -32 -68 -44t-78 -12z" />
    <glyph glyph-name="icircumflex" unicode="&#xee;" horiz-adv-x="509" 
d="M41 111l149 839q8 46 47.5 79.5t86.5 33.5q46 0 73.5 -33.5t18.5 -79.5l-148 -839q-8 -46 -47 -79.5t-86 -33.5t-74.5 33.5t-19.5 79.5zM434 1356l-135 -92q-82 -56 -168 -56q-24 0 -36.5 10.5t-6.5 30.5q4 14 39 49l186 170q66 60 138 60h73q72 0 101 -60l84 -170
q15 -31 10 -49q-6 -19 -26 -30t-46 -11q-45 0 -74.5 11.5t-60.5 44.5z" />
    <glyph glyph-name="idieresis" unicode="&#xef;" horiz-adv-x="509" 
d="M25 111l149 839q8 46 47 79.5t86 33.5q46 0 73.5 -33.5t18.5 -79.5l-147 -839q-8 -46 -47 -79.5t-86 -33.5t-74.5 33.5t-19.5 79.5zM639 1475q56 0 86 -36t20 -91l-2 -15q-12 -55 -57.5 -90t-101.5 -35q-58 0 -89.5 35t-19.5 90l2 15q10 55 57 91t105 36zM231 1475
q56 0 86.5 -36t20.5 -91l-2 -15q-12 -55 -58 -90t-102 -35q-58 0 -89 35t-19 90l2 15q10 55 56.5 91t104.5 36z" />
    <glyph glyph-name="eth" unicode="&#xf0;" horiz-adv-x="1286" 
d="M987 911l-166 293l-239 -98q-15 -6 -35 -6q-32 0 -52 23t-14 55q6 52 66 73l198 82q-13 26 -10 66q8 46 46 79t85 33q60 0 90 -55l17 -33l190 78q28 8 37 8q32 0 51.5 -23.5t14.5 -55.5q-9 -53 -66 -74l-158 -64l144 -262q74 -136 97.5 -251t2.5 -249q-17 -112 -72 -213
t-138 -177t-198.5 -120.5t-244.5 -44.5q-155 0 -271 72t-167.5 194.5t-28.5 268.5q22 142 102 253t198 171.5t251 60.5q83 0 144 -20.5t126 -63.5zM1038 506q21 130 -55.5 218.5t-216.5 88.5q-139 0 -237.5 -87.5t-120.5 -221.5q-21 -130 55 -224t213 -94q139 0 240 92.5
t122 227.5z" />
    <glyph glyph-name="ntilde" unicode="&#xf1;" horiz-adv-x="1255" 
d="M840 113l86 483q15 88 -35.5 149.5t-138.5 61.5t-160.5 -61.5t-85.5 -149.5l-88 -483q-6 -45 -44 -78t-83 -33v0q-44 0 -70.5 32.5t-19.5 78.5l86 483l55 319q9 44 47 76.5t82 32.5q32 0 55.5 -17t30.5 -46q111 63 231 63q179 0 282 -125t71 -303l-86 -483
q-6 -45 -43 -78t-82 -33t-71.5 32.5t-18.5 78.5zM610 1235q-25 -41 -67 -41q-30 0 -53 20.5t-23 47.5q0 19 8 47q34 94 82.5 140t126.5 46q61 0 162 -41t133 -41q34 0 54 15t40 51q25 41 68 41q30 0 53 -20.5t23 -47.5q0 -16 -9 -47q-34 -94 -82 -140t-126 -46
q-61 0 -162 40.5t-133 40.5q-34 0 -54.5 -15t-40.5 -50z" />
    <glyph glyph-name="ograve" unicode="&#xf2;" horiz-adv-x="1310" 
d="M723 1024q100 0 183 -41t141 -113q53 -72 73 -164.5t2 -195.5q-38 -213 -204 -360q-78 -72 -176 -113t-199 -41q-100 0 -183.5 41t-140.5 113q-113 149 -76 360q37 207 203 360q81 71 179 112.5t198 41.5zM905 510q22 127 -47 209q-61 86 -172 86q-112 0 -207 -86
q-95 -85 -119 -209q-21 -127 46 -211q67 -86 174 -86t206 86q95 85 119 211zM977 1208q-45 0 -77 12t-66 44l-140 131q-35 31 -35 61q0 29 48.5 54.5t99.5 25.5q61 0 98 -59l117 -181q18 -27 18 -45q0 -20 -17.5 -31.5t-45.5 -11.5z" />
    <glyph glyph-name="oacute" unicode="&#xf3;" horiz-adv-x="1310" 
d="M723 1024q100 0 183 -41t141 -113q53 -72 73 -164.5t2 -195.5q-38 -213 -204 -360q-78 -72 -176 -113t-199 -41q-100 0 -183.5 41t-140.5 113q-113 149 -76 360q37 207 203 360q81 71 179 112.5t198 41.5zM905 510q22 127 -47 209q-61 86 -172 86q-112 0 -207 -86
q-95 -85 -119 -209q-21 -127 46 -211q67 -86 174 -86t206 86q95 85 119 211zM557 1208q-27 0 -44 11.5t-17 31.5q0 21 16 45l117 181q37 59 98 59q50 0 98.5 -25.5t48.5 -54.5q0 -30 -34 -61l-138 -131q-35 -32 -67.5 -44t-77.5 -12z" />
    <glyph glyph-name="ocircumflex" unicode="&#xf4;" horiz-adv-x="1310" 
d="M723 1024q100 0 183 -41t141 -113q53 -72 73 -164.5t2 -195.5q-38 -213 -204 -360q-78 -72 -176 -113t-199 -41q-100 0 -183.5 41t-140.5 113q-113 149 -76 360q37 207 203 360q81 71 179 112.5t198 41.5zM905 510q22 127 -47 209q-61 86 -172 86q-112 0 -207 -86
q-95 -85 -119 -209q-21 -127 46 -211q67 -86 174 -86t206 86q95 85 119 211zM905 1356l-135 -92q-82 -56 -168 -56q-24 0 -36.5 10.5t-6.5 30.5q4 14 39 49l186 170q66 60 138 60h73q72 0 101 -60l84 -170q15 -31 10 -49q-6 -19 -26 -30t-46 -11q-45 0 -74.5 11.5
t-60.5 44.5z" />
    <glyph glyph-name="otilde" unicode="&#xf5;" horiz-adv-x="1310" 
d="M723 1024q100 0 183 -41t141 -113q53 -72 73 -164.5t2 -195.5q-38 -213 -204 -360q-78 -72 -176 -113t-199 -41q-100 0 -183.5 41t-140.5 113q-113 149 -76 360q37 207 203 360q81 71 179 112.5t198 41.5zM905 510q22 127 -47 209q-61 86 -172 86q-112 0 -207 -86
q-95 -85 -119 -209q-21 -127 46 -211q67 -86 174 -86t206 86q95 85 119 211zM625 1235q-25 -41 -68 -41q-30 0 -53 20.5t-23 47.5q0 19 8 47q34 94 82.5 140t126.5 46q61 0 162 -41t133 -41q34 0 54 15t40 51q25 41 68 41q30 0 53 -20.5t23 -47.5q0 -19 -8 -47
q-34 -94 -82.5 -140t-126.5 -46q-61 0 -162 40.5t-133 40.5q-34 0 -54 -15t-40 -50z" />
    <glyph glyph-name="odieresis" unicode="&#xf6;" horiz-adv-x="1310" 
d="M723 1024q100 0 183 -41t141 -113q53 -72 73 -164.5t2 -195.5q-38 -213 -204 -360q-78 -72 -176 -113t-199 -41q-100 0 -183.5 41t-140.5 113q-113 149 -76 360q37 207 203 360q81 71 179 112.5t198 41.5zM905 510q22 127 -47 209q-61 86 -172 86q-112 0 -207 -86
q-95 -85 -119 -209q-21 -127 46 -211q67 -86 174 -86t206 86q95 85 119 211zM1092 1475q56 0 86 -36t20 -91l-2 -15q-12 -55 -58 -90t-102 -35q-58 0 -89 35t-19 90l2 15q10 55 57 91t105 36zM684 1475q56 0 86.5 -36t20.5 -91l-3 -15q-12 -55 -57.5 -90t-101.5 -35
q-58 0 -89.5 35t-19.5 90l2 15q10 55 57 91t105 36z" />
    <glyph glyph-name="divide" unicode="&#xf7;" horiz-adv-x="1269" 
d="M1059 614h-828q-44 0 -71 32t-19 75q6 43 41.5 74.5t79.5 31.5h828q44 0 71 -31.5t21 -74.5q-8 -43 -43.5 -75t-79.5 -32zM743 1288q58 0 94.5 -39.5t28.5 -95.5l-2 -10q-9 -57 -56.5 -97t-105.5 -40q-59 0 -94 40t-26 97l2 10q8 56 54.5 95.5t104.5 39.5zM618 436
q59 0 94.5 -40t26.5 -97l-2 -10q-7 -57 -53.5 -96t-105.5 -39t-94.5 39t-28.5 96l2 10q9 57 56 97t105 40z" />
    <glyph glyph-name="ugrave" unicode="&#xf9;" horiz-adv-x="1255" 
d="M1063 1024q46 0 71.5 -31.5t16.5 -77.5l-84 -485q-31 -177 -178 -302.5t-324 -125.5q-178 0 -281 125.5t-71 302.5l84 485q9 46 46 77.5t81 31.5q46 0 72 -31.5t18 -77.5l-86 -485q-15 -86 36.5 -147.5t137.5 -61.5q88 0 160.5 61.5t87.5 147.5l86 485q7 45 44.5 77
t82.5 32zM837 1208q-45 0 -77 12t-66 44l-139 131q-35 31 -35 61q0 29 48.5 54.5t98.5 25.5q62 0 99 -59l116 -181q19 -28 19 -45q0 -20 -18 -31.5t-46 -11.5z" />
    <glyph glyph-name="uacute" unicode="&#xfa;" horiz-adv-x="1255" 
d="M1063 1024q46 0 71.5 -31.5t16.5 -77.5l-84 -485q-31 -177 -178 -302.5t-324 -125.5q-178 0 -281 125.5t-71 302.5l84 485q9 46 46 77.5t81 31.5q46 0 72 -31.5t18 -77.5l-86 -485q-15 -86 36.5 -147.5t137.5 -61.5q88 0 160.5 61.5t87.5 147.5l86 485q7 45 44.5 77
t82.5 32zM647 1208q-27 0 -44 11.5t-17 31.5q0 21 16 45l117 181q37 59 98 59q51 0 99.5 -25.5t48.5 -54.5q0 -30 -35 -61l-137 -131q-35 -32 -68 -44t-78 -12z" />
    <glyph glyph-name="ucircumflex" unicode="&#xfb;" horiz-adv-x="1255" 
d="M1063 1024q46 0 71.5 -31.5t16.5 -77.5l-84 -485q-31 -177 -178 -302.5t-324 -125.5q-178 0 -281 125.5t-71 302.5l84 485q9 46 46 77.5t81 31.5q46 0 72 -31.5t18 -77.5l-86 -485q-15 -86 36.5 -147.5t137.5 -61.5q88 0 160.5 61.5t87.5 147.5l86 485q7 45 44.5 77
t82.5 32zM868 1356l-135 -92q-82 -56 -168 -56q-24 0 -36.5 10.5t-6.5 30.5q4 14 39 49l186 170q66 60 137 60h74q72 0 101 -60l84 -170q15 -31 10 -49q-6 -19 -26 -30t-46 -11q-45 0 -74.5 11.5t-60.5 44.5z" />
    <glyph glyph-name="udieresis" unicode="&#xfc;" horiz-adv-x="1255" 
d="M1063 1024q46 0 71.5 -31.5t16.5 -77.5l-84 -485q-31 -177 -178 -302.5t-324 -125.5q-178 0 -281 125.5t-71 302.5l84 485q9 46 46 77.5t81 31.5q46 0 72 -31.5t18 -77.5l-86 -485q-15 -86 36.5 -147.5t137.5 -61.5q88 0 160.5 61.5t87.5 147.5l86 485q7 45 44.5 77
t82.5 32zM1034 1475q56 0 86.5 -36t20.5 -91l-2 -15q-12 -55 -58 -90t-102 -35q-58 0 -89.5 35t-19.5 90l2 15q10 55 57 91t105 36zM627 1475q56 0 86 -36t20 -91l-2 -15q-12 -55 -58 -90t-102 -35q-58 0 -89 35t-19 90l2 15q10 55 57 91t105 36z" />
    <glyph glyph-name="yacute" unicode="&#xfd;" horiz-adv-x="1204" 
d="M1100 915l-29 -157l-110 -631q-23 -134 -109 -247.5t-211.5 -180t-259.5 -66.5q-116 0 -209 52q-37 20 -44 63t19 84q28 40 74.5 54.5t83.5 -5.5q54 -26 115 -26q89 0 169.5 51.5t121.5 134.5q-98 -49 -207 -49q-117 0 -206.5 58t-130 157.5t-20.5 216.5l86 491
q9 46 47 77.5t82 31.5q46 0 73 -31.5t20 -77.5l-88 -491q-15 -88 36 -150.5t140 -62.5t162 62.5t90 150.5l84 491q7 34 28 58q44 51 101 51q39 0 59 -20q43 -29 33 -89zM633 1208q-27 0 -44 11.5t-17 31.5q0 21 16 45l117 181q37 59 98 59q51 0 99.5 -25.5t48.5 -54.5
q0 -30 -35 -61l-138 -131q-35 -32 -67.5 -44t-77.5 -12z" />
    <glyph glyph-name="ydieresis" unicode="&#xff;" horiz-adv-x="1204" 
d="M1100 915l-29 -157l-110 -631q-23 -134 -109 -247.5t-211.5 -180t-259.5 -66.5q-116 0 -209 52q-37 20 -44 63t19 84q28 40 74.5 54.5t83.5 -5.5q54 -26 115 -26q89 0 169.5 51.5t121.5 134.5q-98 -49 -207 -49q-117 0 -206.5 58t-130 157.5t-20.5 216.5l86 491
q9 46 47 77.5t82 31.5q46 0 73 -31.5t20 -77.5l-88 -491q-15 -88 36 -150.5t140 -62.5t162 62.5t90 150.5l84 491q7 34 28 58q44 51 101 51q39 0 59 -20q43 -29 33 -89zM1036 1475q56 0 86.5 -36t20.5 -91l-2 -15q-12 -55 -58 -90t-102 -35q-58 0 -89.5 35t-19.5 90l2 15
q10 55 57 91t105 36zM629 1475q56 0 86 -36t20 -91l-2 -15q-12 -55 -58 -90t-102 -35q-58 0 -89 35t-19 90l2 15q10 55 57 91t105 36z" />
    <glyph glyph-name="OE" unicode="&#x152;" horiz-adv-x="2359" 
d="M1274 2q-47 0 -73.5 33.5t-18.5 79.5l20 114q-2 -1 -5 -4t-5 -4q-109 -101 -249 -160t-279 -59q-145 0 -265 58.5t-198 160.5t-108 235.5t-3 282.5q26 150 102.5 282.5t192.5 235.5q112 103 253 161.5t286 58.5q139 0 258.5 -59t193.5 -161q0 -4 6 -10l13 76
q9 47 47.5 80t85.5 33h670q45 0 73 -33t19 -80q-7 -47 -47.5 -81t-85.5 -34h-555l-66 -374h477q45 0 72.5 -34t19.5 -79q-7 -47 -47 -81t-86 -34h-477l-65 -377h555q45 0 73 -33.5t19 -80.5q-7 -45 -47.5 -79t-85.5 -34h-664l-2 2zM1055 383q76 67 130 160.5t72 195.5
t-2.5 196t-72.5 163q-53 69 -130 107t-169 38q-196 0 -357 -145q-77 -68 -130 -162t-72 -197t1.5 -196t73.5 -160q112 -147 308 -147q185 0 348 147z" />
    <glyph glyph-name="oe" unicode="&#x153;" horiz-adv-x="2160" 
d="M1348 0q-122 0 -217.5 54.5t-149.5 148.5q-24 -27 -51 -51q-79 -73 -178.5 -114.5t-202.5 -41.5q-102 0 -186.5 41t-141.5 115q-55 72 -75.5 166t-2.5 200q18 104 72.5 198.5t134.5 168.5q82 72 181.5 113.5t201.5 41.5t186.5 -41.5t141.5 -113.5q1 -2 13.5 -20.5
t17.5 -28.5q89 96 205.5 152t240.5 56q205 0 323.5 -136.5t92.5 -346.5q0 -8 -2 -12q0 -11 -4 -19q-12 -37 -47 -60.5t-78 -23.5h-666q0 -83 45 -137q26 -37 78 -63t106 -31q64 -5 132 15t118 65q22 21 45.5 29.5t40 6.5t33 -10t22 -13t9.5 -9q26 -29 23.5 -68.5
t-31.5 -68.5q-93 -89 -191.5 -125.5t-238.5 -36.5zM918 518q21 128 -48 213q-64 86 -176 86q-114 0 -209 -86q-96 -86 -120 -213q-21 -130 45 -215q70 -86 178 -86q110 0 209 86q97 87 121 215zM1501 846q-64 -3 -121 -25.5t-96.5 -56t-66 -69t-39.5 -70.5h591
q-4 74 -74 142.5t-194 78.5z" />
    <glyph glyph-name="Scaron" unicode="&#x160;" horiz-adv-x="1310" 
d="M989 1737l-135 -92q-82 -56 -168 -56q-24 0 -36.5 10.5t-6.5 30.5q4 14 39 49l186 170q66 60 138 60h73q72 0 101 -60l84 -170q15 -31 10 -49q-6 -19 -26 -30t-46 -11q-45 0 -74.5 11.5t-60.5 44.5zM170 201q87 -83 208 -141.5t269 -59.5q212 0 389 113q87 56 147 136.5
t77 172.5q18 94 -17 172q-43 96 -168 164q-109 56 -262 84h-4q-164 32 -236 88q-34 26 -43 51q-12 23 -6 55q12 67 99 127q104 69 237 66q57 1 113.5 -18.5t92.5 -42t93 -64.5q31 -24 73.5 -15.5t72.5 44.5q29 35 28 76.5t-33 64.5q-42 31 -60 43.5t-64.5 40t-82 40.5
t-89.5 24.5t-109 11.5q-199 0 -363 -107q-82 -52 -139 -127.5t-74 -163.5q-15 -86 17 -162q43 -93 160 -155q99 -50 241 -78h2h2q179 -36 258 -96q33 -22 52 -60q11 -26 6 -63q-16 -79 -113 -143q-114 -74 -260 -74q-100 -1 -196 44.5t-160 108.5q-29 26 -72.5 22t-75.5 -36
q-32 -34 -35 -75.5t25 -67.5z" />
    <glyph glyph-name="scaron" unicode="&#x161;" horiz-adv-x="1017" 
d="M795 1339l-136 -92q-47 -32 -84 -43.5t-83 -11.5q-24 0 -36.5 10.5t-6.5 30.5q4 15 38 49l187 170q65 59 137 59h74q41 0 63 -14.5t37 -44.5l84 -170q15 -31 10 -49q-6 -20 -25.5 -30.5t-45.5 -10.5q-45 0 -75 11.5t-61 43.5zM145 143q143 -139 336 -141q149 0 281 82
q63 42 109 103t59 130q12 77 -15 138q-33 76 -122 123q-69 39 -181 59h-2l-2 2q-102 15 -137 47q-14 10 -20 21v16q6 25 41 45q49 39 129 39q45 0 83.5 -19.5t90.5 -58.5q32 -25 78 -15.5t75 46.5q32 37 31 81.5t-35 67.5v0q-30 24 -51 38t-59 35t-82.5 31.5t-94.5 10.5
q-137 0 -264 -78q-60 -41 -103.5 -99.5t-56.5 -123.5q-8 -65 15 -127q30 -68 114 -121q62 -32 170 -53h3v0q100 -19 157 -55q15 -15 23 -27q2 -8 2 -23q-7 -27 -51 -59q-65 -37 -148 -37q-55 -1 -112 25t-91 61q-31 31 -77.5 27t-81.5 -41q-34 -34 -37.5 -77t26.5 -73z" />
    <glyph glyph-name="Ydieresis" unicode="&#x178;" horiz-adv-x="1466" 
d="M1212 1251l-526 -579l-98 -561q-7 -46 -47 -79.5t-86 -33.5q-47 0 -75 33.5t-20 79.5l101 561l-322 579q-21 39 -6 84.5t57 73.5q43 28 88.5 20.5t67.5 -45.5l268 -483l439 483q34 38 81.5 45.5t79.5 -20.5q34 -28 33 -74t-35 -84zM1018 1884q56 0 86 -36t20 -91l-2 -14
q-12 -55 -57.5 -90t-101.5 -35q-58 0 -89.5 35t-19.5 90l2 14q10 55 57 91t105 36zM610 1884q56 0 86.5 -36t20.5 -91l-2 -14q-12 -55 -58 -90t-102 -35q-58 0 -89.5 35t-19.5 90l3 14q10 55 56.5 91t104.5 36z" />
    <glyph glyph-name="florin" unicode="&#x192;" horiz-adv-x="1036" 
d="M248 -14q-62 0 -97.5 28t-35.5 76q0 42 28.5 71t73.5 32q56 5 86.5 37.5t42.5 99.5l72 399h-70q-43 0 -73.5 29.5t-30.5 72.5t30.5 74t73.5 31h105l36 192q30 161 114 239.5t245 78.5q54 0 106 -6q38 -5 65.5 -34.5t27.5 -70.5q0 -43 -30 -72.5t-73 -29.5q-2 0 -20 2
t-29 2q-72 0 -111.5 -38t-54.5 -122l-24 -141h165q44 0 74.5 -31t30.5 -74t-30.5 -72.5t-74.5 -29.5h-202l-78 -436q-29 -161 -113.5 -234t-228.5 -73z" />
    <glyph glyph-name="circumflex" unicode="&#x2c6;" 
d="M643 1356l-135 -92q-82 -56 -168 -56q-24 0 -36.5 10.5t-6.5 30.5q4 14 39 49l186 170q66 60 137 60h74q72 0 101 -60l84 -170q15 -31 10 -49q-6 -19 -26 -30t-46 -11q-45 0 -74.5 11.5t-60.5 44.5z" />
    <glyph glyph-name="tilde" unicode="&#x2dc;" 
d="M358 1235q-25 -41 -67 -41q-30 0 -53 20.5t-23 47.5q0 19 8 47q34 94 82.5 140t126.5 46q61 0 162 -41t133 -41q34 0 54 15t40 51q25 41 68 41q30 0 53 -20.5t23 -47.5q0 -16 -9 -47q-34 -94 -82 -140t-126 -46q-61 0 -162 40.5t-133 40.5q-34 0 -54.5 -15t-40.5 -50z
" />
    <glyph glyph-name="endash" unicode="&#x2013;" horiz-adv-x="1081" 
d="M240 510q-47 0 -73 35t-13 82q12 49 55.5 83.5t91.5 34.5h639q47 0 72.5 -34.5t13.5 -83.5q-14 -48 -57 -82.5t-90 -34.5h-639z" />
    <glyph glyph-name="emdash" unicode="&#x2014;" horiz-adv-x="1839" 
d="M238 510q-47 0 -72 35t-10 82q13 49 57 83.5t92 34.5h1397q48 0 72.5 -34.5t11.5 -83.5q-15 -47 -60 -82t-92 -35h-1396z" />
    <glyph glyph-name="quoteleft" unicode="&#x2018;" horiz-adv-x="471" 
d="M516 1384q0 -41 -49 -55q-145 -45 -139 -182q48 -13 82 -50t34 -89v-17q0 -59 -38.5 -98t-100.5 -39q-68 0 -107.5 48.5t-39.5 131.5v21q0 202 102 299q39 40 93 64t100 24q31 0 47 -16t16 -42z" />
    <glyph glyph-name="quoteright" unicode="&#x2019;" horiz-adv-x="471" 
d="M121 913q0 42 47 56q145 45 139 184q-48 11 -82.5 48t-34.5 89v17q0 59 39 98t101 39q68 0 107.5 -48.5t39.5 -131.5v-21q0 -199 -100 -299q-40 -40 -94.5 -64t-98.5 -24q-31 0 -47 15.5t-16 41.5z" />
    <glyph glyph-name="quotesinglbase" unicode="&#x201a;" horiz-adv-x="471" 
d="M111 -240q0 21 13 36t34 20q145 48 139 184q-48 13 -82.5 50t-34.5 89v17q0 59 38.5 98t100.5 39q69 0 108.5 -48.5t39.5 -131.5v-23q0 -194 -100 -299q-41 -39 -95 -63.5t-98 -24.5q-31 0 -47 16t-16 41z" />
    <glyph glyph-name="quotedblleft" unicode="&#x201c;" horiz-adv-x="839" 
d="M991 1384q0 -41 -49 -55q-145 -45 -139 -182q48 -13 82.5 -50t34.5 -89v-17q0 -59 -39 -98t-101 -39q-68 0 -107.5 48.5t-39.5 131.5v21q0 199 100 299q40 40 94.5 64t98.5 24q31 0 48 -16t17 -42zM516 1384q0 -41 -49 -55q-145 -45 -139 -182q48 -13 82 -50t34 -89v-17
q0 -59 -38.5 -98t-100.5 -39q-68 0 -107.5 48.5t-39.5 131.5v21q0 202 102 299q39 40 93 64t100 24q31 0 47 -16t16 -42z" />
    <glyph glyph-name="quotedblright" unicode="&#x201d;" horiz-adv-x="839" 
d="M121 913q0 42 47 56q145 45 139 184q-48 11 -82.5 48t-34.5 89v17q0 59 39 98t101 39q68 0 107.5 -48.5t39.5 -131.5v-21q0 -199 -100 -299q-40 -40 -94.5 -64t-98.5 -24q-31 0 -47 15.5t-16 41.5zM594 913q0 42 49 56q145 45 139 184q-48 11 -82 48t-34 89v17
q0 59 38.5 98t100.5 39q68 0 107.5 -48.5t39.5 -131.5v-21q0 -202 -102 -299q-39 -40 -93 -64t-100 -24q-31 0 -47 15.5t-16 41.5z" />
    <glyph glyph-name="quotedblbase" unicode="&#x201e;" horiz-adv-x="839" 
d="M111 -240q0 21 13 36t34 20q145 48 139 184q-48 13 -82.5 50t-34.5 89v17q0 59 38.5 98t100.5 39q69 0 108.5 -48.5t39.5 -131.5v-23q0 -194 -100 -299q-41 -39 -95 -63.5t-98 -24.5q-31 0 -47 16t-16 41zM584 -240q0 21 13.5 36t35.5 20q145 48 139 184q-48 13 -82.5 50
t-34.5 89v17q0 59 39 98t101 39q67 0 107 -49t40 -131v-23q0 -197 -102 -299q-39 -39 -93.5 -63.5t-99.5 -24.5q-31 0 -47 16t-16 41z" />
    <glyph glyph-name="ellipsis" unicode="&#x2026;" horiz-adv-x="1392" 
d="M371 102q0 -40 -30 -71t-71 -31q-40 0 -71 31t-31 71q0 41 31 71t71 30q41 0 71 -30t30 -71zM817 102q0 -40 -29.5 -71t-70.5 -31q-40 0 -71.5 31t-31.5 71q0 41 31.5 71t71.5 30q41 0 70.5 -30t29.5 -71zM1264 102q0 -40 -30 -71t-71 -31q-40 0 -71 31t-31 71
q0 41 31 71t71 30q41 0 71 -30t30 -71z" />
    <glyph glyph-name="trademark" unicode="&#x2122;" horiz-adv-x="1413" 
d="M49 1386q5 21 22 35.5t38 14.5h372q20 0 31.5 -14.5t9.5 -35.5q-4 -20 -21 -33.5t-36 -13.5h-139l-82 -469q-5 -21 -22 -35t-38 -14q-19 0 -30 14.5t-7 34.5l82 469h-141q-19 0 -30.5 13.5t-8.5 33.5zM784 1417l134 -243l217 243q19 22 45 19v0q20 0 31 -13.5t8 -33.5
l-93 -517q-3 -21 -18.5 -35t-36.5 -14q-20 0 -32 13.5t-9 35.5l64 367l-156 -174q-18 -21 -43 -21h-2q-25 0 -37 21l-94 174l-64 -367q-5 -22 -21 -35.5t-38 -13.5q-20 0 -31 13.5t-8 35.5l90 517q4 20 21 33.5t37 13.5v0h2q24 3 34 -19z" />
    </font>
</defs>
</svg>
