<?xml version="1.0" encoding="UTF-8"?>
<svg xmlns="http://www.w3.org/2000/svg" id="Calque_1" data-name="Calque 1" viewBox="0 0 466.28 130.25">
  <defs>
    <style>
      .cls-1 {
        fill: none;
      }

      .cls-2 {
        fill: #fff;
      }
    </style>
  </defs>
  <g>
    <polygon class="cls-2" points="81.35 20.16 81.36 20.14 71.15 20.16 20.3 106.29 32.12 106.31 76.58 28.51 76.58 82.42 51.64 82.42 47.73 89.72 76.58 89.72 76.58 106.28 84.85 106.28 84.85 20.16 81.35 20.16"></polygon>
    <path class="cls-2" d="m230.72,95.49c-1,2.6-4.29,3.9-9.88,3.9h-.92c-4.75,0-7.77-1.56-9.07-4.69-1.23-2.97-1.84-8.23-1.84-15.78v-5.72c.05-1.19-.01-2.25,0-3.44.02-1.27,0-2.65,0-3.91v-1.84c0-7.58.61-12.86,1.84-15.85,1.3-3.14,4.29-4.71,8.96-4.71h.92c5.05,0,8.27,1.42,9.65,4.25.61,1.46,1.05,3.45,1.32,5.97.27,2.53.48,5.63.63,9.3l.12,2.87-18.26-.02c.01,1.27,0,2.23,0,3.66,0,1.21,0,2.61,0,3.8h25.91l-.19-10.54c-.15-4.67-.5-8.67-1.04-12-.54-3.33-1.46-5.99-2.77-7.98-2.39-3.98-7.39-5.97-15.02-5.97h-1.16c-7.85,0-12.98,2.41-15.36,7.23-2.39,4.67-3.58,12.67-3.58,24v6.89c0,11.33,1.11,19.41,3.33,24.23,2.14,4.67,7.16,7,15.04,7h3.67c6.89,0,11.41-1.56,13.55-4.67,2.07-3.09,3.1-8.65,3.1-16.69v-1.61h-7.35c0,5.44-.54,9.53-1.61,12.29"></path>
    <path class="cls-2" d="m437.94,22.11h7.35v9.76h-7.35v-9.76Zm0,15.62h7.35v67.52h-7.35V37.73Z"></path>
    <polygon class="cls-2" points="178.29 105.17 165.68 105.17 150.35 36.81 159.6 36.81 171.98 96.81 184.66 36.81 193.66 36.81 178.29 105.17"></polygon>
    <path class="cls-2" d="m230.72,95.6c-1,2.6-4.29,3.9-9.88,3.9h-.92c-4.75,0-7.77-1.56-9.07-4.69-1.23-2.97-1.84-8.23-1.84-15.78v-1.92c-.23-.14-.4-.38-.46-.74-.63-4.27-.07-8.53-.04-12.81,0-.46.21-.78.51-.97.08-6.75.69-11.52,1.83-14.3,1.3-3.14,4.29-4.71,8.96-4.71h.92c5.05,0,8.27,1.42,9.65,4.25.61,1.46,1.05,3.44,1.32,5.97.27,2.53.48,5.63.63,9.3l.12,2.87h-17.43c-.19,2.45-.49,4.91-.48,7.35h25.6l-.23-10.45c-.15-4.67-.5-8.67-1.04-12-.54-3.33-1.46-5.99-2.77-7.98-2.39-3.98-7.39-5.97-15.02-5.97h-1.16c-7.85,0-12.98,2.41-15.36,7.23-2.39,4.67-3.58,12.67-3.58,24v6.89c0,11.33,1.11,19.41,3.33,24.23,2.14,4.67,7.16,7,15.04,7h3.67c6.89,0,11.41-1.56,13.55-4.67,2.07-3.09,3.1-8.65,3.1-16.69v-1.61h-7.35c0,5.44-.54,9.53-1.61,12.29"></path>
    <path class="cls-2" d="m283.3,105.39v-45.93c0-5.21-.73-9.11-2.18-11.71-1.53-2.76-3.9-4.13-7.12-4.13h-.92c-4.82,0-8.19,1.65-10.1,4.94-2.07,3.37-3.1,8.27-3.1,14.7v42.14h-7.35V37.87h7.35v7.92c1.45-3.29,3.44-5.59,5.97-6.89,2.6-1.3,5.28-1.95,8.04-1.95h.92c5.82,0,9.91,1.76,12.29,5.28,2.37,3.52,3.56,9,3.56,16.42v46.74h-7.35Z"></path>
    <path class="cls-2" d="m333.79,100.84c-1.76,3.66-5.74,5.49-11.94,5.49-5.05,0-8.65-.88-10.79-2.64-2.07-1.83-3.1-5.04-3.1-9.63v-49.4h-7.58v-6.78h7.58v-11.25l7.35-2.3-.71,13.76,18.74-.21v6.78h-18.03v48.03c0,2.67.5,4.46,1.49,5.37.99.99,2.76,1.49,5.28,1.49,3.6,0,5.74-1.15,6.43-3.44.69-2.3,1.03-5.82,1.03-10.56h6.66c0,6.66-.8,11.76-2.41,15.29"></path>
    <path class="cls-2" d="m382.24,98.7c-2.3,4.98-7.35,7.46-15.16,7.46h-3.22c-7.81,0-12.82-2.49-15.04-7.46-2.22-5.05-3.33-13.36-3.33-24.92v-4.59c0-11.56,1.11-19.87,3.33-24.92,2.3-4.98,7.31-7.46,15.04-7.46h3.22c7.88,0,12.94,2.49,15.16,7.46,2.22,5.05,3.33,13.36,3.33,24.92v4.59c0,11.56-1.11,19.87-3.33,24.92m-4.71-29.61c0-9.3-.46-15.86-1.38-19.67-1.07-3.89-4.13-5.83-9.19-5.83h-2.99c-5.05,0-8.04,1.91-8.96,5.72-1,3.74-1.49,10.33-1.49,19.78v4.8c0,9.38.46,15.93,1.38,19.67.99,3.89,4.02,5.83,9.07,5.83h2.99c5.13,0,8.15-1.91,9.07-5.72.99-3.74,1.49-10.33,1.49-19.78v-4.8h0Z"></path>
    <path class="cls-2" d="m422.02,57.36v-3.1c0-4.21-.65-7.04-1.95-8.5-1.38-1.45-3.64-2.18-6.77-2.18-3.52,0-6.01,1.38-7.46,4.13-1.53,2.83-2.3,6.84-2.3,12.03v45.5h-7.35V37.73h7.35v8.15c1.07-3.44,2.68-5.78,4.82-7,2.3-1.38,4.78-2.07,7.46-2.07,4.9,0,8.27,1.36,10.11,4.08,1.84,2.72,2.76,8.21,2.76,16.48h-6.66Z"></path>
    <path class="cls-2" d="m136.94,25.99c-4.33-4.14-7.57-6.4-20.04-6.03l-25.96.23h-.12v86.12h8.27V27.32h.02v.02h1.49v-.02h16.42c9.12,0,11.73,2.08,14.11,5.9,2.62,4.2,1.48,10.48,1.8,18.31v21.51c0,8.34.37,13.08-1.52,17.62-1.88,4.51-9.25,6.97-14.6,6.97l-10.44.06h0s-.62,0-.62,0h-.77v.02h-.18s.07,8.6.07,8.6h.1s0,.01,0,.02h11.61c8.33,0,18.97-3.22,22.49-8.86,3.44-5.56,2.75-12.37,2.75-23.9l.08-21.51c0-10.63.08-21.23-4.96-26.05Z"></path>
  </g>
  <rect class="cls-1" width="466.28" height="130.25"></rect>
</svg>
