<svg version="1.1" id="Layer_1" xmlns="http://www.w3.org/2000/svg" xmlns:xlink="http://www.w3.org/1999/xlink" x="0px" y="0px" viewBox="0 0 257.3 60" style="enable-background:new 0 0 257.3 60;" xml:space="preserve">
 <style type="text/css">
  .st0{fill:#5CE500;}
	.st1{fill:#FFFFFF;}
 </style>
 <g>
  <path class="st0" d="M48,14.6L48,14.6v25.6c0,0.6-0.4,1.2-0.9,1.5l-0.8,0.5L39.9,46l-4.3,2.5L34.7,49V21.3l-24-13.9l11.4-6.6
		l1.1-0.6c0.6-0.3,1.2-0.3,1.8,0l15.8,9.1l7.3,4.2L48,14.6L48,14.6z M29.3,24.3l-4.9-2.8l-11.5-6.6c-0.6-0.3-1.2-0.3-1.8,0L0.9,20.7
		L0,21.3l17.3,10v20l10.2-5.9l0.9-0.5c0.5-0.3,0.9-0.9,0.9-1.5V24.3z M0,41.3l12,6.9V34.3L0,41.3z">
  </path>
  <path class="st1" d="M74.4,13.6H61.4V49h5.8V35.1h7.3c7.9,0,12.3-3.9,12.3-10.9C86.8,21,85.6,13.6,74.4,13.6 M80.9,24.3
		c0,4-2.1,5.6-7.2,5.6h-6.5V18.8h7.3C78.8,18.8,80.9,20.6,80.9,24.3 M104,23.2l0.4,0.2l-1,5.2l-0.7-0.2c-0.5-0.2-1.1-0.3-1.7-0.3
		c-5.4,0-5.9,4.3-5.9,9.5V49h-5.3V23h5v3.1c1.4-2.1,3-3.2,5.2-3.5C101.5,22.4,102.8,22.6,104,23.2 M117.3,22.5
		c-4.2,0-7.6,1.6-9.8,4.7c-2.3,3.2-2.6,7-2.6,8.9c0,8.2,4.9,13.5,12.4,13.5c9.2,0,12.4-7.4,12.4-13.7c0-3.6-1.1-6.9-3-9.3
		C124.5,23.9,121.2,22.5,117.3,22.5 M117.3,44.8c-4.2,0-6.8-3.3-6.8-8.7s2.6-8.8,6.8-8.8s6.9,3.4,6.9,8.7
		C124.1,41.4,121.5,44.7,117.3,44.8 M174.9,23.2l0.4,0.2l-1,5.2l-0.7-0.2c-0.5-0.2-1.1-0.3-1.7-0.3c-5.4,0-5.9,4.3-5.9,9.5V49h-5.4
		V23h5v3.1c1.4-2.1,3-3.2,5.2-3.5C172.3,22.5,173.6,22.6,174.9,23.2 M194.1,40.6l-0.1,0.3c-1.1,3.2-3.8,3.9-5.9,3.9
		c-4.1,0-6.7-2.7-6.9-7.1h18.4l0.1-0.5c0.1-0.7,0.1-1.4,0.1-2.1c0-0.2,0-0.3,0-0.5c-0.3-7.3-5-12.2-11.8-12.2c-4,0-7.2,1.6-9.4,4.5
		c-1.8,2.7-2.8,5.8-2.8,9c0,8,5,13.4,12.4,13.4c5.8,0,9.7-2.9,11.2-8.2l0.2-0.6L194.1,40.6L194.1,40.6z M181.4,33
		c0.5-3.6,2.9-5.9,6.4-5.9c2.7,0,5.9,1.6,6.3,5.9H181.4z M150.9,25.1c-1.7-1.8-4.1-2.7-6.9-2.7c-7.9,0-11.5,6.9-11.5,13.4
		c0,6.6,3.5,13.3,11.5,13.3c2.5,0,4.9-0.9,6.7-2.7c0,1.1-0.1,2.2-0.1,2.7c-0.3,4.3-2.4,6.3-6.5,6.3c-2.2,0-4.8-0.8-5.3-3l-0.1-0.5
		h-5.3l0.1,0.7c0.6,4.6,4.6,7.4,10.5,7.4c5.2,0,8.9-2,10.7-5.7c0.9-1.8,1.3-4.4,1.3-7.7V23h-5.1L150.9,25.1L150.9,25.1z M144.3,44.3
		c-1.9,0-6.2-0.8-6.2-8.7c0-5.2,2.4-8.4,6.4-8.4c3,0,6.3,2.2,6.3,8.4C150.8,41.1,148.4,44.3,144.3,44.3 M224.6,41.1
		c0,4.1-3.4,8.3-11.1,8.3c-6.8,0-10.8-2.9-11.4-8.3l-0.1-0.6h5.3l0.1,0.4c0.6,3.2,3.7,3.9,6.2,3.9c2.7,0,5.5-0.9,5.5-3.3
		c0-1.2-0.8-2.1-2.4-2.6c-0.9-0.3-2.1-0.6-3.3-0.9c-2.1-0.6-4.3-1.2-5.6-1.7c-3.3-1.2-5.2-3.5-5.2-6.3c0-5.2,5.1-7.6,10.2-7.6
		c6.8,0,10.3,2.5,10.7,7.8l0,0.5h-5.2l-0.1-0.4c-0.5-3-3.5-3.5-5.3-3.5c-1.5,0-5,0.3-5,2.8c0,1.1,1,2,3,2.5c0.6,0.2,1.5,0.4,2.5,0.7
		c2.1,0.5,4.8,1.2,6.1,1.7C222.9,35.8,224.6,38,224.6,41.1 M249.4,41.2c0,4.1-3.4,8.3-11.1,8.3c-6.8,0-10.8-2.9-11.4-8.3l-0.1-0.5
		h5.3l0.1,0.4c0.6,3.2,3.7,3.9,6.2,3.9c2.7,0,5.5-0.9,5.5-3.3c0-1.2-0.8-2.1-2.4-2.6c-0.9-0.3-2.1-0.6-3.3-0.9
		c-2.1-0.6-4.3-1.2-5.6-1.7c-3.3-1.2-5.2-3.5-5.2-6.3c0-5.2,5.1-7.6,10.2-7.6c6.8,0,10.3,2.5,10.7,7.8l0,0.5h-5.2l-0.1-0.4
		c-0.5-3-3.5-3.5-5.3-3.5c-1.5,0-5,0.3-5,2.8c0,1.1,1,2,3,2.5c0.6,0.2,1.5,0.4,2.5,0.7c2.1,0.5,4.8,1.2,6.1,1.7
		C247.8,35.8,249.4,38,249.4,41.2">
  </path>
  <path class="st1" d="M253.7,25.7c-2,0-3.7-1.6-3.7-3.7c0-2,1.6-3.7,3.7-3.7s3.7,1.6,3.7,3.7c0,0,0,0,0,0c0,2-1.6,3.7-3.6,3.7
		C253.7,25.7,253.7,25.7,253.7,25.7 M253.7,18.9c-1.7,0-3.1,1.3-3.1,3c0,1.7,1.3,3.1,3,3.1c1.7,0,3.1-1.3,3.1-3c0,0,0,0,0-0.1
		c0.1-1.6-1.2-3-2.9-3.1C253.8,18.9,253.7,18.9,253.7,18.9 M253.2,22.7v1.2h-1.1v-3.9h1.8c0.7-0.1,1.4,0.4,1.4,1.1
		c0,0.1,0,0.1,0,0.2c0,0.5-0.3,1-0.7,1.2l0.9,1.4h-1.2l-0.7-1.2L253.2,22.7L253.2,22.7z M253.9,21h-0.6v0.9h0.6
		c0.2,0,0.5-0.1,0.5-0.4c0,0,0,0,0-0.1C254.4,21.1,254.2,20.9,253.9,21C253.9,20.9,253.9,20.9,253.9,21">
  </path>
 </g>
</svg>